<svg id="layer" xmlns="http://www.w3.org/2000/svg" viewBox="0 0 500 500"><defs><style>.cls-1{fill:#2258a5;}.cls-2{fill:#fff;}</style></defs><rect class="cls-1" width="500" height="500"/><path class="cls-2" d="M259.5,454.6c4.4-4.9,9-10.2,12.3-13.4,6.4-6.4,13.1-6.4,13.1-6.4s-7.6-3.7-15.6,4.3c-2.1,2.2-7,7.6-11.9,13.1-1.8-2-3.6-4-5.2-5.8,1.8-2,3.5-3.8,4.9-5.2,6.4-6.4,13.1-6.4,13.1-6.4s-7.6-3.7-15.6,4.3c-1,1-2.6,2.8-4.6,4.9-1.9-2.2-3.6-3.9-4.6-4.9-8-8-15.6-4.3-15.6-4.3s6.6-.1,13.1,6.4c1.4,1.4,3.1,3.2,4.9,5.2-1.6,1.8-3.4,3.8-5.2,5.8-4.9-5.5-9.8-11-11.9-13.1-8-8-15.6-4.3-15.6-4.3s6.6-.1,13.1,6.4c3.3,3.3,7.9,8.5,12.3,13.4-4.1,4.6-8,9-10.3,11.2a19.78,19.78,0,0,1-11.6,5.8s6.7,3.9,15.9-5.4c1.7-1.7,4.7-5.2,8.2-9.1,1.9,2.1,3.6,4.1,5.1,5.8-1.1,1.2-2.1,2.2-2.8,3a19.78,19.78,0,0,1-11.6,5.8s6.7,3.9,15.9-5.4a6,6,0,0,1,.8-.8l.8.8c9.1,9.4,15.9,5.4,15.9,5.4a19.54,19.54,0,0,1-11.6-5.8c-.8-.8-1.7-1.8-2.8-3,1.5-1.6,3.2-3.6,5.1-5.8,3.4,3.9,6.5,7.3,8.2,9.1,9.1,9.4,15.9,5.4,15.9,5.4a19.78,19.78,0,0,1-11.6-5.8C267.5,463.6,263.6,459.2,259.5,454.6Zm-9.5,5.8c-1.6-1.8-3.4-3.7-5.2-5.8,1.7-2,3.5-3.9,5.2-5.8l5.2,5.8C253.4,456.6,251.6,458.6,250,460.4Z"/><path class="cls-2" d="M81.8,178c1,3.2,3.9,5.1,7.5,5.1a11.85,11.85,0,0,0,3.2-.5c.1.2.3.4.5.7a8.55,8.55,0,0,0,1.9,1.9,1.08,1.08,0,0,0,.8.2,1.25,1.25,0,0,0,1.1-.6,1.4,1.4,0,0,0-.3-1.9,5.35,5.35,0,0,1-1.3-1.3c-.1-.1-.1-.2-.2-.3a9,9,0,0,0,3.3-3.4,6.8,6.8,0,0,0,.5-5.4,3.37,3.37,0,0,0-2.7-2.4.37.37,0,0,0-.3.1c-.1-.4-.2-.9-.3-1.3-1.3-4.2-5.1-7.5-8-7.3a1.65,1.65,0,0,0-1.6-.4,1.62,1.62,0,0,0-1.1,1.2,5.06,5.06,0,0,0-1.8,2,12.29,12.29,0,0,0-.6,8.5,6.94,6.94,0,0,0,.5,1.3.35.35,0,0,0-.2.1A3.81,3.81,0,0,0,81.8,178Zm14.6-3.9a4.25,4.25,0,0,1-.5,2.7,7.36,7.36,0,0,1-4.2,3.2,6.9,6.9,0,0,1-2.5.4,5,5,0,0,1-4.7-2.6,12,12,0,0,0,2.3.3,13.86,13.86,0,0,0,4-.6A11.66,11.66,0,0,0,96.4,174.1Zm-11-8.2a2.24,2.24,0,0,1,.9-1,.92.92,0,0,0,.6-.4h.7c1.1-.3,4.2,2,5.3,5.4a10,10,0,0,1,.5,3.4,9.54,9.54,0,0,1-3.2,1.6,12.48,12.48,0,0,1-3.2.5h-.3a10.81,10.81,0,0,1-1.6-3A9.18,9.18,0,0,1,85.4,165.9Z"/><path class="cls-2" d="M113.1,200.4a3.13,3.13,0,0,0,3-2v-.3h1.3a11.81,11.81,0,0,0,7.9-3.2,4.78,4.78,0,0,0,1.3-2.4,1.77,1.77,0,0,0,.8-1.4,1.62,1.62,0,0,0-.9-1.4c-.7-2.8-5-5.3-9.5-5.2a6.6,6.6,0,0,0-1.4.1v-.3a3.19,3.19,0,0,0-3.1-1.8h0a7.41,7.41,0,0,0-5.6,2.9,8.46,8.46,0,0,0-1.6,3.6c-.1,0-.2-.1-.3-.1a8,8,0,0,1-1.6-.8,1.42,1.42,0,0,0-1.9.3,1.4,1.4,0,0,0,.3,1.9,9,9,0,0,0,2.4,1.2,3.09,3.09,0,0,0,.8.2c.1,5.1,3.3,8.7,7.6,8.7Zm4.2-13.1c3.6-.1,6.8,2.1,6.8,3.2a1.33,1.33,0,0,1,0,1.4,2.56,2.56,0,0,1-.7,1.2,9.52,9.52,0,0,1-6,2.4,9.67,9.67,0,0,1-3.4-.5,14.36,14.36,0,0,1-.7-3.5,11.3,11.3,0,0,1,.5-3.5A10.9,10.9,0,0,1,117.3,187.3Zm-9.3,4.3a7.08,7.08,0,0,1,1.3-4.5,4.12,4.12,0,0,1,2.8-1.7,12.91,12.91,0,0,0-1.4,6.2,12.51,12.51,0,0,0,1.7,6.1C109.9,197.4,108.1,194.9,108,191.6Z"/><path class="cls-2" d="M98.5,266.1a4.92,4.92,0,0,0,0-2.7,1.52,1.52,0,0,0,0-1.6A1.77,1.77,0,0,0,97,261c-2-2.1-7-2.1-10.8.2a4.44,4.44,0,0,0-1.1.8c-.1-.1-.1-.2-.2-.2a2.92,2.92,0,0,0-1.8-.6,4.07,4.07,0,0,0-1.8.5,7,7,0,0,0-3.4,5.2,8.69,8.69,0,0,0,.4,3.9.37.37,0,0,0-.3.1,5.46,5.46,0,0,1-1.8.1,1.36,1.36,0,0,0-.3,2.7c.3,0,.6.1.9.1a11,11,0,0,0,1.8-.2c.3-.1.6-.1.9-.2a9.14,9.14,0,0,0,7.5,4.7,6.53,6.53,0,0,0,3.6-1,3,3,0,0,0,1.6-3.2.35.35,0,0,0-.1-.2l1.2-.6A13.38,13.38,0,0,0,98.5,266.1Zm-10.9-2.7c3.1-1.9,6.9-1.5,7.5-.6.1.3.3.4.5.6a1.85,1.85,0,0,0,.2.7,1.79,1.79,0,0,1,0,1.3,9.2,9.2,0,0,1-7.2,6.3,10.75,10.75,0,0,1-2.3-2.7,11.76,11.76,0,0,1-1.3-3.3A9.56,9.56,0,0,1,87.6,263.4Zm-5.9,8.4a7.16,7.16,0,0,1-1.1-4.6,4.29,4.29,0,0,1,1.6-2.9,12.68,12.68,0,0,0,1.9,6.1,12.09,12.09,0,0,0,4.5,4.5C86.2,275.9,83.3,274.5,81.7,271.8Z"/><path class="cls-2" d="M51.1,268.9c.3.3.7.6,1,.9,0,.1-.1.1-.2.2a3.26,3.26,0,0,0,.9,3.5,6.71,6.71,0,0,0,4.9,1.9h0a9.67,9.67,0,0,0,6.8-3.2,5.9,5.9,0,0,1,.8.4,7.71,7.71,0,0,0,2.6.7H68a1.24,1.24,0,0,0,1.3-1.2,1.36,1.36,0,0,0-1.2-1.5,6.07,6.07,0,0,1-1.8-.5.37.37,0,0,0-.3-.1,8.57,8.57,0,0,0,1.2-4.6,7.22,7.22,0,0,0-2.2-5,3.26,3.26,0,0,0-2.3-1,2.2,2.2,0,0,0-1.2.3c-.1,0-.1.1-.2.2-.3-.3-.6-.7-.9-1-3.2-3-8.1-4.1-10.5-2.4a1.71,1.71,0,0,0-1.6.4,1.61,1.61,0,0,0-.3,1.6,5.4,5.4,0,0,0-.6,2.7A11.94,11.94,0,0,0,51.1,268.9Zm13.6-3.4a6.54,6.54,0,0,1-2.1,4.8,7,7,0,0,1-4.8,2.4h0a4.38,4.38,0,0,1-2.5-.8,11.93,11.93,0,0,0,5.4-3.4,11.69,11.69,0,0,0,3.1-5.6A5.09,5.09,0,0,1,64.7,265.5Zm-14.3-5.6a2.09,2.09,0,0,0,.4-.6,2.09,2.09,0,0,0,.6-.4c.8-.8,4.6-.4,7.2,2.1a10.4,10.4,0,0,1,2.1,2.7,11.11,11.11,0,0,1-2,3,13.05,13.05,0,0,1-2.9,2.2A9.92,9.92,0,0,1,53,267a8.71,8.71,0,0,1-2.8-5.8A1.86,1.86,0,0,1,50.4,259.9Z"/><path class="cls-2" d="M110.1,342.1a5.53,5.53,0,0,0-1.3-2.4,1.43,1.43,0,0,0-.8-1.4,1.72,1.72,0,0,0-1.7,0c-2.8-.9-7.2,1.6-9.4,5.4l-.6,1.2c-.1,0-.2-.1-.3-.1h-.4a3.2,3.2,0,0,0-2.8,1.7c-1.8,3.1-.9,6.8,1.8,9.4l-.2.2a13,13,0,0,1-1.5,1,1.36,1.36,0,0,0-.7,1.8,1.34,1.34,0,0,0,1.3.8.9.9,0,0,0,.5-.1,7.89,7.89,0,0,0,2.3-1.4,1.7,1.7,0,0,0,.6-.6A10.59,10.59,0,0,0,102,359a7.07,7.07,0,0,0,6.4-3.6,3.2,3.2,0,0,0-.1-3.6c-.1-.1-.1-.1-.2-.1a6.73,6.73,0,0,0,.7-1.1A11.73,11.73,0,0,0,110.1,342.1Zm-10.8,3c1.8-3.1,5.3-4.7,6.3-4.1a2.54,2.54,0,0,0,.7.2,1.21,1.21,0,0,0,.5.5,1.63,1.63,0,0,1,.6,1.2,8.76,8.76,0,0,1-1.1,6.4,10.88,10.88,0,0,1-2.1,2.6,10.72,10.72,0,0,1-3.4-1.2,11.12,11.12,0,0,1-2.8-2.3A12,12,0,0,1,99.3,345.1Zm-1.2,10.1c-2.5-1.4-4.3-4.1-3.2-6.8a11.53,11.53,0,0,0,4.6,4.4,12.57,12.57,0,0,0,6.1,1.7C104.1,356.6,100.9,356.8,98.1,355.2Z"/><path class="cls-2" d="M87.5,361.1a1.36,1.36,0,0,0-1.8-.7,4.78,4.78,0,0,1-1.8.4h-.3a8.53,8.53,0,0,0-.8-3.9,6.93,6.93,0,0,0-4.8-4,3.28,3.28,0,0,0-3.4,1.1.37.37,0,0,0-.1.3,6.47,6.47,0,0,0-1.3-.4c-4.2-1-9,.4-10.4,3a1.78,1.78,0,0,0-1.2,1.2,1.75,1.75,0,0,0,.5,1.6,4.61,4.61,0,0,0,.8,2.6,12,12,0,0,0,7,4.9l1.3.3v.3a3.31,3.31,0,0,0,2.5,2.6,11,11,0,0,0,1.8.2h0c3.6,0,6.7-2.8,7.8-7h.8a7.71,7.71,0,0,0,2.6-.7A1.33,1.33,0,0,0,87.5,361.1ZM65.3,361a2.21,2.21,0,0,1-.4-1.3.85.85,0,0,0,0-.7c.1-.2.3-.4.3-.6.3-1.1,3.9-2.5,7.3-1.7a9.78,9.78,0,0,1,3.1,1.4,11.26,11.26,0,0,1-.3,3.5,13,13,0,0,1-1.4,3.3,9.82,9.82,0,0,1-3.4-.3A9.15,9.15,0,0,1,65.3,361Zm15.4,1.9c-.7,3-2.8,5-5.2,5H75a13.1,13.1,0,0,0,3-12,4,4,0,0,1,2.3,2.3A6.76,6.76,0,0,1,80.7,362.9Z"/><path class="cls-2" d="M153.4,421h.1c5,0,8.8-3.2,8.9-7.5a3.35,3.35,0,0,0-1.9-3.1h-.3a5.7,5.7,0,0,0,.1-1.3,11.63,11.63,0,0,0-3-8,4.37,4.37,0,0,0-2.3-1.4,1.5,1.5,0,0,0-1.4-.9,1.68,1.68,0,0,0-1.4.8c-2.8.6-5.5,4.9-5.6,9.3a6.6,6.6,0,0,0,.1,1.4h-.3a3.19,3.19,0,0,0-1.9,3,6.91,6.91,0,0,0,2.7,5.6,8.8,8.8,0,0,0,3.5,1.7c0,.1-.1.2-.1.3a5.07,5.07,0,0,1-.9,1.6,1.31,1.31,0,0,0,.2,1.9,1.48,1.48,0,0,0,2-.2,7,7,0,0,0,1.3-2.4A1.88,1.88,0,0,1,153.4,421Zm-.6-18.8h0a1.33,1.33,0,0,1,1.4,0,2,2,0,0,1,1.1.7,9.25,9.25,0,0,1,2.2,6.1,12.76,12.76,0,0,1-.6,3.4,11.3,11.3,0,0,1-3.5.5h0a11,11,0,0,1-3.5-.6,9.34,9.34,0,0,1-.6-3.4C149.4,405.2,151.7,402.2,152.8,402.2Zm-5.6,11.7a11.74,11.74,0,0,0,6.3,1.6,12.09,12.09,0,0,0,6-1.5c-.4,2.7-3.3,4.2-6.1,4.2h-.1a6.61,6.61,0,0,1-4.5-1.5A4.44,4.44,0,0,1,147.2,413.9Z"/><path class="cls-2" d="M145.5,429.9a4.89,4.89,0,0,1-1.3,1.2c-.1.1-.2.1-.3.2a7.9,7.9,0,0,0-6.8-4.4,6.28,6.28,0,0,0-1.9.3,3.31,3.31,0,0,0-2.5,2.6v.3l-1.3.3c-4.2,1.2-7.7,4.8-7.6,7.7a1.45,1.45,0,0,0-.4,1.6,1.48,1.48,0,0,0,1.2,1.1,5.26,5.26,0,0,0,2,1.9,11.54,11.54,0,0,0,5.3,1.3,11.24,11.24,0,0,0,3.2-.4c.4-.1.9-.3,1.3-.4,0,.1,0,.2.1.2a3.31,3.31,0,0,0,2.5,1.2,3.75,3.75,0,0,0,1-.1,7.16,7.16,0,0,0,4.3-3.3,9.35,9.35,0,0,0,.7-7.2c.2-.1.4-.3.7-.5a7.21,7.21,0,0,0,2-1.9,1.42,1.42,0,0,0-.3-1.9A1.3,1.3,0,0,0,145.5,429.9ZM134.3,441a8.76,8.76,0,0,1-6.4-.6,3,3,0,0,1-1-.9,1.63,1.63,0,0,0-.3-.6v-.7c-.3-1.1,2.1-4.1,5.6-5.1a9.82,9.82,0,0,1,3.4-.3,12.83,12.83,0,0,1,1.5,3.3,12.34,12.34,0,0,1,.4,3.6C136.5,440.1,135.5,440.6,134.3,441Zm7.5-1.3a4.32,4.32,0,0,1-2,1.8,12.66,12.66,0,0,0-.1-6.4,13.82,13.82,0,0,0-3.1-5.6c2.5-.3,4.9,1.7,5.7,4.8A7,7,0,0,1,141.8,439.7Z"/><path class="cls-2" d="M227.4,457.4c.9,0,1.8-.1,2-.7v-.5c0-.6.1-1.3-8.9-3,.1-3.3-.1-9.9-4.1-12.5a4.9,4.9,0,0,0-2.5-.8c-2.3,0-3.5,1.9-4.3,3.2a3,3,0,0,1-.5.7c-.4-.3-.6-1.1-.9-3.5l-.2-1.5c-.4-2.5-1.1-7.8-6.5-9.3a6.8,6.8,0,0,0-1.9-.3c-3.8,0-4.9,3.6-5.6,5.8-.2.8-.6,2.1-1,2.3-.7-.6-.7-4.1-.7-5.6v-1.1c0-7.1-3.4-11.2-9.1-11.2a10.87,10.87,0,0,0-1.8.1,5.65,5.65,0,0,0-4,1.9c-1.8,2.2-1.4,5.3-1,8.1a16.17,16.17,0,0,1,.2,3,1.27,1.27,0,0,1-.6.1c-.9,0-2-1-3.1-3.2-2.1-3.8-5.5-6-9.3-6s-7.2,2.1-9.7,5.8a11,11,0,0,0-1,11.4c1.8,3.4,5.6,5.4,10,5.4h2.2c2.7,0,3.7.7,4.3,1.9a18.61,18.61,0,0,1-2.5,1.4c-2.5,1.2-5.4,2.6-6.1,5.3a5.88,5.88,0,0,0,1.2,4.9c3.3,4.2,6.9,5.1,9.5,5.1a12.94,12.94,0,0,0,8.6-3.6,9.43,9.43,0,0,0,1-1c1.4-1.4,3.4-3.2,4.5-3.2a.65.65,0,0,1,.5.2,5.17,5.17,0,0,1-.7,2.1c-.7,1.7-1.6,3.9-.6,6a6.37,6.37,0,0,0,4,3.2,11.33,11.33,0,0,0,3.6.6c4.4,0,7.1-3,8.4-4.4l.2-.2a15.38,15.38,0,0,1,1.2-1.3c1.3-1.4,2-2.2,2.7-2.2h0a2.49,2.49,0,0,1,.1.8c.2,1.6.8,5.5,5.5,5,3.8-.4,6.9-3.8,9-10.1A47.12,47.12,0,0,0,227.4,457.4Zm-16.9,5.4h-.7a5.29,5.29,0,0,1-.4-1.6c-.2-1.4-.6-3.7-2.9-4.1a6.15,6.15,0,0,0-1.3-.1c-2.6,0-4.1,1.7-5.8,3.6a15,15,0,0,0-1.1,1.3l-.2.3c-1.1,1.2-2.8,3-5.4,3a6.56,6.56,0,0,1-2.3-.4c-.9-.3-1.5-.7-1.6-1-.2-.5.3-1.8.7-2.8.7-1.8,2-4.8-.6-6.8a4.72,4.72,0,0,0-3-1c-2.7,0-5.1,2.2-7.3,4.3-.3.3-.7.6-1,.9a9.24,9.24,0,0,1-5.9,2.6,7.76,7.76,0,0,1-6.2-3.5c-.3-.4-.7-1.1-.6-1.5.2-.9,2.4-2,3.9-2.7,2.5-1.2,5.9-2.8,4.7-6.1-1.8-4.9-6.7-4.9-8.2-4.9h-1.4c-3.3.2-6-1-7.2-3.3a7.08,7.08,0,0,1,.8-7.2c1.7-2.5,4-4,6.3-4s4.3,1.4,5.7,3.9c1.2,2.3,3.3,5.3,6.7,5.3a7.93,7.93,0,0,0,2.5-.5c2.7-1.1,2.3-4.3,2-7.1-.2-1.8-.5-4.2.1-5,.1-.1.3-.4,1.2-.4a6.15,6.15,0,0,1,1.3-.1c1.4,0,5,0,5,7.2v1c0,3.1,0,6.6,1.8,8.4a4.14,4.14,0,0,0,3.3,1.2c3-.2,3.8-3.1,4.5-5.2.9-3.1,1.3-3.1,2.5-2.8,2.6.7,3.2,3.2,3.6,5.9l.2,1.5c.4,3.1.9,6.3,4.6,7.1.2,0,.4.1.6.1h0c1.9,0,2.9-1.6,3.6-2.8.3-.4.7-1.2.8-1.3s.1,0,.3.2c.9.6,2.2,2.4,2.2,8.3-1-.2-2-.3-3.2-.5-15-2.6-34-10.2-40.3-12.6-1.9-.8-1.9-.8-2.1-.8a.76.76,0,0,0-.5.2h0c0,.1-.1.1-.1.2s0,.1-.1.2v.3c.4,1.3,25,13,42.4,16.1,1.1.2,2.2.3,3.2.5C213.9,461.3,211.9,462.6,210.5,462.8Z"/><path class="cls-2" d="M105.4,177.4l.3.4v.2h.6c.3,0,.6,0,2.6-2.1,2.5,1.4,5.9,2.9,9.1,2.9a7.51,7.51,0,0,0,3.7-.9,4.42,4.42,0,0,0,2.1-2.6c.4-1.7-.5-3.3-1.1-4.4a4.35,4.35,0,0,1-.4-.7c.6-.2,1.8.3,3.2.7l1.7.6a15.65,15.65,0,0,0,4.9,1,7.79,7.79,0,0,0,6-2.6,5.32,5.32,0,0,0,1.7-3.9c-.1-2.2-1.8-3.9-3.1-5.2a10.73,10.73,0,0,1-1.5-1.7c0-.1.1-.1.3-.1,1.2,0,3.3,1.1,5,1.9l.7.4c7.1,3.4,12.7,1.4,14.6-4.6a5.18,5.18,0,0,0-.1-4.4c-1.2-2.5-4-3.5-6.6-4.3a10.68,10.68,0,0,1-2.6-1.1c.1-.8.6-1.9,4.2-1.9,4.2-.1,7.6-2,9.3-5.1,1.8-3.3,1.6-7.4-.6-11.4a10.91,10.91,0,0,0-9.4-5.9c-4.3,0-8,2.7-9.9,7.2-1.5,3.3-2.6,4-3.9,4a23.52,23.52,0,0,1-.1-2.8c0-2.7,0-5.7-1.8-7.5a5,5,0,0,0-3.6-1.4,8.64,8.64,0,0,0-1.5.1c-3.9.8-6.8,2.7-8.5,5.5a12.12,12.12,0,0,0-.9,9.6,9.83,9.83,0,0,0,.5,1.6c.8,2.8,1.5,5.1.4,5.5a10.16,10.16,0,0,1-1.6-1.5c-1.3-1.4-2.8-3.3-5.2-3.3a6.46,6.46,0,0,0-4.4,2.1c-4.7,4.8-2.8,10-1.9,12.2l.1.3a12.13,12.13,0,0,1,.5,1.4c.8,2.1,1,2.8.7,3.4a1.88,1.88,0,0,0-.8-.2,7.71,7.71,0,0,0-2.8-.6c-1.1,0-3.1.4-4.2,3.2-1.4,3.6.3,7.9,5.1,12.7C105,176.6,105.3,177.1,105.4,177.4Zm-.2-14.4c.2-.5.4-.5.4-.6a5.62,5.62,0,0,1,1.5.4,6.44,6.44,0,0,0,2.4.5,3.23,3.23,0,0,0,2.6-1.2c2.2-2.7,1.1-5.4.1-7.9-.2-.4-.3-.9-.5-1.3l-.1-.3c-1-2.5-1.7-5.2,1-7.9.9-.9,1.4-1,1.6-1,.6,0,1.4,1,2.2,1.8,1.1,1.3,2.5,2.9,4.6,2.9a4.15,4.15,0,0,0,1.6-.3c4.5-1.9,2.9-7,1.9-10.4a8.33,8.33,0,0,1-.4-1.5,8.17,8.17,0,0,1,.4-6.4,8.3,8.3,0,0,1,5.8-3.6c.3,0,.5-.1.7-.1.5,0,.7.1.7.2.6.6.6,3,.6,4.6,0,2.8-.1,6.6,3.4,6.9,4.7.5,6.9-3,8.4-6.4,1.3-3,3.6-4.8,6.1-4.8a6.74,6.74,0,0,1,5.8,3.8c1.5,2.7,1.8,5.4.6,7.4-1,1.8-3.1,2.9-5.8,3-6.5,0-8.1,3.3-8.3,6.1s2.9,4,5.4,4.8c1.6.6,3.8,1.3,4.2,2.2.1.1.2.4-.1,1.4-1,3.2-2.9,3.6-4.2,3.6a10.47,10.47,0,0,1-4.7-1.3l-.7-.4c-2.2-1.1-4.6-2.4-6.8-2.4a4.43,4.43,0,0,0-4.1,2.5c-1.2,2.7,1,4.9,2.5,6.3.7.7,1.8,1.7,1.8,2.3a1.83,1.83,0,0,1-.6,1,3.67,3.67,0,0,1-3,1.3,10,10,0,0,1-3.6-.8l-1.7-.6a14.91,14.91,0,0,0-4.2-1,4.6,4.6,0,0,0-3.8,1.9c-1.5,1.8-.3,3.8.4,5,.2.4.6,1,.7,1.3a.35.35,0,0,1-.2.1,3.81,3.81,0,0,1-1.6.3c-2.1,0-4.6-1.1-6.4-2,1.4-1.7,3.3-4,5.8-6.9,9-11.1,23.4-23.6,29.8-28.6l.2-.1c2.5-1.7,2.5-1.7,2.5-2.1v-.3l-.4-.5h-.3c-.3,0-.4,0-2.8,1.9-5.5,3.9-22.1,15.6-31.7,27.4-2.5,3.1-4.4,5.5-5.7,7.3C104.7,166.5,104.8,164,105.2,163Z"/><path class="cls-2" d="M126.7,424.1h0c4,0,7.7-3,9.7-4.7a7.32,7.32,0,0,0,3.1,1.5,1,1,0,0,0,.8-.4v-.1c.1-.1.2-.2.2-.3.1-.4.2-.6-2.1-2.9,1.4-2.3,5.4-8.8,2.8-13.2a4.09,4.09,0,0,0-3.6-2.3,6.81,6.81,0,0,0-3.3,1.1l-.6.3c-.1-.5.1-1.2.8-3.2l.6-1.5c.8-2.1,2.7-7.1-1.2-10.9a5.34,5.34,0,0,0-3.9-2c-2.2,0-3.8,1.6-5.1,2.9-.6.5-1.5,1.4-1.8,1.4-.4-.7,1.5-4.1,2.1-5.2l.4-.7c2-3.7,2.4-7,1.4-9.8a8.44,8.44,0,0,0-5.4-5,5.59,5.59,0,0,0-2.5-.5c-3.9,0-5.4,3.9-6.6,6.8a10.55,10.55,0,0,1-1.2,2.6c-.8-.2-1.8-.8-1.9-4.1a10.77,10.77,0,0,0-2.7-8.2c-3.1-3.2-8.5-3.8-13.4-1.2-3.8,2-6.2,5.5-6.2,9.4,0,4.1,2.5,7.8,6.7,10,3.5,1.6,4,2.7,3.9,3.9a12.51,12.51,0,0,1-2.8,0c-.7,0-1.5-.1-2.2-.1-1.9,0-4.2.2-5.7,1.9a5.39,5.39,0,0,0-1.1,4.6c.9,6.5,5.2,10.5,11.1,10.5a14.87,14.87,0,0,0,3.6-.5c.5-.1,1.1-.3,1.6-.4a18.83,18.83,0,0,1,4.3-.8c1.1,0,1.2.3,1.3.6a5.88,5.88,0,0,1-1.6,1.5c-1.4,1.1-3.2,2.5-3.4,4.8q-.3,2.25,1.8,4.8a9.6,9.6,0,0,0,7.3,3.3,15,15,0,0,0,4.9-1l.4-.1c.5-.2,1-.3,1.5-.5a10.18,10.18,0,0,1,2.8-.8.73.73,0,0,1,.6.2,6.89,6.89,0,0,1-.3.8c-.6,1.4-2.1,5.3,2.4,7.1A9.35,9.35,0,0,0,126.7,424.1Zm-5.3-12.7a13.58,13.58,0,0,0-4.1,1c-.4.2-.9.3-1.4.5l-.4.1a11.48,11.48,0,0,1-3.6.7,5.69,5.69,0,0,1-4.2-1.9,3.45,3.45,0,0,1-.9-1.7c.1-.6,1.1-1.4,1.9-2.1,1.6-1.3,4-3.2,2.8-6.1-.4-1.2-1.7-3.2-5.1-3.2a25.57,25.57,0,0,0-5.3.9c-.5.1-1,.3-1.6.4a12.66,12.66,0,0,1-2.6.4c-3.9,0-6.4-2.5-7-7A2.66,2.66,0,0,1,90,392c.2-.2.7-.5,2.7-.5a13.4,13.4,0,0,1,2,.1c.7,0,1.4.1,2,.1,3.1,0,4.8-1.1,5-3.1.8-4.9-2.9-7.2-6.1-8.6-2.8-1.4-4.4-3.8-4.4-6.3s1.4-4.5,4-5.8c3.3-1.7,6.7-1.5,8.5.4a7.18,7.18,0,0,1,1.6,5.3c.1,5,2,7.8,5.9,8.3h.3c2.7,0,3.8-2.8,4.7-5.2.7-1.9,1.6-4.2,2.8-4.2a5.76,5.76,0,0,1,1,.2,4.51,4.51,0,0,1,3.1,2.7c.6,1.6.2,3.8-1.2,6.4l-.4.7c-1.5,2.7-3.2,5.7-2.4,8.3a4.31,4.31,0,0,0,2.2,2.6,3.66,3.66,0,0,0,1.8.4c1.9,0,3.3-1.4,4.6-2.6.7-.7,1.8-1.7,2.3-1.7.1,0,.4.2.9.7,1.9,1.9,1.2,4.2.3,6.7l-.6,1.5c-1,2.7-2.1,5.6.5,8.1a3.23,3.23,0,0,0,2.1.8h0a5.93,5.93,0,0,0,2.9-1,9.67,9.67,0,0,0,1.2-.7,1.24,1.24,0,0,1,.2.3c.4.7.9,2.8-2.3,8.3-1.6-1.5-3.7-3.5-6.5-6-7.7-6.8-17.1-17.6-28-32.1-1.2-1.6-1.2-1.6-1.6-1.6h-.2a.66.66,0,0,0-.4.5c-.2,1.3,14.7,24.2,27.8,35.8,2.6,2.4,4.8,4.3,6.7,5.9-2.5,2.1-4.7,3.2-6.4,3.2a3.59,3.59,0,0,1-1.1-.2,2.23,2.23,0,0,1-.5-.3c-.1-.3.3-1.1.5-1.6.5-1.3,1.3-3.4-.3-5A5.94,5.94,0,0,0,121.4,411.4Z"/><path class="cls-2" d="M67.3,335.1c.6.1,1.2.2,1.7.3,2.2.4,2.8.6,3.2,1.1a2.65,2.65,0,0,1-.6.5c-1.2,1-4.2,3.6-1.4,7.3,1.6,2.1,4.1,3.1,7.6,3.1a25.68,25.68,0,0,0,5.6-.7c1.5,3.1,1.9,3.1,2.3,3.1a.71.71,0,0,0,.6-.3l.3-.1c.2-.3.4-.6-.5-3.8,2.7-1.5,8.6-5.2,8.7-10a3.94,3.94,0,0,0-1.1-3.1c-1.3-1.3-3.1-1.3-4.4-1.3h-.8c.1-.5.6-1,2.4-2.5l1.2-1c1.9-1.6,5.9-4.9,4.5-10.2a5,5,0,0,0-5-4.1,12.08,12.08,0,0,0-3.4.6,10.73,10.73,0,0,1-2.1.4c-.2,0-.2,0-.3-.1.1-.9,3.1-2.6,4.3-3.4l.9-.5c3.6-2.2,5.6-4.8,6.1-7.6.4-2.5-.5-4.9-2.4-7.2a5.19,5.19,0,0,0-4.3-2.4c-2.5,0-4.7,1.8-6.6,3.3a22.13,22.13,0,0,1-2.3,1.7c-.7-.5-1.2-1.4.7-4.6,2.1-3.5,2.3-7.3.6-10.4-1.8-3.3-5.6-5.4-10.2-5.6h-.5c-4.3,0-7.9,2-9.6,5.4-1.9,3.5-1.4,7.9,1.3,11.8,2.1,3,1.8,4.4,1.2,5.4a16.6,16.6,0,0,1-2.5-1.4c-1.9-1.2-4-2.5-6.2-2.5-1.5,0-3.6.6-4.9,3.8A11.53,11.53,0,0,0,59.5,316a10.26,10.26,0,0,1,1.4.4c2.9.8,5.2,1.5,5.1,2.6a8.08,8.08,0,0,1-2.1.5c-1.8.3-4.1.7-5.4,2.6a5.92,5.92,0,0,0-.6,5c1.5,6.6,6.9,7.7,9.3,8.1ZM61.7,326c-.3-1.3-.1-1.8,0-1.9.3-.5,1.7-.7,2.7-.8,1.9-.3,5.1-.8,5.4-4.1.4-4.7-4.5-6-8.1-7a6.47,6.47,0,0,1-1.3-.4,8,8,0,0,1-5.3-4,8.11,8.11,0,0,1-.1-6.5c.5-1.2,1-1.2,1.2-1.2,1,0,2.7,1.1,4,1.9,1.7,1.1,3.3,2.1,4.9,2.1a3.65,3.65,0,0,0,2.8-1.4c3.3-4.5.1-9-.9-10.5-1.8-2.6-2.2-5.4-1-7.6a6.58,6.58,0,0,1,6-3.2h.3c3.1.1,5.6,1.4,6.8,3.5,1,1.8.8,4.1-.6,6.4-1,1.7-4,6.9.7,10.2a3.29,3.29,0,0,0,1.9.6h0c1.7,0,3.3-1.2,5-2.6,1.3-1,3-2.4,4.1-2.4.1,0,.5,0,1.1.8,1.2,1.4,1.8,2.8,1.6,4-.3,1.6-1.7,3.3-4.2,4.8l-.9.5c-2.7,1.6-5.7,3.4-6.2,6.1a4.44,4.44,0,0,0,.8,3.3,4.07,4.07,0,0,0,3.5,1.7,12,12,0,0,0,3.2-.6,14.75,14.75,0,0,1,2.4-.5c.4,0,.8,0,1.1,1.1.7,2.5-1.1,4.3-3.1,6l-1.2,1c-2.3,1.9-4.7,3.9-3.6,7.5.8,2.2,3.1,2.2,4.5,2.2a6.15,6.15,0,0,1,1.4.1v.2c0,1-.9,3.1-5.8,6.1-.7-2.1-1.6-4.7-2.8-8.1-4.7-13.4-7.3-31.8-8.4-39.7-.6-4.3-.6-4.3-1.3-4.3l-.6.3c-.6.9.8,27.4,6.8,44.8,1.3,3.5,2.3,6.2,3.1,8.2a21.77,21.77,0,0,1-3.9.5c-2.1,0-3.6-.5-4.3-1.5-.3-.4-.3-.5-.3-.5.1-.3.8-.8,1.1-1.1,1-.9,2.8-2.4,2-4.5-1.1-3.3-3.9-3.8-6.5-4.2l-1.6-.3-.3-.1C65.1,330.5,62.5,329.7,61.7,326Z"/><path class="cls-2" d="M63.7,239.3l.2.2a11.32,11.32,0,0,0,1.3,1c1.8,1.4,2.3,1.9,2.3,2.6-.2.1-.6.1-.8.2-1.5.3-5.4,1-4.8,5.6.5,3.8,4,6.6,10.4,8.5-.1,2.5.3,2.9.4,3.1a.67.67,0,0,0,.7.3h.2c.5,0,.7,0,1.5-3,2.9,0,9.9-.3,12.5-4.5a4,4,0,0,0,.6-3.3c-.4-1.7-2-2.6-3.1-3.3a2.09,2.09,0,0,1-.6-.4c.3-.3,1.1-.6,3.1-1l1.6-.3c2.3-.4,7.6-1.4,8.8-6.8s-3.5-6.6-5.7-7.1a12.72,12.72,0,0,1-2.1-.7h0c.7-.7,3.9-.9,5.6-.9h.8c4.1-.3,7.1-1.5,8.9-3.8a9.11,9.11,0,0,0,1.6-7.4c-.3-1.8-1.5-4.9-6.1-4.9a27.33,27.33,0,0,0-4,.5,13.81,13.81,0,0,1-2.6.3h-.2c-.3-.8-.3-2.1,2.6-3.7,3.6-2,5.7-5.2,5.7-8.8.1-3.8-2.2-7.5-6.1-9.8-4.6-2.8-10.1-2.2-13.4,1.3a12,12,0,0,0-2.8,9.2c.3,3.6-.2,4.8-1.4,5.4-.4-.5-1-1.6-1.5-2.4-1.4-2.6-3.2-5.9-6.5-5.9A6.13,6.13,0,0,0,67,201c-3,2.5-4.7,5.5-4.8,8.7a12.25,12.25,0,0,0,4,9.1l1.2,1.2c2.1,2,3.7,3.7,2.9,4.6a6.3,6.3,0,0,1-2-.6,11.16,11.16,0,0,0-3.7-.9c-1.7,0-4,.8-5.2,4.6C57.6,234.2,61.8,237.8,63.7,239.3Zm-.4-10.5c.5-1.7,1-1.7,1.3-1.7a7.84,7.84,0,0,1,2.3.6,10.51,10.51,0,0,0,3.4.8h0a4.08,4.08,0,0,0,3.3-1.6c3-3.8-.8-7.5-3.4-10a11.41,11.41,0,0,1-1.1-1.1,8,8,0,0,1-2.8-6,8.35,8.35,0,0,1,3.3-5.7c.7-.6,1.1-.6,1.2-.6.9,0,2.1,2.4,2.9,3.8,1.3,2.3,2.5,4.7,4.9,4.7h0a2.77,2.77,0,0,0,1.3-.3c4.9-1.9,4.5-7,4.3-9.7a7.73,7.73,0,0,1,1.8-6.1c2-2.1,5.3-2.4,8.3-.6,2.7,1.6,4.2,4,4.2,6.3,0,2.1-1.3,4-3.7,5.3-5.8,3.3-5.1,7.2-4.2,9.4.4.9,1.5,2,3.8,2a21.09,21.09,0,0,0,3.3-.4,19.77,19.77,0,0,1,3.3-.4c1.6,0,1.9.5,2,1.5a5.55,5.55,0,0,1-.7,4.2c-1,1.3-3.1,2.1-5.9,2.2h-.8c-3.1.1-6.6.3-8.4,2.2a4,4,0,0,0-1.1,3.2c.3,3,3.2,3.8,5.2,4.3,3.1.8,3.1,1.1,2.8,2.3-.6,2.6-3,3.2-5.6,3.7l-1.6.3c-2.9.6-5.9,1.1-6.6,4.7-.4,2.3,1.6,3.5,2.8,4.2a5,5,0,0,1,1.2.8.31.31,0,0,1-.1.2c-.5.9-2.4,2.3-8.2,2.5.4-2.2,1-5.1,1.7-9,2.4-13.7,9.2-31,12.1-38.3,1.6-4.2,1.6-4.2,1.2-4.6a.6.6,0,0,0-.4-.1c-1.6,0-13.5,25.6-16.4,42.4-.7,4-1.2,7-1.5,9.2-5.5-1.7-6.6-3.8-6.7-4.9-.1-.5,0-.6,0-.6a5,5,0,0,1,1.6-.5c1.3-.3,3.6-.7,4-3,.7-3.4-1.6-5.2-3.7-7a10.59,10.59,0,0,1-1.2-1l-.3-.2C64.2,234.5,62.3,232.5,63.3,228.8Z"/><path class="cls-2" d="M404.9,181.5a.77.77,0,0,0-.2.3,8,8,0,0,1-1.3,1.3,1.42,1.42,0,0,0-.4,1.9,1.38,1.38,0,0,0,1.1.6,2.35,2.35,0,0,0,.8-.2,6.87,6.87,0,0,0,1.9-1.9c.2-.3.4-.5.5-.7a12.48,12.48,0,0,0,3.2.5c3.7,0,6.6-2,7.5-5.1a3.11,3.11,0,0,0-.9-3.5c-.1-.1-.1-.1-.2-.1.2-.4.3-.8.5-1.3a11.76,11.76,0,0,0-.5-8.5,5.06,5.06,0,0,0-1.8-2,1.62,1.62,0,0,0-1.1-1.2,1.72,1.72,0,0,0-1.6.4c-2.9-.2-6.7,3.1-8,7.3a6.11,6.11,0,0,0-.3,1.3c-.1,0-.2-.1-.3-.1a3,3,0,0,0-2.7,2.4,7.21,7.21,0,0,0,.9,6.2A17.63,17.63,0,0,0,404.9,181.5Zm2.1-11.7c1.1-3.4,4.2-5.7,5.3-5.4a.85.85,0,0,0,.7,0,2.09,2.09,0,0,0,.6.4,3,3,0,0,1,.9,1,9.56,9.56,0,0,1,.4,6.4,10.81,10.81,0,0,1-1.6,3H413a11.85,11.85,0,0,1-3.2-.5,9.54,9.54,0,0,1-3.2-1.6A9.91,9.91,0,0,1,407,169.8Zm-3.5,4.3a13.06,13.06,0,0,0,5.4,3.3,13.86,13.86,0,0,0,4,.6,7.2,7.2,0,0,0,2.3-.3,4.84,4.84,0,0,1-4.7,2.6,7.66,7.66,0,0,1-2.5-.4,7.46,7.46,0,0,1-3.9-2.7A5.16,5.16,0,0,1,403.5,174.1Z"/><path class="cls-2" d="M394.7,191.7a3.09,3.09,0,0,0,.8-.2,9,9,0,0,0,2.4-1.2,1.4,1.4,0,0,0,.3-1.9,1.42,1.42,0,0,0-1.9-.3,4.81,4.81,0,0,1-1.6.8c-.1,0-.2.1-.3.1-.8-3.7-3.6-6.4-7.2-6.4a3.29,3.29,0,0,0-3,1.8v.3a6.15,6.15,0,0,0-1.4-.1c-4.4-.1-8.7,2.4-9.5,5.2a1.5,1.5,0,0,0-.9,1.4,1.68,1.68,0,0,0,.8,1.4,4.78,4.78,0,0,0,1.3,2.4,11.35,11.35,0,0,0,7.9,3.2h1.3v.3a3.4,3.4,0,0,0,3,2h.2C391.3,200.4,394.5,196.8,394.7,191.7Zm-12.2,3.8a9.52,9.52,0,0,1-6-2.4,2,2,0,0,1-.7-1.1.84.84,0,0,0-.2-.7,1.45,1.45,0,0,0,.2-.7c0-1.1,3.2-3.3,6.8-3.3a9.83,9.83,0,0,1,3.4.7,11.3,11.3,0,0,1,.5,3.5,8.33,8.33,0,0,1-.7,3.5A7.18,7.18,0,0,1,382.5,195.5Zm5.1,2.2a13,13,0,0,0,.3-12.3c2.5.4,4.2,3,4.1,6.3S390.1,197.4,387.6,197.7Z"/><path class="cls-2" d="M409.5,276.9a6.53,6.53,0,0,0,3.6,1,9.14,9.14,0,0,0,7.5-4.7c.2.1.5.1.8.2a11,11,0,0,0,1.8.2,2.77,2.77,0,0,0,.9-.1,1.36,1.36,0,1,0-.3-2.7,5.46,5.46,0,0,1-1.8-.1.37.37,0,0,1-.3-.1,8.69,8.69,0,0,0,.4-3.9,7,7,0,0,0-3.4-5.2,3.09,3.09,0,0,0-1.8-.5,2.92,2.92,0,0,0-1.8.6c-.1.1-.1.2-.2.2l-1.1-.8c-3.7-2.3-8.7-2.3-10.8-.2a1.65,1.65,0,0,0-1.5.8,1.52,1.52,0,0,0,0,1.6,4.15,4.15,0,0,0,0,2.7,11.42,11.42,0,0,0,5.2,6.7l1.2.6c0,.1-.1.1-.1.2A3.53,3.53,0,0,0,409.5,276.9Zm9.9-9.7a7.16,7.16,0,0,1-1.1,4.6c-1.6,2.8-4.5,4.1-6.8,3.1a12.09,12.09,0,0,0,4.5-4.5,12.68,12.68,0,0,0,1.9-6.1A4.56,4.56,0,0,1,419.4,267.2Zm-15.3-1.8a1.79,1.79,0,0,1,0-1.3,1.85,1.85,0,0,0,.2-.7,1.21,1.21,0,0,0,.5-.5c.6-1,4.4-1.3,7.5.5a11.22,11.22,0,0,1,2.6,2.2,11.76,11.76,0,0,1-1.3,3.3,13.3,13.3,0,0,1-2.3,2.7,9.58,9.58,0,0,1-3.2-1.2A9.11,9.11,0,0,1,404.1,265.4Z"/><path class="cls-2" d="M438.6,260l-.2-.2a2.2,2.2,0,0,0-1.2-.3,3.26,3.26,0,0,0-2.3,1,6.65,6.65,0,0,0-2.2,5,9.87,9.87,0,0,0,1.2,4.6c-.1,0-.2.1-.3.1a4.8,4.8,0,0,1-1.7.5,1.36,1.36,0,0,0-1.2,1.5,1.4,1.4,0,0,0,1.4,1.2h.1a7.71,7.71,0,0,0,2.6-.7,5.94,5.94,0,0,0,.8-.4,9.67,9.67,0,0,0,6.8,3.2,7.08,7.08,0,0,0,4.8-1.9,3.26,3.26,0,0,0,.9-3.5c0-.1-.1-.1-.1-.2a9,9,0,0,0,1-.9,11.69,11.69,0,0,0,3.7-7.7,5.4,5.4,0,0,0-.6-2.7,1.64,1.64,0,0,0-.3-1.6,2,2,0,0,0-1.6-.5c-2.4-1.6-7.3-.6-10.5,2.4A5.7,5.7,0,0,0,438.6,260Zm-1.2,10.4a6.42,6.42,0,0,1-2-4.8,3.92,3.92,0,0,1,.9-2.6,12.66,12.66,0,0,0,3.1,5.6,11.43,11.43,0,0,0,5.4,3.4C442.6,273.4,439.5,272.7,437.4,270.4Zm11.2-11.6c.2.2.4.4.6.4a5.74,5.74,0,0,0,.4.7,1.88,1.88,0,0,1,.3,1.3,8.91,8.91,0,0,1-2.8,5.8,12.59,12.59,0,0,1-2.8,1.9,13.05,13.05,0,0,1-2.9-2.2,9.78,9.78,0,0,1-2-3,9,9,0,0,1,2.1-2.7C444,258.5,447.9,258,448.6,258.8Z"/><path class="cls-2" d="M407.1,346.5a3.2,3.2,0,0,0-2.8-1.7h-.4c-.1,0-.2.1-.3.1l-.6-1.2c-2.2-3.8-6.6-6.2-9.4-5.4a1.52,1.52,0,0,0-1.6,0,1.73,1.73,0,0,0-.8,1.4,4.3,4.3,0,0,0-1.3,2.4,11.55,11.55,0,0,0,1.3,8.4,10.54,10.54,0,0,0,.7,1.1.31.31,0,0,1-.2.1,3.2,3.2,0,0,0-.1,3.6,7.18,7.18,0,0,0,6.4,3.6,10.59,10.59,0,0,0,5.1-1.4l.6.6a6.78,6.78,0,0,0,2.3,1.4.9.9,0,0,0,.5.1,1.3,1.3,0,0,0,1.2-.8,1.36,1.36,0,0,0-.7-1.8,3.07,3.07,0,0,1-1.5-1c-.1-.1-.2-.1-.2-.2C408.1,353.3,408.9,349.6,407.1,346.5Zm-14.6-3.7a3,3,0,0,1,.6-1.2.82.82,0,0,0,.5-.5,1.85,1.85,0,0,0,.7-.2c1-.6,4.5,1,6.3,4.1a9.58,9.58,0,0,1,1.2,3.2,11.81,11.81,0,0,1-2.8,2.3,9.3,9.3,0,0,1-3.4,1.2,10.88,10.88,0,0,1-2.1-2.6A9.39,9.39,0,0,1,392.5,342.8Zm9.3,12.4a7.58,7.58,0,0,1-3.8,1.1,4.52,4.52,0,0,1-3.7-1.7,11.5,11.5,0,0,0,6.1-1.8,13,13,0,0,0,4.6-4.4C406.1,351.1,404.3,353.8,401.8,355.2Z"/><path class="cls-2" d="M437.1,357c-1.3-2.6-6.1-4.1-10.4-3a6.47,6.47,0,0,0-1.3.4.35.35,0,0,0-.1-.2,3.35,3.35,0,0,0-3.4-1.1,7.36,7.36,0,0,0-4.8,4,10,10,0,0,0-.8,3.8H416a4.71,4.71,0,0,1-1.7-.4,1.37,1.37,0,1,0-1.1,2.5,7.71,7.71,0,0,0,2.6.7c.4,0,.6.1.9.1h0c1.1,4.2,4.2,7,7.8,7a11,11,0,0,0,1.8-.2,3.09,3.09,0,0,0,2.5-2.6v-.3a6.11,6.11,0,0,0,1.3-.3,11.61,11.61,0,0,0,7-4.9,5.56,5.56,0,0,0,.8-2.6,1.49,1.49,0,0,0,.5-1.5A2,2,0,0,0,437.1,357Zm-17.8,5.9a7.4,7.4,0,0,1,.3-4.7,4.28,4.28,0,0,1,2.3-2.3,13.1,13.1,0,0,0,3,12C422.4,368.1,420.1,366.1,419.3,362.9Zm15.4-1.9a9.65,9.65,0,0,1-5.3,3.7,9.82,9.82,0,0,1-3.4.3,10.22,10.22,0,0,1-1.4-3.3,11.48,11.48,0,0,1-.3-3.5,10.91,10.91,0,0,1,3.1-1.4c3.5-.9,7.1.6,7.3,1.6a4.88,4.88,0,0,0,.3.7.85.85,0,0,0,0,.7C435.1,359.9,435,360.4,434.7,361Z"/><path class="cls-2" d="M349.5,420.9c0-.1-.1-.2-.1-.3,3.7-1,6.2-3.8,6.2-7.4a3.07,3.07,0,0,0-1.9-3h-.3a6.53,6.53,0,0,0,0-1.4c-.1-4.4-2.7-8.6-5.5-9.3a1.77,1.77,0,0,0-1.4-.8,1.62,1.62,0,0,0-1.4.9,6,6,0,0,0-2.4,1.4,12.12,12.12,0,0,0-3,8,5.28,5.28,0,0,0,.1,1.3h-.3a3.35,3.35,0,0,0-1.9,3.1c0,4.3,3.9,7.5,8.9,7.5h.1a4.12,4.12,0,0,0,.3.8,7,7,0,0,0,1.3,2.4,1.48,1.48,0,0,0,2,.2,1.31,1.31,0,0,0,.2-1.9A3.77,3.77,0,0,1,349.5,420.9Zm-4.9-18a2,2,0,0,1,1.1-.7,1.45,1.45,0,0,0,.7-.2,1.48,1.48,0,0,0,.7.1h.1c1.1,0,3.5,3.1,3.5,6.7a9.74,9.74,0,0,1-.6,3.4,11.19,11.19,0,0,1-3.6.6,10.62,10.62,0,0,1-3.4-.5,12.07,12.07,0,0,1-.7-3.4A9.17,9.17,0,0,1,344.6,402.9Zm-4.2,11.2a12.61,12.61,0,0,0,6.2,1.5h0a11.91,11.91,0,0,0,6.1-1.6c-.3,2.5-2.8,4.3-6.1,4.3h-.1C343.7,418.3,340.9,416.8,340.4,414.1Z"/><path class="cls-2" d="M368.5,430.4l-1.3-.3v-.3a3.09,3.09,0,0,0-2.4-2.6,6.28,6.28,0,0,0-1.9-.3,7.9,7.9,0,0,0-6.8,4.4c-.1,0-.2-.1-.3-.2a5,5,0,0,1-1.3-1.2,1.4,1.4,0,0,0-1.9-.3,1.42,1.42,0,0,0-.3,1.9,9.13,9.13,0,0,0,2,1.9c.3.2.5.4.7.5a10.08,10.08,0,0,0,.7,7.3,7.07,7.07,0,0,0,4.3,3.3,3.4,3.4,0,0,0,1,.1,3,3,0,0,0,2.5-1.2c0-.1.1-.1.1-.2a5,5,0,0,0,1.3.4,11.24,11.24,0,0,0,3.2.4,10.42,10.42,0,0,0,5.3-1.3,5.26,5.26,0,0,0,2-1.9,1.62,1.62,0,0,0,1.2-1.1,1.72,1.72,0,0,0-.4-1.6C376.3,435.2,372.8,431.5,368.5,430.4Zm-8.3,11.2a3.94,3.94,0,0,1-2-1.8,6.57,6.57,0,0,1-.4-5.2c.8-2.9,2.9-4.9,5.2-4.9h.5a12.75,12.75,0,0,0-3.1,5.6A11.37,11.37,0,0,0,360.2,441.6Zm13.2-2.8c-.1.2-.3.4-.4.6a1.77,1.77,0,0,1-1,.9,8.76,8.76,0,0,1-6.4.6,8.92,8.92,0,0,1-3.1-1.5,9.17,9.17,0,0,1,.4-3.5,10.17,10.17,0,0,1,1.5-3.3,9.82,9.82,0,0,1,3.4.3c3.5,1,5.9,4,5.6,5A1.35,1.35,0,0,0,373.4,438.8Z"/><path class="cls-2" d="M336.2,423.5c-3.8,0-7.1,2.2-9.3,6-1.2,2.1-2.2,3.2-3.1,3.2a1.27,1.27,0,0,1-.6-.1,17.27,17.27,0,0,1,.2-3c.3-2.8.7-5.9-1-8.1a5.42,5.42,0,0,0-3.9-1.9c-6.9-.9-10.9,3.2-11,11.1v1.1c0,1.5,0,5-.8,5.6a6.42,6.42,0,0,1-.9-2.3c-.6-2.2-1.7-5.8-5.6-5.8a6.8,6.8,0,0,0-1.9.3c-5.3,1.5-6.1,6.8-6.5,9.3l-.2,1.5c-.3,2.4-.5,3.2-.9,3.5-.2-.2-.3-.5-.5-.7-.8-1.3-2-3.2-4.3-3.2a4.9,4.9,0,0,0-2.5.8c-4,2.6-4.2,9.2-4.1,12.5-9,1.7-8.9,2.4-8.9,3v.5c.2.7,1,.7,2,.7a58.19,58.19,0,0,0,7.5-.7c2.1,6.3,5.1,9.7,9,10.1h.7c4,0,4.6-3.6,4.8-5.1a2.35,2.35,0,0,1,.2-.8h0c.7,0,1.4.8,2.7,2.2.4.4.8.9,1.2,1.3l.2.2c1.3,1.4,4,4.4,8.4,4.4a11.33,11.33,0,0,0,3.6-.6c2.1-.7,3.4-1.7,4-3.2,1-2.1.1-4.3-.6-6a12.19,12.19,0,0,1-.7-2,.85.85,0,0,1,.6-.2c1.1,0,3.1,1.9,4.5,3.2l1,1a13.14,13.14,0,0,0,8.6,3.6c2.5,0,6.2-.9,9.5-5.2a5.81,5.81,0,0,0,1.2-4.9c-.7-2.7-3.6-4.1-6.1-5.3a18.61,18.61,0,0,1-2.5-1.4c.5-1.2,1.6-1.9,4.3-1.9h1.1c5,.4,9.1-1.7,11.1-5.4,1.9-3.5,1.5-7.7-1-11.4C343.4,425.6,339.9,423.5,336.2,423.5Zm7.1,15.3c-1.1,2.1-3.4,3.3-6.4,3.3h-2.1c-1.6,0-6.4,0-8.2,4.9-1.2,3.3,2.2,4.9,4.7,6.1,1.5.7,3.7,1.8,3.9,2.7a2.39,2.39,0,0,1-.5,1.4c-1.8,2.3-3.9,3.5-6.2,3.5a8.75,8.75,0,0,1-5.9-2.6c-.3-.3-.7-.6-1-.9-2.2-2.1-4.6-4.3-7.3-4.3a4.72,4.72,0,0,0-3,1c-2.6,2-1.4,5-.6,6.8.4,1,.9,2.3.7,2.8-.1.3-.8.7-1.6,1a6.56,6.56,0,0,1-2.3.4c-2.6,0-4.3-1.8-5.4-3l-.2-.3a12,12,0,0,1-1.1-1.2c-1.6-1.8-3.2-3.6-5.8-3.6a5.85,5.85,0,0,0-1.3.2c-2.3.5-2.7,2.8-2.9,4.1a5.29,5.29,0,0,1-.4,1.6,1.36,1.36,0,0,1-.7,0c-1.4-.2-3.5-1.5-5.3-6.6,1-.2,2.1-.3,3.2-.5,17.4-3.1,42-14.8,42.4-16.1v-.3c0-.1,0-.1-.1-.2s-.1-.1-.1-.2a.76.76,0,0,0-.5-.2c-.2,0-.2,0-2.1.8-6.3,2.5-25.3,10-40.3,12.6-1.1.2-2.2.4-3.2.5,0-5.9,1.3-7.8,2.2-8.3a.31.31,0,0,1,.2-.1,4.28,4.28,0,0,1,.9,1.3c.8,1.3,1.9,3.2,4.3,2.7,3.7-.8,4.1-4,4.5-7.1l.2-1.5c.4-2.7,1-5.2,3.6-5.9,1.2-.3,1.6-.3,2.5,2.7.6,2.1,1.5,4.9,4.5,5.2a4.11,4.11,0,0,0,3.4-1.2c1.9-1.9,1.9-5.4,1.8-8.4v-1.1c0-7.2,3.7-7.2,5-7.2a7.08,7.08,0,0,1,1.4.1c.8.1,1.1.3,1.1.4.7.8.4,3.3.1,5-.4,2.8-.7,6,1.9,7.1a7.42,7.42,0,0,0,2.5.5c3.4,0,5.5-3,6.7-5.3,1.4-2.5,3.4-3.9,5.7-3.9s4.6,1.4,6.3,4S344.4,436.7,343.3,438.8Z"/><path class="cls-2" d="M407.3,387.4a16.2,16.2,0,0,0-2.2.1,12.51,12.51,0,0,1-2.8,0c-.1-1.2.4-2.3,4-4,4.1-2.2,6.6-5.9,6.6-9.9s-2.3-7.4-6.2-9.4c-4.9-2.5-10.3-2-13.4,1.2a10.67,10.67,0,0,0-2.7,8.1c-.1,3.6-1.2,4.1-1.9,4.3a16.19,16.19,0,0,1-1.2-2.6c-1.1-2.9-2.7-6.8-6.6-6.8a6.87,6.87,0,0,0-2.4.5,8.58,8.58,0,0,0-5.4,5.1c-1,2.7-.5,6,1.4,9.8l.4.7c.6,1.1,2.4,4.3,2,5.2a17.73,17.73,0,0,1-1.7-1.4c-1.3-1.3-3-2.9-5.1-2.9a5.2,5.2,0,0,0-3.8,1.9c-4,3.9-2.1,8.9-1.3,11l.6,1.5c.8,2,1,2.8.8,3.2l-.6-.3a6.81,6.81,0,0,0-3.3-1.1,4.09,4.09,0,0,0-3.6,2.3c-2.6,4.4,1.3,11,2.8,13.3-2.3,2.3-2.3,2.5-2.1,2.9,0,.1.1.2.2.3s.1.2.2.2a1.42,1.42,0,0,0,.6.2,7.32,7.32,0,0,0,3.1-1.5c2,1.8,5.7,4.7,9.7,4.7a8.57,8.57,0,0,0,2.7-.5c4.4-1.8,2.9-5.7,2.3-7.1a6.89,6.89,0,0,0-.3-.8,1.42,1.42,0,0,1,.6-.2,12.5,12.5,0,0,1,2.8.8c.5.2,1,.3,1.5.5l.4.1a14.48,14.48,0,0,0,4.9,1,9.72,9.72,0,0,0,7.4-3.4,6.83,6.83,0,0,0,1.8-4.7c-.3-2.3-2-3.7-3.5-4.8-.5-.4-1.5-1.2-1.5-1.5s.2-.6,1.3-.6a19.85,19.85,0,0,1,4.3.8c.5.1,1.1.3,1.5.4a16.41,16.41,0,0,0,3.7.5c5.9,0,10.1-4,11.1-10.5a5.39,5.39,0,0,0-1.1-4.6A8.1,8.1,0,0,0,407.3,387.4Zm2.8,6c-.8,5.5-4.3,8.1-9.7,6.7-.5-.1-1-.3-1.5-.4a20.31,20.31,0,0,0-5.3-.9,5,5,0,0,0-5.1,3.2c-1.2,3,1.2,4.9,2.8,6.2.8.7,1.9,1.5,1.9,2.1a3,3,0,0,1-.8,1.6,5.65,5.65,0,0,1-4.3,2,12.1,12.1,0,0,1-3.6-.7l-.4-.1c-.5-.2-1-.3-1.4-.5a13.58,13.58,0,0,0-4.1-1,5.14,5.14,0,0,0-3.7,1.5c-1.7,1.6-.9,3.7-.4,5a8.56,8.56,0,0,1,.5,1.5,1.41,1.41,0,0,1-.5.3c-1.9.7-4.4-.3-7.6-3,1.9-1.5,4.1-3.5,6.7-5.9,13.1-11.6,28-34.5,27.8-35.8a.66.66,0,0,0-.4-.5h-.2c-.4,0-.4,0-1.6,1.6-10.9,14.4-20.3,25.2-28,32.1-2.8,2.5-4.9,4.5-6.5,6-3.2-5.5-2.7-7.6-2.2-8.4a.31.31,0,0,0,.1-.2,13.92,13.92,0,0,1,1.3.6,6.67,6.67,0,0,0,2.9,1,2.88,2.88,0,0,0,2.1-.9c2.5-2.5,1.5-5.3.4-8l-.6-1.5c-.9-2.5-1.6-4.8.4-6.8.4-.5.7-.6.9-.6.5,0,1.6,1,2.3,1.7,1.3,1.2,2.7,2.6,4.6,2.6a3.92,3.92,0,0,0,1.8-.4,4.37,4.37,0,0,0,2.2-2.6c.8-2.6-.9-5.6-2.4-8.3l-.4-.6c-1.4-2.6-1.8-4.9-1.2-6.4.4-1.2,1.5-2,3.2-2.7a5.07,5.07,0,0,1,.9-.2c1.1,0,2,2.3,2.8,4.2,1,2.4,2,5.2,4.7,5.2h.4c3.8-.5,5.7-3.3,5.8-8.4a6.67,6.67,0,0,1,1.6-5.2c1.8-1.9,5.2-2.1,8.5-.4,2.5,1.3,4,3.4,4,5.8a7.32,7.32,0,0,1-4.3,6.3c-3.3,1.5-7,3.8-6.2,8.6.3,2.1,2,3.2,5,3.2a14.08,14.08,0,0,0,2-.1c.7,0,1.3-.1,2-.1,1.9,0,2.5.3,2.7.5C410.1,392.2,410.2,392.7,410.1,393.4Z"/><path class="cls-2" d="M443.9,296.1c-2.2,0-4.3,1.4-6.2,2.5a12.85,12.85,0,0,1-2.5,1.4c-.6-1-.9-2.4,1.2-5.4,2.6-3.8,3.1-8.2,1.3-11.8a10.59,10.59,0,0,0-9.7-5.4h-.5c-4.6.2-8.4,2.3-10.2,5.6-1.7,3.1-1.5,6.9.6,10.4,1.8,3.2,1.4,4.1.7,4.6a15,15,0,0,1-2.3-1.7c-1.9-1.6-4.1-3.3-6.6-3.3a4.92,4.92,0,0,0-4.2,2.3c-2,2.4-2.9,4.8-2.5,7.3.4,2.8,2.5,5.4,6.1,7.7l.9.5c1.2.8,4.2,2.5,4.3,3.4h-.2a9.54,9.54,0,0,1-2.1-.4,13.5,13.5,0,0,0-3.4-.6c-2.5,0-4.3,1.4-5,4.1-1.5,5.3,2.5,8.6,4.5,10.2l1.2,1c1.7,1.4,2.3,2,2.4,2.4h-.8c-1.3,0-3.1,0-4.4,1.3a4.17,4.17,0,0,0-1.1,3.2c.1,4.9,6,8.5,8.7,10-.9,3.1-.6,3.5-.5,3.8l.6.3h.1l.2.1c.4,0,.9,0,2.3-3.1a25.68,25.68,0,0,0,5.6.7c3.5,0,6-1,7.6-3.1,2.8-3.7-.3-6.3-1.4-7.3-.2-.1-.4-.4-.6-.5.3-.5,1-.7,3.2-1.1.5-.1,1.1-.2,1.7-.3l.3-.1c2.3-.4,7.8-1.5,9.3-8.1a5.92,5.92,0,0,0-.6-5c-1.3-1.9-3.6-2.3-5.4-2.6a13.7,13.7,0,0,1-2-.4c-.1-1.2,2.1-1.9,5.1-2.7.5-.1.9-.3,1.3-.4a12.41,12.41,0,0,0,7.8-6c1.5-2.9,1.6-6.3.2-10C447.5,296.8,445.4,296.1,443.9,296.1Zm-29.2,52.7.1-.1a.1.1,0,0,1,.1.1Zm30.2-40.9a8.22,8.22,0,0,1-5.3,4,6.47,6.47,0,0,0-1.3.4c-3.6,1-8.5,2.3-8.1,7,.3,3.2,3.5,3.7,5.4,4.1a7.23,7.23,0,0,1,2.7.8c.1.1.3.6,0,1.9-.8,3.7-3.5,4.5-6.1,5l-.3.1c-.6.1-1.1.2-1.6.3-2.7.5-5.4.9-6.5,4.2-.8,2.2,1,3.7,2,4.6.4.3,1.1.9,1.1,1.1a1.2,1.2,0,0,1-.3.6c-.8,1-2.2,1.5-4.3,1.5a15.38,15.38,0,0,1-3.9-.5c.8-2.1,1.9-4.7,3.1-8.2,6-17.4,7.5-43.9,6.8-44.8l-.6-.3c-.7,0-.7,0-1.3,4.2-1.1,7.9-3.8,26.3-8.4,39.7-1.2,3.4-2.2,6-2.8,8.1-5-3-5.8-5.1-5.8-6.1v-.2a6.15,6.15,0,0,1,1.4-.1c1.4,0,3.7-.1,4.5-2.3,1.2-3.5-1.2-5.5-3.6-7.4l-1.2-1c-2.1-1.7-3.9-3.5-3.1-6,.3-1.1.6-1.1,1.1-1.1a7.92,7.92,0,0,1,2.4.5,11.34,11.34,0,0,0,3.2.6,4.14,4.14,0,0,0,4.2-4.9c-.5-2.6-3.5-4.5-6.2-6.1l-.9-.5c-2.5-1.6-4-3.2-4.2-4.8-.2-1.2.3-2.6,1.6-4.1.5-.7.9-.7,1-.7,1,0,2.8,1.4,4.1,2.4,1.8,1.4,3.3,2.6,5,2.6a3.08,3.08,0,0,0,1.9-.6c4.8-3.3,1.8-8.5.8-10.2a6.25,6.25,0,0,1-.5-6.4c1.1-2.1,3.7-3.4,6.8-3.5h.4c2.8,0,5,1.2,6,3.2,1.1,2.2.8,4.9-1,7.5-1,1.5-4.2,6-.9,10.6a3.51,3.51,0,0,0,2.7,1.3c1.6,0,3.2-1,4.9-2.1,1.3-.8,3-1.9,4-1.9.2,0,.6,0,1.1,1.1A7.18,7.18,0,0,1,444.9,307.9Z"/><path class="cls-2" d="M417,193.1c-3.3-3.5-8.8-4.1-13.4-1.3-3.9,2.4-6.2,6.1-6.1,9.8.1,3.5,2.1,6.7,5.8,8.8,3,1.7,2.9,3,2.6,3.7h-.2c-.7,0-1.6-.2-2.6-.3a24.28,24.28,0,0,0-4-.5c-4.6,0-5.8,3.1-6.1,4.9-.5,3,0,5.5,1.6,7.4,1.8,2.2,4.8,3.5,8.9,3.8h.8c1.7.1,4.9.2,5.6.9h0a10.33,10.33,0,0,1-2.1.7c-2.3.6-7,1.8-5.7,7.1s6.6,6.4,8.8,6.8l1.6.3c2.1.4,2.8.6,3.1,1-.2.1-.4.3-.6.4-1.1.7-2.7,1.6-3.1,3.3a4,4,0,0,0,.6,3.3c2.6,4.2,9.6,4.5,12.5,4.5.7,3,1,3,1.5,3h.2a1.49,1.49,0,0,0,.7-.3c.2-.2.5-.7.4-3.1,6.4-1.9,9.9-4.7,10.3-8.5.6-4.6-3.3-5.3-4.8-5.6a2.35,2.35,0,0,1-.8-.2c0-.6.5-1.2,2.3-2.6a14.7,14.7,0,0,1,1.3-1l.2-.2c1.8-1.5,6.1-5.1,4.2-11.6-1.1-3.8-3.4-4.6-5.2-4.6a11.16,11.16,0,0,0-3.7.9,4.55,4.55,0,0,1-2.1.5c-.7-.8,1-2.5,3-4.5l1.1-1.1a12.4,12.4,0,0,0,4-9.1c-.1-3.2-1.8-6.2-4.8-8.7a5.92,5.92,0,0,0-3.8-1.5c-3.3,0-5.1,3.3-6.5,5.9a11,11,0,0,1-1.5,2.4c-1.2-.6-1.7-1.7-1.4-5.4A11.3,11.3,0,0,0,417,193.1Zm2.9,18.5a3.19,3.19,0,0,0,1.4.3c2.4,0,3.7-2.4,4.9-4.7.8-1.4,2-3.8,2.9-3.8a2.8,2.8,0,0,1,1.2.6c2.1,1.7,3.3,3.7,3.3,5.7a8.22,8.22,0,0,1-2.8,6.1l-1.1,1.1c-2.5,2.5-6.4,6.2-3.4,10a3.82,3.82,0,0,0,3.3,1.6,9.94,9.94,0,0,0,3.4-.8,7.84,7.84,0,0,1,2.3-.6c.2,0,.7,0,1.2,1.7,1.1,3.7-.9,5.6-2.9,7.4l-.2.2a10.59,10.59,0,0,1-1.2,1c-2.2,1.7-4.4,3.5-3.7,6.9.4,2.3,2.7,2.7,4,3a7.54,7.54,0,0,1,1.5.4,1.2,1.2,0,0,1,0,.7c-.1,1.1-1.2,3.1-6.7,4.9-.3-2.3-.8-5.2-1.5-9.2-2.9-16.8-14.8-42.4-16.4-42.4a.76.76,0,0,0-.5.2c-.4.4-.4.4,1.3,4.6,2.9,7.4,9.7,24.6,12.1,38.3.7,3.9,1.3,6.8,1.7,9-5.8-.2-7.6-1.6-8.2-2.5,0-.1-.1-.1-.1-.2a6.22,6.22,0,0,1,1.2-.8c1.2-.7,3.2-1.9,2.8-4.2-.7-3.6-3.7-4.1-6.6-4.7l-1.6-.3c-2.6-.5-5-1.1-5.6-3.7-.3-1.2-.4-1.5,2.8-2.3,2-.5,5-1.3,5.2-4.3a3.86,3.86,0,0,0-1.1-3.1c-1.8-2-5.3-2.1-8.4-2.2h-.7c-2.9-.2-5-.9-6-2.2a5.14,5.14,0,0,1-.7-4.2c.2-1,.4-1.5,2-1.5a21.09,21.09,0,0,1,3.3.4,21.09,21.09,0,0,0,3.3.4,3.82,3.82,0,0,0,3.8-2.1c.9-2.1,1.5-6-4.2-9.3a6.56,6.56,0,0,1-3.7-5.3c0-2.3,1.5-4.7,4.2-6.3,3-1.8,6.3-1.6,8.3.6a8.13,8.13,0,0,1,1.8,6.1C415.5,204.7,415.1,209.7,419.9,211.6Z"/><path class="cls-2" d="M340.6,128.5c-2.2,4-2.5,8.1-.6,11.4,1.7,3.1,5.1,4.9,9.4,5.1,3.6,0,4.1,1.1,4.2,1.9A16.91,16.91,0,0,1,351,148c-2.5.9-5.4,1.9-6.6,4.3a6,6,0,0,0-.1,4.4c2,6.2,7.5,8.1,14.7,4.7l.7-.4c1.7-.9,3.8-1.9,5-1.9.2,0,.3,0,.3.1a10.73,10.73,0,0,1-1.5,1.7c-1.4,1.3-3.1,2.9-3.1,5.2a5.56,5.56,0,0,0,1.6,3.8,7.7,7.7,0,0,0,6,2.7,15.65,15.65,0,0,0,4.9-1l1.7-.6c1.4-.5,2.6-.9,3.2-.7-.1.2-.3.5-.4.7-.7,1.1-1.6,2.7-1.1,4.4a4.42,4.42,0,0,0,2.1,2.6,7.13,7.13,0,0,0,3.6.9c3.2,0,6.6-1.6,9.1-2.9,1.9,2.1,2.2,2.1,2.5,2.1a1.42,1.42,0,0,0,.6-.2h.2l.2-.4c.1-.3.4-.8-1.1-3.2,4.8-4.8,6.6-9.1,5.1-12.7-1.1-2.8-3.1-3.2-4.2-3.2a8.75,8.75,0,0,0-2.8.6,1.85,1.85,0,0,1-.7.2c-.3-.6-.1-1.3.7-3.4a5.78,5.78,0,0,0,.5-1.4l.1-.3c.8-2.2,2.8-7.5-2-12.3a6.46,6.46,0,0,0-4.4-2.1c-2.4,0-4,1.8-5.2,3.2-.5.5-1.2,1.4-1.6,1.5-1-.4-.4-2.7.5-5.5.2-.6.3-1.1.5-1.6a12,12,0,0,0-.8-9.7c-1.7-2.8-4.6-4.7-8.6-5.5a5.71,5.71,0,0,0-5,1.3c-1.8,1.9-1.8,4.9-1.8,7.5a23.52,23.52,0,0,1-.1,2.8c-1.3,0-2.4-.7-3.9-3.9-1.9-4.5-5.6-7.2-9.9-7.2A10.84,10.84,0,0,0,340.6,128.5Zm3.5,2a6.74,6.74,0,0,1,5.8-3.8c2.6,0,4.9,1.8,6.2,4.8s3.5,6.4,7.6,6.4h.8c3.4-.3,3.4-4.1,3.4-6.9,0-1.6,0-4,.6-4.6.1-.1.2-.2.7-.2.2,0,.5,0,.6.1,2.7.6,4.8,1.8,5.8,3.6a7.73,7.73,0,0,1,.4,6.4c-.1.5-.3,1-.4,1.5-1,3.4-2.6,8.6,1.8,10.4a4.71,4.71,0,0,0,1.7.4c2.1,0,3.5-1.6,4.6-2.9.7-.8,1.6-1.8,2.1-1.8.2,0,.7.1,1.5.9,2.7,2.7,2,5.4,1,7.9l-.1.3a11.22,11.22,0,0,0-.5,1.3c-1,2.5-2,5.2.1,7.9a3.37,3.37,0,0,0,2.6,1.2,10.27,10.27,0,0,0,2.4-.5,4.8,4.8,0,0,1,1.5-.4,2.16,2.16,0,0,1,.3.6c.4,1.1.5,3.5-3.7,7.8-1.3-1.9-3.2-4.2-5.7-7.3-9.6-11.7-26.3-23.5-31.7-27.4-2.4-1.9-2.5-1.9-2.8-1.9h-.3l-.4.4v.3c0,.4,0,.4,2.5,2.1l.2.1c6.4,5.1,20.7,17.6,29.8,28.6,2.4,3,4.3,5.2,5.8,6.9a15.5,15.5,0,0,1-6.4,2,3.51,3.51,0,0,1-1.6-.3.31.31,0,0,0-.2-.1,5.62,5.62,0,0,1,.7-1.3c.7-1.2,1.9-3.2.4-5a4.88,4.88,0,0,0-3.8-1.9,12.11,12.11,0,0,0-4.2,1l-1.7.6a12.71,12.71,0,0,1-3.6.8,3.48,3.48,0,0,1-3-1.4q-.6-.6-.6-.9c0-.6,1.1-1.6,1.8-2.3,1.5-1.4,3.7-3.5,2.4-6.3a4.33,4.33,0,0,0-4.1-2.5c-2.2,0-4.6,1.3-6.8,2.4l-.7.3a12.38,12.38,0,0,1-4.8,1.3c-1.4,0-3.2-.4-4.3-3.7a2,2,0,0,1-.1-1.3c.4-.9,2.6-1.7,4.2-2.2,2.5-.9,5.5-1.9,5.4-4.8s-1.8-6-8.2-6.1c-2.8-.1-4.8-1.1-5.9-3C342.3,135.9,342.6,133.2,344.1,130.5Z"/><path class="cls-2" d="M151.7,325.7l9.1-24h-5.2l-4.8,12.5a64.84,64.84,0,0,0-2,6.2h-.1a58,58,0,0,0-2-6.3L142,301.7h-5.5l9.2,24Z"/><polygon class="cls-2" points="181.3 321.7 172.2 321.7 172.2 315.3 180.9 315.3 180.9 311.5 172.2 311.5 172.2 305.6 181.3 305.6 181.3 301.7 167.2 301.7 167.2 325.7 181.3 325.7 181.3 321.7"/><polygon class="cls-2" points="199.2 325.7 199.2 305.9 205.8 305.9 205.8 301.7 187.5 301.7 187.5 305.9 194.2 305.9 194.2 325.7 199.2 325.7"/><polygon class="cls-2" points="227.1 305.6 227.1 301.7 213 301.7 213 325.7 227.1 325.7 227.1 321.7 218 321.7 218 315.3 226.7 315.3 226.7 311.5 218 311.5 218 305.6 227.1 305.6"/><path class="cls-2" d="M251.3,314.5l-8.1-12.8h-6.6v24h4.9V313.1c0-2.2,0-3.7-.1-5h0a30.09,30.09,0,0,0,2.5,4.6l8.3,13h6.6v-24H254v10.6c0,3.1,0,5.4.1,6.9h0C253.1,317.5,252.2,316,251.3,314.5Z"/><path class="cls-2" d="M273.4,322a16.27,16.27,0,0,1-5.3-.9l-.2,4.5a24.33,24.33,0,0,0,4.9.6c6.1,0,10.4-3.2,10.4-8.1,0-7.5-10.7-5.7-10.7-9.8,0-1.8,1.3-3,4.4-3a17.66,17.66,0,0,1,4.6.7l.2-4.2a34.21,34.21,0,0,0-4.6-.4c-6.3,0-9.8,3-9.8,7.5,0,7.8,10.6,5.6,10.6,9.8C277.9,321,275.7,322,273.4,322Z"/><polygon class="cls-2" points="292 301.7 292 325.7 297 325.7 297 314.4 305.9 325.7 312.5 325.7 302.2 313.2 312 301.7 305.9 301.7 297 312.4 297 301.7 292 301.7"/><path class="cls-2" d="M323.2,321h10l1.7,4.7h5.5l-9.1-24h-5.9l-9.1,24h5Zm3.8-10.4a31.64,31.64,0,0,0,1.2-3.7h0c.3,1.1.8,2.5,1.3,3.8l2.5,6.7h-7.6Z"/><path class="cls-2" d="M355.5,301.6c-2.8,0-5.8.1-7.9.1v24h5v-7.9a14.77,14.77,0,0,0,2.1.1c6.1,0,10.3-3.3,10.3-8.6C365.1,304.5,361.6,301.6,355.5,301.6Zm-.7,12.3a7.14,7.14,0,0,1-2.1-.2v-8.1h2.4c3.1,0,4.7,1.7,4.7,4.1C359.8,312.5,357.9,313.9,354.8,313.9Z"/><path class="cls-2" d="M151.8,366.2c6.9,0,12.6-4.7,12.6-12.6,0-8.1-4.9-12.2-11.8-12.2A12.21,12.21,0,0,0,140.1,354C140.1,361.2,143.9,366.2,151.8,366.2Zm.4-20.5c4.1,0,6.8,2.8,6.8,8.2s-3.1,7.9-7,7.9c-4.7,0-6.7-3.6-6.7-8.2C145.4,348.5,148.6,345.7,152.2,345.7Z"/><path class="cls-2" d="M181.9,366.1a19.26,19.26,0,0,0,6.5-1.1l-.4-4.4a11.48,11.48,0,0,1-5,1.1c-4.8,0-7.5-2.7-7.5-7.9,0-4.8,2.5-8.2,7.3-8.2a18.07,18.07,0,0,1,5.1.8l.5-4.4a18.48,18.48,0,0,0-5.2-.6c-9,0-12.9,6-12.9,12.8C170.1,361.6,174.1,366.1,181.9,366.1Z"/><polygon class="cls-2" points="217.6 365.8 217.6 341.8 212.6 341.8 212.6 351.3 201.3 351.3 201.3 341.8 196.3 341.8 196.3 365.8 201.3 365.8 201.3 355.6 212.6 355.6 212.6 365.8 217.6 365.8"/><polygon class="cls-2" points="243.9 354.5 252.8 365.8 259.4 365.8 249.1 353.3 258.9 341.8 252.8 341.8 243.9 352.5 243.9 341.8 238.9 341.8 238.9 365.8 243.9 365.8 243.9 354.5"/><path class="cls-2" d="M274.4,366.2c6.9,0,12.6-4.7,12.6-12.6,0-8.1-4.9-12.2-11.8-12.2A12.16,12.16,0,0,0,262.7,354C262.7,361.2,266.6,366.2,274.4,366.2Zm.5-20.5c4.1,0,6.8,2.8,6.8,8.2s-3.1,7.9-7,7.9c-4.7,0-6.6-3.6-6.6-8.2C268,348.5,271.2,345.7,274.9,345.7Z"/><path class="cls-2" d="M301.5,352.8l8.3,13h6.6v-24h-4.9v10.6c0,3.1,0,5.4.1,6.9h0a52.19,52.19,0,0,0-2.6-4.7l-8.1-12.8h-6.7v24h4.9V353.2c0-2.2-.1-3.7-.1-5h.1A40.84,40.84,0,0,0,301.5,352.8Z"/><path class="cls-2" d="M331,362.1a16.27,16.27,0,0,1-5.3-.9l-.2,4.5a24.33,24.33,0,0,0,4.9.6c6.1,0,10.4-3.2,10.4-8.1,0-7.5-10.7-5.7-10.7-9.8,0-1.8,1.3-3,4.4-3a17.66,17.66,0,0,1,4.6.7l.2-4.3a34.21,34.21,0,0,0-4.6-.4c-6.3,0-9.8,3-9.8,7.5,0,7.8,10.6,5.6,10.6,9.8C335.5,361.1,333.3,362.1,331,362.1Z"/><polygon class="cls-2" points="357.4 365.8 357.4 346 364 346 364 341.8 345.7 341.8 345.7 346 352.4 346 352.4 365.8 357.4 365.8"/><path class="cls-2" d="M171.2,273.7l-.6-.1c-12.6-1.6-12.7-4.1-13-14.5V240.9l21.1,22.9c8,8.8,12.5,13.6,24.1,13.6a70.61,70.61,0,0,0,7.4-.5l.6-.1V274h-.7c-7-.3-10.9-4.3-18.5-12.2-1-1.1-2.2-2.3-3.4-3.5l-20.5-22.8L176,227l1.8-1.9c6.9-7.3,14.8-15.6,25.3-16.7l.6-.1v-2.8H176v2.8l.6.1c2.8.3,4.2.9,4.6,2,.8,2-1.7,6.2-7.5,12.7l-16.1,17.2V223c.3-10.5.4-13,10.2-14.6l.6-.1v-2.8H134.6v2.8l.6.1c11.7,1.6,11.8,4.1,12.1,14.5v35.9c-.3,10.5-.4,13-12.1,14.6l-.6.1v2.8h36.6v-2.6Z"/><path class="cls-2" d="M263.5,273.7l-.6-.1c-13.2-1.6-13.7-4.6-13.7-17V210.1h5.5c12.1,0,17,3.7,20.3,15.4l.2.6,2.6-.6-1.3-20H211.7l-1.3,20,2.6.6.2-.6c3.3-11.7,8.2-15.4,20.3-15.4H239v46.5c0,12.4-.5,15.4-13.7,17l-.6.1v2.8h38.9l-.1-2.8Z"/><path class="cls-2" d="M367.6,208.6l.6-.1v-2.8H331.6v2.8l.6.1c13,1.9,13,3.6,13,14.5v14.1H308.3V223.1c0-11,0-12.6,13-14.5l.6-.1v-2.8H285.3v2.8l.6.1c11.7,1.6,11.8,4.1,12.1,14.5V259c-.3,10.5-.4,13-12.1,14.6l-.6.1v2.8h36.6v-2.8l-.6-.1c-13-1.9-13-3.6-13-14.5V242.9h36.9v16.2c0,11,0,12.6-13,14.5l-.6.1v2.8h36.6v-2.8l-.6-.1c-11.7-1.6-11.8-4-12.1-14.5V223.2C355.8,212.7,355.9,210.2,367.6,208.6Z"/><path class="cls-2" d="M165.4,113.1a7.73,7.73,0,0,0,7.8,11.1c3.1,3.9,8.3,8.7,12.6,7.4,0,0,26.9-12.5,64.1-12.5h0c37.3,0,64.2,12.5,64.2,12.5,4.3,1.2,9.5-3.5,12.6-7.4a7.59,7.59,0,0,0,7.3-3.4,7.92,7.92,0,0,0,.5-7.8,36.82,36.82,0,0,1,5.7-6.8,7.92,7.92,0,0,0,2.6-5.9,8,8,0,0,0-8-8,3.08,3.08,0,0,0-1,.1,6.37,6.37,0,0,1-.2-.7,6.64,6.64,0,0,0-3-12.6,7.81,7.81,0,0,0-3.4.9,4.35,4.35,0,0,1-.6-.7,5.61,5.61,0,0,0,1.7-3.9,5.48,5.48,0,0,0-5.5-5.5,5.29,5.29,0,0,0-4.5,2.4,8.79,8.79,0,0,0-1-.6,5.14,5.14,0,0,0,1-3,5,5,0,0,0-9.7-1.7,11.11,11.11,0,0,1-1.6-.7,4.65,4.65,0,0,0,.6-2.3,4.58,4.58,0,0,0-9.1-.7l-1-.3a6.24,6.24,0,0,0-6.1-4.6,5.23,5.23,0,0,0-1.8.3c-.2-.2-.5-.4-.7-.6v-.3a5.38,5.38,0,0,0-5.4-5.4,5.45,5.45,0,0,0-3.1,1,1.42,1.42,0,0,0-.6-.2v-.1a4.82,4.82,0,0,0-4.9-4.8,4.76,4.76,0,0,0-4.2,2.5c-.4-.1-.8-.1-1.1-.2v-.2a4.4,4.4,0,0,0-8.7-.9c-.4,0-.9-.1-1.3-.1a11.09,11.09,0,0,0,.8-4.1,10.66,10.66,0,0,0-5.6-9.3,14.3,14.3,0,0,0-3-1V27h4.5a4,4,0,0,0,.4-1.9,4,4,0,0,0-.4-1.9h-4.5V18.7a2.84,2.84,0,0,0-1.9-.5h0a2.84,2.84,0,0,0-1.9.5v4.5h-4.5a2.84,2.84,0,0,0-.5,1.9,2.84,2.84,0,0,0,.5,1.9H248v8a11.08,11.08,0,0,0-3,1,10.54,10.54,0,0,0-5.6,9.3,11.5,11.5,0,0,0,.8,4.1c-.4,0-.9.1-1.3.1a4.4,4.4,0,0,0-8.7.9v.2c-.4.1-.8.1-1.1.2a4.76,4.76,0,0,0-4.2-2.5,4.89,4.89,0,0,0-4.9,4.8v.1a1.42,1.42,0,0,1-.6.2,5.45,5.45,0,0,0-3.1-1,5.38,5.38,0,0,0-5.4,5.4v.3c-.2.2-.5.4-.7.6a5.82,5.82,0,0,0-1.9-.3,6.45,6.45,0,0,0-6.1,4.6c-.4.1-.7.2-1,.3a4.53,4.53,0,0,0-4.5-3.9,4.62,4.62,0,0,0-4,6.9,11.11,11.11,0,0,0-1.6.7,5,5,0,0,0-9.7,1.7,5.39,5.39,0,0,0,1,3,8.79,8.79,0,0,1-1,.6,5.68,5.68,0,0,0-4.5-2.4,5.48,5.48,0,0,0-5.5,5.5,5.28,5.28,0,0,0,1.7,4,4.35,4.35,0,0,0-.6.7,6.4,6.4,0,0,0-3.4-.9,6.7,6.7,0,0,0-6.7,6.7,6.57,6.57,0,0,0,3.7,5.9,6.37,6.37,0,0,0-.2.7c-.3,0-.7-.1-1-.1a8,8,0,0,0-5.4,13.9A31.06,31.06,0,0,1,165.4,113.1Zm6.9,8.3a4.91,4.91,0,0,1-4.9-4.9,5.38,5.38,0,0,1,.8-2.8,4.92,4.92,0,0,1,8.2,0,5.18,5.18,0,0,1,.9,2.8A5.06,5.06,0,0,1,172.3,121.4ZM250,105.3a4.9,4.9,0,1,1,4.9-4.9A4.91,4.91,0,0,1,250,105.3Zm0-38a4.91,4.91,0,0,1,4.9,4.9A4.82,4.82,0,0,1,250,77a4.85,4.85,0,1,1,0-9.7Zm-3.8-5.4a3.8,3.8,0,1,1,3.8,3.8A3.8,3.8,0,0,1,246.2,61.9ZM250,78.8a6,6,0,0,1,6,6,6.37,6.37,0,0,1-1.5,4,7.83,7.83,0,0,0-4.5-1.5,7.59,7.59,0,0,0-4.5,1.5,6.16,6.16,0,0,1-1.5-4A6,6,0,0,1,250,78.8Zm77.7,42.6a4.91,4.91,0,0,1-4.9-4.9,4.76,4.76,0,0,1,1.4-3.4,4.88,4.88,0,0,1,8.1,1.7,4.67,4.67,0,0,1,.3,1.7A4.91,4.91,0,0,1,327.7,121.4Zm7.2-26.3a5.34,5.34,0,0,1,5.3,5.3c0,1.9-1.9,4.2-3.5,5.3a7.63,7.63,0,0,0-5.8-2.7h-.6a5.94,5.94,0,0,1-.7-2.6A5.34,5.34,0,0,1,334.9,95.1Zm-4.3-13.2a4,4,0,1,1-4,4A4,4,0,0,1,330.6,81.9Zm-7.8-9.2a2.8,2.8,0,0,1,2.8,2.8,2.86,2.86,0,0,1-2.8,2.8,2.8,2.8,0,0,1,0-5.6Zm-9.5-6.3a2.3,2.3,0,1,1-2.3,2.3A2.26,2.26,0,0,1,313.3,66.4Zm-10.2-4.2a1.8,1.8,0,1,1-1.8,1.8A1.86,1.86,0,0,1,303.1,62.2Zm-6,5.6c15.4,4.9,23.4,12.4,27.1,19.8,3,6.8,2.5,8.4,2.7,12.8a12.15,12.15,0,0,0,.8,3.4,7.45,7.45,0,0,0-4,4.8c-.1-.1-.3-.2-.4-.3a7.14,7.14,0,0,0-4.7-1.7,7.56,7.56,0,1,0,3,14.5,15.38,15.38,0,0,0,1.2,1.3,7.65,7.65,0,0,1-9.6,3.6,12.1,12.1,0,0,1-7.3-8,12.08,12.08,0,0,1-10.4,2.8,7.58,7.58,0,0,1-6-9c.1-.4.4-1.9.6-2.5a7.36,7.36,0,0,0,5.8,5.9,7.47,7.47,0,0,0,8.7-5.9,7.39,7.39,0,0,0-5.9-8.7,6.53,6.53,0,0,0-1.4,0,6.66,6.66,0,0,1,.3-.7,5.7,5.7,0,0,0,0-2.6A8.58,8.58,0,0,0,304,89a8.83,8.83,0,0,0-4.3-7.5,7,7,0,0,0,3.6-6.2,7.17,7.17,0,0,0-6.5-7.1A1.87,1.87,0,0,0,297.1,67.8Zm-5.4,23.5a5.46,5.46,0,0,0-1.8-.1,6.54,6.54,0,0,1-.4-2.1,5.9,5.9,0,1,1,7.2,5.7A8,8,0,0,0,291.7,91.3Zm8.8-15.8A4.5,4.5,0,1,1,296,71,4.48,4.48,0,0,1,300.5,75.5Zm-9-14.4a3.6,3.6,0,1,1-3.6,3.6A3.65,3.65,0,0,1,291.5,61.1Zm-2.4,38.3a4.9,4.9,0,1,1-4.9,4.9A4.84,4.84,0,0,1,289.1,99.4Zm-5.5-44.2a2.65,2.65,0,1,1-2.6,2.7A2.55,2.55,0,0,1,283.6,55.2ZM275,51a2.1,2.1,0,1,1-2.1,2.1A2.11,2.11,0,0,1,275,51Zm-9.7-2.3a1.7,1.7,0,1,1-1.7,1.7A1.69,1.69,0,0,1,265.3,48.7Zm19.3,42.2,1.1,1.9a7.52,7.52,0,0,0-2.7,4.4V98a6.12,6.12,0,0,0-1.2-.5,7.43,7.43,0,1,0-2.8,14.6,7.29,7.29,0,0,0,7.6-3.3c-.1.6-.3,2.1-.4,2.5a7.58,7.58,0,0,1-9,6,11.57,11.57,0,0,1-8.3-6.5,11.69,11.69,0,0,1-9.4,4.8,7.7,7.7,0,0,1-7.7-7.7c0-.4.1-1.9.1-2.5a7.55,7.55,0,0,0,6.9,4.7,7.4,7.4,0,0,0,0-14.8,6.11,6.11,0,0,0-1.3.3,3.75,3.75,0,0,0,.1-.8,7.61,7.61,0,0,0-.3-2.1L260,91s-.5-25.1-5-36.4c.1-.1.3-.2.4-.3C292.1,56.4,288.9,81.9,284.6,90.9ZM257.7,44.7v.5a7.3,7.3,0,0,1-1.2,4.1H254a3.08,3.08,0,0,0,.1-1,4.29,4.29,0,0,0-2.1-3.6Zm-5.8-6.9a8,8,0,0,1,5.1,4h-5.1ZM250,46.5a1.7,1.7,0,1,1-1.7,1.7A1.75,1.75,0,0,1,250,46.5Zm0,5a2.58,2.58,0,0,1,2.6,2.6,2.55,2.55,0,1,1-2.6-2.6Zm-1.9-13.7v4h-5A7.7,7.7,0,0,1,248.1,37.8Zm-5.8,6.9H248a4,4,0,0,0-2.1,3.6,3.4,3.4,0,0,0,.1,1h-2.5a7.3,7.3,0,0,1-1.2-4.1Zm-7.5,4a1.7,1.7,0,1,1-1.7,1.7A1.63,1.63,0,0,1,234.8,48.7ZM225,51a2.11,2.11,0,0,1,2.1,2.1,2.05,2.05,0,0,1-2.1,2.1,2.1,2.1,0,1,1,0-4.2Zm-8.6,4.2a2.65,2.65,0,0,1,0,5.3,2.67,2.67,0,0,1-2.7-2.6A2.82,2.82,0,0,1,216.4,55.2Zm28.3-.9c.1.1.3.2.4.3-4.5,11.2-5,36.4-5,36.4l2.7,1.7a7.61,7.61,0,0,0-.3,2.1,3.78,3.78,0,0,1,.1.8,6.11,6.11,0,0,0-1.3-.3,7.4,7.4,0,1,0,6.9,10.1,22.63,22.63,0,0,1,.1,2.5,7.68,7.68,0,0,1-7.6,7.7,11.69,11.69,0,0,1-9.4-4.8,11.52,11.52,0,0,1-8.3,6.5,7.66,7.66,0,0,1-9-6c-.1-.4-.3-1.9-.4-2.5a7.37,7.37,0,0,0,7.6,3.3,7.54,7.54,0,0,0,5.9-8.7,7.47,7.47,0,0,0-8.7-5.9,6.12,6.12,0,0,0-1.2.5v-.8a7.71,7.71,0,0,0-2.7-4.4l1.1-1.9C211.1,81.9,207.9,56.4,244.7,54.3Zm-28.9,49.9a4.9,4.9,0,1,1-4.9-4.9A5,5,0,0,1,215.8,104.2Zm-12.4-9.3a5.88,5.88,0,1,1,7.2-5.7,5.22,5.22,0,0,1-.4,2.1,10.87,10.87,0,0,0-1.8.1A6.91,6.91,0,0,0,203.4,94.9Zm5.1-33.8a3.6,3.6,0,1,1-3.6,3.6A3.65,3.65,0,0,1,208.5,61.1ZM204,71a4.5,4.5,0,1,1-4.5,4.5A4.48,4.48,0,0,1,204,71Zm-7.1-8.8a1.8,1.8,0,1,1-1.8,1.8A1.86,1.86,0,0,1,196.9,62.2Zm-10.2,4.2a2.3,2.3,0,1,1-2.3,2.3A2.33,2.33,0,0,1,186.7,66.4Zm16.2,1.4a2.09,2.09,0,0,0,.4.6,7.13,7.13,0,0,0-2.9,13.3,8.63,8.63,0,0,0,2.1,15.8,11.29,11.29,0,0,0,0,2.6,2.6,2.6,0,0,0,.3.7,6.55,6.55,0,0,0-1.4,0,7.47,7.47,0,0,0-5.9,8.7,7.54,7.54,0,0,0,8.7,5.9,7.23,7.23,0,0,0,5.8-5.9c.2.6.5,2.1.6,2.5a7.71,7.71,0,0,1-6,9,12,12,0,0,1-10.4-2.8,12.32,12.32,0,0,1-7.3,8,7.76,7.76,0,0,1-9.6-3.6,4.89,4.89,0,0,0,1.2-1.3,7.53,7.53,0,0,0,9.8-3.7c2.3-5.3-1.2-10.8-6.8-10.8a7.6,7.6,0,0,0-4.8,1.7c-.1.1-.3.2-.4.3,0-.2-.5-2.9-4-4.8a12.15,12.15,0,0,0,.8-3.4c.2-4.3-.3-5.9,2.7-12.8C179.5,80.1,187.5,72.7,202.9,67.8Zm-25.7,4.9a2.8,2.8,0,1,1,0,5.6,2.8,2.8,0,0,1-2.8-2.8A2.73,2.73,0,0,1,177.2,72.7ZM165.4,85.9a4,4,0,1,1,4,4A4,4,0,0,1,165.4,85.9Zm-.3,9.2a5.34,5.34,0,0,1,5.3,5.3,5.59,5.59,0,0,1-.7,2.6h-.6a7.8,7.8,0,0,0-5.8,2.7c-1.6-1-3.5-3.3-3.5-5.3A5.34,5.34,0,0,1,165.1,95.1Z"/><path class="cls-2" d="M304.4,152.3a1.62,1.62,0,0,0,1.6-1.1,1.7,1.7,0,0,0-1-2.2,156.29,156.29,0,0,0-54.4-9.7h-1.2A156.7,156.7,0,0,0,195,149a1.71,1.71,0,1,0,1.2,3.2,152.18,152.18,0,0,1,53.2-9.5h1.2a152.18,152.18,0,0,1,53.2,9.5A1.27,1.27,0,0,0,304.4,152.3Z"/><path class="cls-2" d="M314.8,142.2l-2.5-6.7-.4-1-3.2.5a165,165,0,0,0-55.6-10.8l-3.1-1.8-3.1,1.8A161.65,161.65,0,0,0,191.3,135l-3.2-.5-.4,1-2.5,6.7,7.3,4,2.3-2.8a156,156,0,0,1,51.6-9.9l3.7,2.1,3.7-2.1a156,156,0,0,1,51.6,9.9l2.3,2.8Zm-123,.7c-1-.5-2.3-1.3-3.3-1.9l1.3-3.6c1.2.2,3.6.6,5.8,1C194.1,140.1,192.6,141.9,191.8,142.9Zm30.6-8.7-5.8,1.2a3,3,0,0,1-1.2-5.8l5.8-1.2a3,3,0,0,1,1.2,5.8Zm27.6-1.6-6.1-3.5,6.1-3.5,6.1,3.5Zm37,.5a3,3,0,0,1-3.5,2.3l-5.8-1.2a3,3,0,0,1,1.2-5.8l5.8,1.2A3,3,0,0,1,287,133.1Zm17.5,5.3c2.2-.4,4.6-.8,5.8-1l1.3,3.6c-1,.6-2.3,1.3-3.3,1.9C307.4,141.9,305.9,140.1,304.5,138.4Z"/></svg>