<svg id="layer" xmlns="http://www.w3.org/2000/svg" viewBox="0 0 600 154.34"><defs><style>.cls-1{fill:#00a0e9;}.cls-2{fill:#004d84;}</style></defs><path class="cls-1" d="M51.5,146.56s.4,0,.2.2a8.79,8.79,0,0,1-1.3.7,1,1,0,0,1-.3.1c-1.5.1-19.8.3-22.4.3a.9.9,0,0,0-.5.1c-1.7,1-15,8.5-15.7,5.8-.1-1.2,1.4-3.3,1.9-4.1.1-1.7,5.3-4,5.9-4.3,0,0,.1-.1,0-.1s-3.9-9-3.9-9v-.1a4,4,0,0,1,1.2-.7h.3c1,.7,8.3,6.1,9,6.6H26l11-5.7s.1,0,0-.1c-.3-.4-2.4-2.6-2.5-2.7v-.2c.3-.2,1.1-.5,1.2-.6s.2-.1.3,0c.5.2,2.2.7,2.5.8h0c.2-.5,2.2-6.9,2.5-7.9a.22.22,0,0,1,.2-.2l1.4-.7s.3-.2.3.1v10c0,.1,0,.2.1.2.8.3,5.5,1.8,5.5,1.9a.14.14,0,0,1,0,.2,6.66,6.66,0,0,1-1.2.6c-.1,0-.4.1-.5.1-.9,0-5.1,0-5.7-.1H41s-8.3,6.2-8.5,6.5c-.2.1,0,.2,0,.2l19,2.1m7.7-110.9H53.6a1.27,1.27,0,0,0-.9.4l-5.5,7.3a.62.62,0,0,0-.1.7,1,1,0,0,0,.9.5h4.2a1.22,1.22,0,0,0,.9-.4l6.9-7.3a.88.88,0,0,0,.2-.8,1.53,1.53,0,0,0-1-.4m-34.3.4a1.09,1.09,0,0,0-.9-.4H18.4a1,1,0,0,0-.9.5c-.1.2-.1.4.2.8l6.9,7.3a1.27,1.27,0,0,0,.9.4h4.2a.94.94,0,0,0,.9-.5.62.62,0,0,0-.1-.7ZM108.1,77c0,9-6.5,15.6-17.4,22.8-9.8,6.4-37.8,22.9-41.8,25.4a1.29,1.29,0,0,0-.6,1v4.1c0,.3.1.9.7.5,4.4-2.8,49.2-27.1,59.5-35.9,7.3-6.5,9-11.5,9-18.5,0-17.9-19-34.5-45.4-38.8a4.4,4.4,0,0,0-2.7.2c-1.3.6-9,5.5-9.3,5.6-.9.6-.9,1.3.4,1.4,26.1,2.1,47.6,15.7,47.6,32.2M52.7,48.36A1,1,0,0,0,52,48H25.5a.9.9,0,0,0-.8,1.2l1,2.9a.84.84,0,0,0,.8.6H51a.76.76,0,0,0,.8-.6l1-2.9a1.06,1.06,0,0,0-.1-.8m-6.8-15.5-5.3-7.8c-.1-.2-.3-.3-.4-.5a3.5,3.5,0,0,0,1.9-3.1,3.4,3.4,0,1,0-6.8,0,3.42,3.42,0,0,0,2,3.1,2.18,2.18,0,0,0-.4.5l-5.3,7.8a2.62,2.62,0,0,0,0,2.7l5.3,7.8a2.26,2.26,0,0,0,1.9,1.1,2.4,2.4,0,0,0,1.9-1.1l5.3-7.8a2.87,2.87,0,0,0-.1-2.7"/><path class="cls-2" d="M74.2,12.16a1.77,1.77,0,0,0-.7,1.1L72.1,11s-.4-.5.1-.6,10-.8,10-.8l16.5-8.5s4.5-1.8,5-.7c.5.9-1.4,3.2-2.4,4.2s-15.2,10.9-15.2,10.9l-4.7,9.1c-.1.2-.4.1-.5,0s-1.8-2.7-1.8-2.7c.7-1.1.6-3.6-.5-5.9-1.2-2.9-3.2-4.6-4.4-3.8m1.5,5.5c-.8-1.8-2.1-2.9-2.9-2.4s-.9,2.4-.1,4.3,2.1,2.9,2.9,2.4.9-2.4.1-4.3M57,104.56c-26.1-2-47.6-15.6-47.6-32.2,0-6.4,3.3-11.6,9.1-16.6a1,1,0,0,0,.4-.9v-6.3c0-.4-.4-.6-.8-.4C14.2,50.66,11,53,9,54.56c-7.3,6.5-9,11.5-9,18.5,0,17.9,19,34.5,45.4,38.8a4.4,4.4,0,0,0,2.7-.2c1.3-.6,9-5.5,9.3-5.6,1-.7.9-1.4-.4-1.5m12.2-85.5c0-.3-.1-.9-.7-.5-1.7,1.1-9.4,5.4-18.8,10.7a.38.38,0,0,0,.2.7h8.5a1.93,1.93,0,0,0,1-.3c4.5-2.7,8.1-4.8,9.3-5.6a1.29,1.29,0,0,0,.6-1s-.1-3.7-.1-4M48.3,89.36C44.2,89.36,43,88,43,84v-9.4c0-3.6-1.2-5.2-4.3-5.2-2.7,0-4.1,1.8-4.1,5v14.9H31.5c-3.9,0-6.1-1.6-6.1-5.4V62.06h3.2c2.1,0,3.6.5,4.6,1.6a20.85,20.85,0,0,1,5.7-1.8c9.4-.7,13.3,5,13.3,12.9v14.5H48.3m24.3-3.8c0,3.2-3.1,4.3-6,4.3-4.9,0-9.1-2.9-9.1-9.2V53.46h3.2c4,0,6,1.8,6,6.4v19.3c0,2.4,1.3,3.1,3.9,3.1h2v3.2m19-15.9a8.92,8.92,0,0,0-3.2-.5c-2.2,0-4,1.1-4,4.4v16H81.9c-4,0-6.4-1.8-6.4-6.3V71.56c0-5.4,3.6-9.6,9.7-9.6,4.6,0,6.7,1.9,6.7,4.4v3.4h-.3Zm506.3,11.3c0-1.4-1-2.6-3-2.6a3.52,3.52,0,0,0-3.5,3.4v.5h2.9c3.1,0,3.6-.3,3.6-1.3m2.1-.1c0,2.3-1.1,3.2-5.5,3.2h-3.2a3.92,3.92,0,0,0,4.1,3.7,5.28,5.28,0,0,0,3.9-1.3h.1v1c0,1.3-1.4,2.4-4.3,2.4-3.5,0-6-2.7-6-6.4,0-4.2,2.6-6.9,6-6.9a4.48,4.48,0,0,1,4.9,4.3M584.9,80a3.89,3.89,0,0,0-3.3-1.7,4.2,4.2,0,0,0-4.3,4.5c0,3.4,2.3,4.8,4.3,4.8a4.26,4.26,0,0,0,3.2-1.1h.1v.9c0,.8-1,2.3-3.7,2.3a6.49,6.49,0,0,1-6.2-6.5c0-3.7,2.5-6.8,6.4-6.8,1.9,0,3.5,1,3.5,2.8v.9h0Zm-16.3,3.4h-1.8c-2.6,0-3.8.8-3.8,2.2,0,1.1,1.1,2,2.8,2,2,0,2.7-.8,2.7-2.6v-1.6Zm2.2,1.8c0,2.6-1.4,4.5-5,4.5-2.6,0-4.9-1.5-4.9-3.8,0-2.8,2.1-4.3,6-4.3h1.7V81c0-1.9-.9-2.6-3-2.6a4.85,4.85,0,0,0-4.1,1.8h-.2v-1.1c0-1.2,1.5-2.7,4.4-2.7,3.3,0,5,1.7,5,4.8v4m-16.2-1.9c0-3.5-1.6-4.9-3.8-4.9s-3.5,1.7-3.5,4.4c0,3.3,1.6,4.9,4,4.9,2.1-.1,3.3-1.6,3.3-4.4m2.2-.6c0,4.4-2.5,7-5.8,7a4.23,4.23,0,0,1-3.7-2.3v6.1h-.8c-.9,0-1.4-.5-1.4-1.7v-8.5c0-4.4,2-7,6.2-7,2.8,0,5.5,2.6,5.5,6.4m-16.1,2.8c0,2.7-2.1,4.1-5,4.1-2.2,0-3.9-1-3.9-2.6v-.9h.1a5.29,5.29,0,0,0,3.8,1.4c1.9,0,2.7-.6,2.7-1.9,0-1.1-.5-1.5-3.4-2.1-2.4-.5-3.5-1.3-3.5-3.2,0-2.1,1.9-4,5.1-4,1.9,0,3.8.9,3.8,2.4v1h-.1a4.73,4.73,0,0,0-3.5-1.3c-2.2,0-3.1.7-3.1,1.8,0,.9.5,1.2,3.2,1.8s3.8,1.8,3.8,3.5m-15.4-2.3q0-4.8-3.9-4.8c-2.1,0-3.4,1.7-3.4,4.4,0,3,1.4,4.8,4,4.8,2.1,0,3.3-1.8,3.3-4.4m2.2-.5c0,4.3-2.3,6.9-5.8,6.9s-6-2.6-6-6.4c0-4.3,2.3-6.9,6-6.9,3.4,0,5.8,2.6,5.8,6.4m-14.9-3.4a2.81,2.81,0,0,0-2-.6c-1.7,0-2.4.8-2.4,3.6v7.2h-.9a1.32,1.32,0,0,1-1.3-1.5v-5.9c0-3.6,1.7-5.5,4.2-5.5,1.8,0,2.4.8,2.4,1.6v1.1Zm-13.3,1.6c0-1.4-1-2.6-3-2.6a3.52,3.52,0,0,0-3.5,3.4v.5h2.9c3.1,0,3.6-.3,3.6-1.3m2.2-.1c0,2.3-1.1,3.2-5.5,3.2h-3.2a3.92,3.92,0,0,0,4.1,3.7,5.28,5.28,0,0,0,3.9-1.3h.1v1c0,1.3-1.4,2.4-4.3,2.4-3.5,0-6-2.7-6-6.4,0-4.2,2.6-6.9,6-6.9a4.48,4.48,0,0,1,4.9,4.3m-17.5,2.6h-1.8c-2.6,0-3.8.8-3.8,2.2,0,1.1,1.1,2,2.8,2,1.9,0,2.7-.8,2.7-2.6v-1.6Zm2.2,1.8c0,2.6-1.4,4.5-5,4.5-2.6,0-4.9-1.5-4.9-3.8,0-2.8,2.1-4.3,6-4.3h1.7V81c0-1.9-.9-2.6-3-2.6a4.85,4.85,0,0,0-4.1,1.8h-.1v-1.1c0-1.2,1.5-2.7,4.4-2.7,3.3,0,5,1.7,5,4.8v4m-21.9,4.2a1.27,1.27,0,0,1-1.4-1.4v-5.9c0-2.7-1-3.7-3.3-3.7-1.9,0-3,1.1-3,3.7v7.3h-.8c-.8,0-1.3-.5-1.3-1.5V82c0-3.6,2.2-5.7,5.5-5.7s5.2,1.9,5.2,5.7v7.4Zm-13.3-1.1a1.21,1.21,0,0,1-1.3,1.3c-2.5,0-3.8-1.3-3.8-3.8v-9.2h.7a1.59,1.59,0,0,1,1.5,1.7v7.1c0,1.6.8,2.1,2,2.1h.9v.8m-2.5-15a1.5,1.5,0,1,1-1.5-1.5,1.54,1.54,0,0,1,1.5,1.5m-15.5,16.1a1.27,1.27,0,0,1-1.4-1.4v-5.9c0-2.7-1-3.7-3.3-3.7-1.9,0-3,1.1-3,3.7v7.3h-.8c-.8,0-1.3-.5-1.3-1.5V82c0-3.6,2.2-5.7,5.5-5.7s5.2,1.9,5.2,5.7v7.4Zm-16.5-6.2q0-4.8-3.9-4.8c-2.1,0-3.4,1.7-3.4,4.4,0,3,1.4,4.8,4,4.8,2.1,0,3.3-1.8,3.3-4.4m2.2-.5c0,4.3-2.3,6.9-5.8,6.9s-6-2.6-6-6.4c0-4.3,2.3-6.9,6-6.9,3.5,0,5.8,2.6,5.8,6.4m-14.9,5.6a1.21,1.21,0,0,1-1.3,1.3c-2.5,0-3.9-1.3-3.9-3.8v-9.2h.7a1.59,1.59,0,0,1,1.5,1.7v7.1c0,1.6.8,2.1,2,2.1h.9v.8m-2.4-15a1.5,1.5,0,1,1-1.5-1.5,1.47,1.47,0,0,1,1.5,1.5m-11.1,3.3h4.4v.7c0,.8-.5,1.3-1.7,1.3h-2.7V85c0,1.8.7,2.6,2.1,2.6a3.74,3.74,0,0,0,2-.4h.1V88c0,1.1-.8,1.7-2.3,1.7-2.9,0-4.1-1.5-4.1-4.5v-8.4a3.38,3.38,0,0,1,.6-2,2.07,2.07,0,0,1,1.3-.9h.3v2.7Zm-9.3,6.8H379c-2.6,0-3.8.8-3.8,2.2,0,1.1,1.1,2,2.8,2,1.9,0,2.7-.8,2.7-2.6v-1.6Zm2.2,1.8c0,2.6-1.4,4.5-5,4.5-2.6,0-4.9-1.5-4.9-3.8,0-2.8,2.1-4.3,6-4.3h1.7V81c0-1.9-.9-2.6-3-2.6a4.85,4.85,0,0,0-4.1,1.8h-.1v-1.1c0-1.2,1.5-2.7,4.4-2.7,3.3,0,5,1.7,5,4.8v4m-13.5-5.9c-.7,3-2.8,8.1-4.8,10.4h-.6a1.16,1.16,0,0,1-1.1-.6,31.31,31.31,0,0,1-4.8-12.5h1.1c.9,0,1.2.6,1.3,1.3a27.49,27.49,0,0,0,3.6,9.4,34.51,34.51,0,0,0,3.9-10.6h.8c.6,0,.9.4.9,1s-.2,1.2-.3,1.6m-16.9,3.9q0-4.8-3.9-4.8c-2.1,0-3.4,1.7-3.4,4.4,0,3,1.4,4.8,4,4.8,2.1,0,3.3-1.8,3.3-4.4m2.2-.5c0,4.3-2.3,6.9-5.8,6.9s-6-2.6-6-6.4c0-4.3,2.3-6.9,6-6.9,3.5,0,5.8,2.6,5.8,6.4m-17,6.7a1.27,1.27,0,0,1-1.4-1.4v-5.9c0-2.7-1-3.7-3.3-3.7-1.9,0-3,1.1-3,3.7v7.3h-.8c-.8,0-1.3-.5-1.3-1.5V82c0-3.6,2.2-5.7,5.5-5.7s5.2,1.9,5.2,5.7v7.4Zm-15.4,0A1.27,1.27,0,0,1,321,88v-5.9c0-2.7-1-3.7-3.3-3.7-1.9,0-3,1.1-3,3.7v7.3h-.8c-.8,0-1.3-.5-1.3-1.5V82c0-3.6,2.2-5.7,5.5-5.7s5.2,1.9,5.2,5.7v7.4ZM309,88.26a1.21,1.21,0,0,1-1.3,1.3c-2.5,0-3.9-1.3-3.9-3.8v-9.2h.7a1.59,1.59,0,0,1,1.5,1.7v7.1c0,1.6.8,2.1,2,2.1h.9v.8m-2.4-15a1.5,1.5,0,1,1-1.5-1.5,1.54,1.54,0,0,1,1.5,1.5M290,83.16q0-4.8-3.9-4.8c-2.1,0-3.4,1.7-3.4,4.4,0,3,1.4,4.8,4,4.8,2.2,0,3.3-1.8,3.3-4.4m2.2-.5c0,4.3-2.3,6.9-5.8,6.9s-6-2.6-6-6.4c0-4.3,2.3-6.9,6-6.9,3.5,0,5.8,2.6,5.8,6.4m-19.4-6.1h4.4v.7c0,.8-.5,1.3-1.7,1.3h-2.7V85c0,1.8.7,2.6,2.1,2.6a3.74,3.74,0,0,0,2-.4h.1V88c0,1.1-.8,1.7-2.3,1.7-2.9,0-4.1-1.5-4.1-4.5v-8.4a3.38,3.38,0,0,1,.6-2,2.07,2.07,0,0,1,1.3-.9h.3v2.7Zm-16.2,6.6c0-2.3-.7-4.9-3.8-4.9-2.2,0-3.5,1.7-3.5,4.6,0,2.6,1.6,4.6,3.9,4.6s3.4-1.1,3.4-4.3m2.3-.6c0,4.9-1.8,7.1-5.8,7.1-3.2,0-5.9-2.9-5.9-6.5,0-4.4,2.1-6.9,5.6-6.9a4.12,4.12,0,0,1,3.9,2.5v-6.7h.6c1.1,0,1.6.6,1.6,1.8v8.7m-18-1.7c0-1.4-1-2.6-3-2.6a3.52,3.52,0,0,0-3.5,3.4v.5h2.9c3.1,0,3.6-.3,3.6-1.3m2.2-.1c0,2.3-1.1,3.2-5.5,3.2h-3.2a3.92,3.92,0,0,0,4.1,3.7,5.28,5.28,0,0,0,3.9-1.3h.1v1c0,1.3-1.4,2.4-4.3,2.4-3.5,0-6-2.7-6-6.4,0-4.2,2.6-6.9,6-6.9a4.48,4.48,0,0,1,4.9,4.3m-18.6-4.2h4.4v.7c0,.8-.5,1.3-1.7,1.3h-2.7V85c0,1.8.7,2.6,2.1,2.6a3.74,3.74,0,0,0,2-.4h.1V88c0,1.1-.8,1.7-2.3,1.7-2.9,0-4.1-1.5-4.1-4.5v-8.4a3.38,3.38,0,0,1,.6-2,2.07,2.07,0,0,1,1.3-.9h.3v2.7Zm-9.3,6.8h-1.8c-2.6,0-3.8.8-3.8,2.2,0,1.1,1.1,2,2.8,2,1.9,0,2.7-.8,2.7-2.6v-1.6Zm2.2,1.8c0,2.6-1.4,4.5-5,4.5-2.6,0-4.9-1.5-4.9-3.8,0-2.8,2.1-4.3,6-4.3h1.7V81c0-1.9-.9-2.6-3-2.6a4.85,4.85,0,0,0-4.1,1.8H208v-1.1c0-1.2,1.5-2.7,4.4-2.7,3.3,0,5,1.7,5,4.8v4M203.2,80a3.89,3.89,0,0,0-3.3-1.7,4.2,4.2,0,0,0-4.3,4.5c0,3.4,2.3,4.8,4.3,4.8a4.26,4.26,0,0,0,3.2-1.1h.1v.9c0,.8-1,2.3-3.7,2.3a6.49,6.49,0,0,1-6.2-6.5c0-3.7,2.5-6.8,6.4-6.8,1.9,0,3.5,1,3.5,2.8v.9h0Zm-12.9,8.3a1.21,1.21,0,0,1-1.3,1.3c-2.5,0-3.9-1.3-3.9-3.8v-9.2h.7a1.59,1.59,0,0,1,1.5,1.7v7.1c0,1.6.8,2.1,2,2.1h.9v.8m-2.4-15a1.5,1.5,0,1,1-1.5-1.5,1.47,1.47,0,0,1,1.5,1.5m-10.1,9.9c0-2.3-.7-4.9-3.8-4.9-2.2,0-3.5,1.7-3.5,4.6,0,2.6,1.6,4.6,3.9,4.6s3.4-1.1,3.4-4.3m2.2-.6c0,4.9-1.8,7.1-5.8,7.1-3.2,0-5.9-2.9-5.9-6.5,0-4.4,2.1-6.9,5.6-6.9a4.12,4.12,0,0,1,3.9,2.5v-6.7h.6c1.1,0,1.6.6,1.6,1.8v8.7M162,80.86c0-1.4-1-2.6-3-2.6a3.52,3.52,0,0,0-3.5,3.4v.5h2.9c3.1,0,3.6-.3,3.6-1.3m2.1-.1c0,2.3-1.1,3.2-5.5,3.2h-3.2a3.92,3.92,0,0,0,4.1,3.7,5.28,5.28,0,0,0,3.9-1.3h.1v1c0,1.3-1.4,2.4-4.3,2.4-3.5,0-6-2.7-6-6.4,0-4.2,2.6-6.9,6-6.9a4.48,4.48,0,0,1,4.9,4.3m-17.2.6c0-4.4-2.1-6.5-5.6-6.5h-.9a15,15,0,0,0-2,.2v10.3c0,1.5.8,2.1,2.3,2.1h.9c3.4.1,5.3-2.4,5.3-6.1m2.2-.3c0,5.1-3.1,8.5-7.3,8.5h-1.5c-2.8,0-4.2-1.4-4.2-3.5V73.46a20.67,20.67,0,0,1,3.7-.5h2c4-.1,7.3,3.1,7.3,8.1"/></svg>