<svg id="layer" xmlns="http://www.w3.org/2000/svg" viewBox="0 0 600 124.6"><defs><style>.cls-1{fill:#ca101a;}</style></defs><polygon class="cls-1" points="342.6 31.2 342.6 7.9 358.2 7.9 358.2 12.6 348 12.6 348 17 357.7 17 357.7 21.5 348 21.5 348 26.4 358.8 26.4 358.8 31.2 342.6 31.2"/><rect class="cls-1" x="363.4" y="7.9" width="5.7" height="23.3"/><polygon class="cls-1" points="389.3 31.2 379.9 15.9 379.8 15.9 380 31.2 374.5 31.2 374.5 7.9 380.9 7.9 390.3 23.1 390.4 23.1 390.2 7.9 395.7 7.9 395.7 31.2 389.3 31.2"/><path class="cls-1" d="M422.9,19.5a12.53,12.53,0,0,1-1.1,5.3,12.2,12.2,0,0,1-3,3.7,10.4,10.4,0,0,1-4.2,2.1,19.1,19.1,0,0,1-4.7.7h-8.7V8h8.4a19.93,19.93,0,0,1,4.9.6,12.84,12.84,0,0,1,4.3,1.9,8.82,8.82,0,0,1,3,3.6,11.74,11.74,0,0,1,1.1,5.4m-5.8,0a8.11,8.11,0,0,0-.6-3.3,5.1,5.1,0,0,0-1.7-2.1,6.59,6.59,0,0,0-2.4-1.1,13.33,13.33,0,0,0-2.8-.3h-2.8V26.3h2.7a9.25,9.25,0,0,0,2.9-.4,7.07,7.07,0,0,0,2.5-1.1,5.1,5.1,0,0,0,1.7-2.1,13.44,13.44,0,0,0,.5-3.2"/><polygon class="cls-1" points="441.9 31.2 441.9 21.4 432.8 21.4 432.8 31.2 427.1 31.2 427.1 7.9 432.8 7.9 432.8 16.7 441.9 16.7 441.9 7.9 447.5 7.9 447.5 31.2 441.9 31.2"/><path class="cls-1" d="M477.2,19.4a12.55,12.55,0,0,1-1,5.1,10.54,10.54,0,0,1-2.7,3.9,11.78,11.78,0,0,1-4,2.5,14.9,14.9,0,0,1-10.2,0,11.78,11.78,0,0,1-4-2.5,13.58,13.58,0,0,1-2.7-3.9,13.63,13.63,0,0,1-1-5.1,12.22,12.22,0,0,1,1-5.1,9.45,9.45,0,0,1,2.7-3.8,10.2,10.2,0,0,1,4-2.4,14,14,0,0,1,5.1-.9,14.4,14.4,0,0,1,5.1.9,12.18,12.18,0,0,1,4,2.4,13.09,13.09,0,0,1,2.7,3.8,12.55,12.55,0,0,1,1,5.1m-6,0a8.21,8.21,0,0,0-.5-2.8,6.78,6.78,0,0,0-1.4-2.3,8,8,0,0,0-2.1-1.5,5.92,5.92,0,0,0-2.7-.5,7.63,7.63,0,0,0-2.7.5,8,8,0,0,0-2.1,1.5,7.44,7.44,0,0,0-1.4,2.3,8.68,8.68,0,0,0-.5,2.8,8.81,8.81,0,0,0,.5,2.9,5.94,5.94,0,0,0,1.4,2.3,8,8,0,0,0,2.1,1.5,5.92,5.92,0,0,0,2.7.5,7.63,7.63,0,0,0,2.7-.5,8,8,0,0,0,2.1-1.5,5.94,5.94,0,0,0,1.4-2.3,8.36,8.36,0,0,0,.5-2.9"/><polygon class="cls-1" points="492.2 31.2 486.6 31.2 477.8 7.9 484.1 7.9 489.5 24.4 489.6 24.4 495 7.9 501.2 7.9 492.2 31.2"/><polygon class="cls-1" points="503.9 31.2 503.9 7.9 519.6 7.9 519.6 12.6 509.4 12.6 509.4 17 519 17 519 21.5 509.4 21.5 509.4 26.4 520.2 26.4 520.2 31.2 503.9 31.2"/><polygon class="cls-1" points="539.6 31.2 530.2 15.9 530.1 15.9 530.2 31.2 524.7 31.2 524.7 7.9 531.2 7.9 540.5 23.1 540.6 23.1 540.5 7.9 546 7.9 546 31.2 539.6 31.2"/><polygon class="cls-1" points="354.8 90.5 354.8 109 349.1 109 349.1 90.5 342.6 90.5 342.6 85.7 361.4 85.7 361.4 90.5 354.8 90.5"/><polygon class="cls-1" points="364.4 109 364.4 85.7 380.1 85.7 380.1 90.5 369.8 90.5 369.8 94.9 379.5 94.9 379.5 99.4 369.8 99.4 369.8 104.2 380.7 104.2 380.7 109 364.4 109"/><path class="cls-1" d="M401.5,108.6a12.38,12.38,0,0,1-5.2,1,13.48,13.48,0,0,1-5-.9,12.83,12.83,0,0,1-4-2.5,11.6,11.6,0,0,1-2.6-3.9,13.5,13.5,0,0,1-1-5,12.15,12.15,0,0,1,3.7-9,11.78,11.78,0,0,1,4-2.5,13.48,13.48,0,0,1,5-.9,13.72,13.72,0,0,1,4.9.9,9,9,0,0,1,3.9,2.6l-3.8,3.8a4.25,4.25,0,0,0-2.1-1.6,6,6,0,0,0-2.6-.5,7.63,7.63,0,0,0-2.7.5,8,8,0,0,0-2.1,1.5,5.94,5.94,0,0,0-1.4,2.3,8.68,8.68,0,0,0-.5,2.8,8.81,8.81,0,0,0,.5,2.9,6.78,6.78,0,0,0,1.4,2.3,8,8,0,0,0,2.1,1.5,5.92,5.92,0,0,0,2.7.5,5.43,5.43,0,0,0,2.9-.7,5.51,5.51,0,0,0,2-1.7l3.9,3.7a12.41,12.41,0,0,1-4,2.9"/><polygon class="cls-1" points="423 109 423 99.3 413.9 99.3 413.9 109 408.3 109 408.3 85.7 413.9 85.7 413.9 94.5 423 94.5 423 85.7 428.7 85.7 428.7 109 423 109"/><polygon class="cls-1" points="448.9 109 439.5 93.8 439.5 93.8 439.6 109 434.1 109 434.1 85.7 440.5 85.7 449.9 100.9 450 100.9 449.9 85.7 455.3 85.7 455.3 109 448.9 109"/><path class="cls-1" d="M485,97.3a12.55,12.55,0,0,1-1,5.1,10.54,10.54,0,0,1-2.7,3.9,11.78,11.78,0,0,1-4,2.5,14.9,14.9,0,0,1-10.2,0,11.78,11.78,0,0,1-4-2.5,12.15,12.15,0,0,1-3.7-9,12.22,12.22,0,0,1,1-5.1,9.45,9.45,0,0,1,2.7-3.8,10.2,10.2,0,0,1,4-2.4,14,14,0,0,1,5.1-.9,14.4,14.4,0,0,1,5.1.9,12.18,12.18,0,0,1,4,2.4,13.09,13.09,0,0,1,2.7,3.8,11.91,11.91,0,0,1,1,5.1m-6,0a8.21,8.21,0,0,0-.5-2.8,6.78,6.78,0,0,0-1.4-2.3,8,8,0,0,0-2.1-1.5,5.92,5.92,0,0,0-2.7-.5,7.63,7.63,0,0,0-2.7.5,8,8,0,0,0-2.1,1.5,7.44,7.44,0,0,0-1.4,2.3,8.68,8.68,0,0,0-.5,2.8,8.81,8.81,0,0,0,.5,2.9,5.94,5.94,0,0,0,1.4,2.3,8,8,0,0,0,2.1,1.5,5.92,5.92,0,0,0,2.7.5,7.63,7.63,0,0,0,2.7-.5,8,8,0,0,0,2.1-1.5,5.94,5.94,0,0,0,1.4-2.3,9.29,9.29,0,0,0,.5-2.9"/><polygon class="cls-1" points="489.3 109 489.3 85.7 494.9 85.7 494.9 104.1 504 104.1 504 109 489.3 109"/><path class="cls-1" d="M531.1,97.3a12.55,12.55,0,0,1-1,5.1,10.54,10.54,0,0,1-2.7,3.9,11.78,11.78,0,0,1-4,2.5,14.9,14.9,0,0,1-10.2,0,10.89,10.89,0,0,1-4-2.5,11.6,11.6,0,0,1-3.6-9,14,14,0,0,1,.9-5.1,9.45,9.45,0,0,1,2.7-3.8,10.2,10.2,0,0,1,4-2.4,13.64,13.64,0,0,1,5.1-.9,14.4,14.4,0,0,1,5.1.9,12.18,12.18,0,0,1,4,2.4,13.09,13.09,0,0,1,2.7,3.8,13.63,13.63,0,0,1,1,5.1m-6.1,0a8.21,8.21,0,0,0-.5-2.8,6.78,6.78,0,0,0-1.4-2.3,8,8,0,0,0-2.1-1.5,5.92,5.92,0,0,0-2.7-.5,7.63,7.63,0,0,0-2.7.5,8,8,0,0,0-2.1,1.5,5.94,5.94,0,0,0-1.4,2.3,8.68,8.68,0,0,0-.5,2.8,8.81,8.81,0,0,0,.5,2.9,5.94,5.94,0,0,0,1.4,2.3,8,8,0,0,0,2.1,1.5,5.92,5.92,0,0,0,2.7.5,7.63,7.63,0,0,0,2.7-.5,8,8,0,0,0,2.1-1.5,5.94,5.94,0,0,0,1.4-2.3,7.1,7.1,0,0,0,.5-2.9"/><path class="cls-1" d="M551.9,109.1a19.58,19.58,0,0,1-5,.6,14.56,14.56,0,0,1-5.2-.9,12.22,12.22,0,0,1-4.1-2.5,11.6,11.6,0,0,1-2.6-3.9,13.5,13.5,0,0,1-1-5,12.15,12.15,0,0,1,3.7-9,11.78,11.78,0,0,1,4-2.5,13.48,13.48,0,0,1,5-.9,16.52,16.52,0,0,1,5.1.8,10.62,10.62,0,0,1,3.9,2.3l-3.6,4a7.35,7.35,0,0,0-2.2-1.6,7.45,7.45,0,0,0-3.1-.6,7.63,7.63,0,0,0-2.7.5,8.55,8.55,0,0,0-2.2,1.5,6.78,6.78,0,0,0-1.4,2.3,9.29,9.29,0,0,0-.5,2.9,9.43,9.43,0,0,0,.5,3,5.94,5.94,0,0,0,1.4,2.3,5.74,5.74,0,0,0,2.2,1.5,7.49,7.49,0,0,0,3.1.5,5.84,5.84,0,0,0,1.9-.2,10.93,10.93,0,0,0,1.7-.5V99.8h-4.4V95.3H556v12.3a21.87,21.87,0,0,1-4.1,1.5"/><polygon class="cls-1" points="572.1 99.2 572.1 109 566.5 109 566.5 99.2 557.7 85.7 564.5 85.7 569.5 94.3 574.5 85.7 581.1 85.7 572.1 99.2"/><path class="cls-1" d="M361.9,65.1a8.77,8.77,0,0,1-2,3,8.52,8.52,0,0,1-3.2,1.9,10.7,10.7,0,0,1-4.1.7,11.58,11.58,0,0,1-4.2-.7,9.55,9.55,0,0,1-3.1-1.9,7.91,7.91,0,0,1-2-3,9.52,9.52,0,0,1-.7-3.8V46.8h5.6v14a11,11,0,0,0,.2,1.8,3.61,3.61,0,0,0,.8,1.5,4,4,0,0,0,1.4,1.1,4.21,4.21,0,0,0,2,.4,4,4,0,0,0,2-.4,3.81,3.81,0,0,0,1.4-1.1,4.35,4.35,0,0,0,.8-1.5,5.54,5.54,0,0,0,.2-1.8v-14h5.6V61.3a11.18,11.18,0,0,1-.7,3.8"/><polygon class="cls-1" points="382.6 70.1 373.2 54.9 373.1 54.9 373.3 70.1 367.8 70.1 367.8 46.8 374.2 46.8 383.6 62 383.7 62 383.6 46.8 389 46.8 389 70.1 382.6 70.1"/><rect class="cls-1" x="394.4" y="46.8" width="5.7" height="23.3"/><polygon class="cls-1" points="417.3 70.1 411.6 70.1 402.8 46.8 409.1 46.8 414.5 63.3 414.7 63.3 420 46.8 426.3 46.8 417.3 70.1"/><polygon class="cls-1" points="429 70.1 429 46.8 444.6 46.8 444.6 51.5 434.4 51.5 434.4 55.9 444.1 55.9 444.1 60.5 434.4 60.5 434.4 65.3 445.2 65.3 445.2 70.1 429 70.1"/><path class="cls-1" d="M462.3,70.1l-5.1-9.2h-1.9v9.2h-5.5V46.8h8.9a18.41,18.41,0,0,1,3.3.3,7.44,7.44,0,0,1,2.9,1.2,7,7,0,0,1,2,2.2,6.83,6.83,0,0,1,.8,3.4,6,6,0,0,1-1.3,4,7,7,0,0,1-3.6,2.3l6.1,10h-6.6ZM462,53.9a1.84,1.84,0,0,0-.4-1.3,2.36,2.36,0,0,0-.9-.8,5.64,5.64,0,0,0-1.2-.4,5.7,5.7,0,0,0-1.3-.1h-3v5.4h2.7a6.6,6.6,0,0,0,1.4-.1,5,5,0,0,0,1.3-.4,2.84,2.84,0,0,0,1-.9,2,2,0,0,0,.4-1.4"/><path class="cls-1" d="M484.6,52.9a5.75,5.75,0,0,0-1.9-1.5,4.79,4.79,0,0,0-2.3-.5,3.75,3.75,0,0,0-1.1.1,3,3,0,0,0-1,.4,2.7,2.7,0,0,0-.8.7,2,2,0,0,0-.3,1.1,3,3,0,0,0,.2,1,2.34,2.34,0,0,0,.7.7,3.7,3.7,0,0,0,1.1.5,13.08,13.08,0,0,0,1.5.5c.8.3,1.6.6,2.5.9a6.54,6.54,0,0,1,2.3,1.3,5.51,5.51,0,0,1,1.7,2,5.2,5.2,0,0,1,.7,2.9,7.82,7.82,0,0,1-.7,3.5,6.77,6.77,0,0,1-2,2.4,8.7,8.7,0,0,1-2.9,1.4,12.57,12.57,0,0,1-3.3.5,12.8,12.8,0,0,1-4.8-.9,9.73,9.73,0,0,1-3.9-2.5l3.7-3.8a7.1,7.1,0,0,0,2.3,1.8,5.81,5.81,0,0,0,2.8.7,4.87,4.87,0,0,0,1.2-.1,3,3,0,0,0,1-.4,2.7,2.7,0,0,0,.7-.8,2.13,2.13,0,0,0,.3-1.2,2,2,0,0,0-.3-1.1,2.36,2.36,0,0,0-.9-.8,5.23,5.23,0,0,0-1.5-.7c-.6-.2-1.3-.4-2.1-.7a10.2,10.2,0,0,1-2.2-.9,8,8,0,0,1-1.9-1.3,5.53,5.53,0,0,1-1.4-1.9,6.84,6.84,0,0,1-.5-2.7,6.71,6.71,0,0,1,.8-3.3,6.59,6.59,0,0,1,2.1-2.3,9.53,9.53,0,0,1,2.9-1.3,12.42,12.42,0,0,1,3.3-.4,11.25,11.25,0,0,1,4,.7,10.68,10.68,0,0,1,3.6,2.1Z"/><rect class="cls-1" x="492.3" y="46.8" width="5.7" height="23.3"/><polygon class="cls-1" points="513.2 51.6 513.2 70.1 507.6 70.1 507.6 51.6 501 51.6 501 46.8 519.8 46.8 519.8 51.6 513.2 51.6"/><polygon class="cls-1" points="535.8 60.2 535.8 70.1 530.1 70.1 530.1 60.2 521.4 46.8 528.2 46.8 533.2 55.4 538.2 46.8 544.7 46.8 535.8 60.2"/><path class="cls-1" d="M580.4,58.4a12.55,12.55,0,0,1-1,5.1,10.54,10.54,0,0,1-2.7,3.9,11.78,11.78,0,0,1-4,2.5,14.9,14.9,0,0,1-10.2,0,11.78,11.78,0,0,1-4-2.5,13.58,13.58,0,0,1-2.7-3.9,13.64,13.64,0,0,1-.9-5.1,14,14,0,0,1,.9-5.1,9.45,9.45,0,0,1,2.7-3.8,10.2,10.2,0,0,1,4-2.4,13.64,13.64,0,0,1,5.1-.9,14.4,14.4,0,0,1,5.1.9,12.18,12.18,0,0,1,4,2.4,13.09,13.09,0,0,1,2.7,3.8,13.63,13.63,0,0,1,1,5.1m-6.1,0a8.21,8.21,0,0,0-.5-2.8,6.78,6.78,0,0,0-1.4-2.3,8,8,0,0,0-2.1-1.5,5.92,5.92,0,0,0-2.7-.5,7.63,7.63,0,0,0-2.7.5,8,8,0,0,0-2.1,1.5,5.94,5.94,0,0,0-1.4,2.3,8.68,8.68,0,0,0-.5,2.8,8.81,8.81,0,0,0,.5,2.9,5.94,5.94,0,0,0,1.4,2.3,8,8,0,0,0,2.1,1.5,5.92,5.92,0,0,0,2.7.5,7.63,7.63,0,0,0,2.7-.5,8,8,0,0,0,2.1-1.5,5.94,5.94,0,0,0,1.4-2.3,7.1,7.1,0,0,0,.5-2.9"/><polygon class="cls-1" points="590.2 51.6 590.2 56.4 599.2 56.4 599.2 61 590.2 61 590.2 70.1 584.6 70.1 584.6 46.8 600 46.8 600 51.6 590.2 51.6"/><polygon class="cls-1" points="54.4 28.7 54.4 109 29.3 109 29.3 28.7 0 28.7 0 7.8 83.7 7.8 83.7 28.7 54.4 28.7"/><path class="cls-1" d="M179.3,87.5a36.64,36.64,0,0,1-9,12.9,40.84,40.84,0,0,1-14.2,8.4,53.8,53.8,0,0,1-18.4,3,54,54,0,0,1-18.5-3,39.49,39.49,0,0,1-13.9-8.4,37.47,37.47,0,0,1-8.8-12.9,42.83,42.83,0,0,1-3.1-16.7V7.8h24.9v61a29,29,0,0,0,1.1,7.9,18.81,18.81,0,0,0,3.4,6.6,14.64,14.64,0,0,0,6,4.6,24.67,24.67,0,0,0,18,0,16.69,16.69,0,0,0,6.1-4.6,18.87,18.87,0,0,0,3.4-6.6,29,29,0,0,0,1-7.9V7.8h25.1v63a42.49,42.49,0,0,1-3.1,16.7"/><polygon class="cls-1" points="197.9 124.6 248.8 0 230.6 0 179.8 124.6 197.9 124.6"/><path class="cls-1" d="M273.5,36a37.9,37.9,0,0,0,0,75.8c13.4,0,27.1-5.9,34.6-16.5l-17.2-7c-4.6,5.1-10.8,7.1-17.4,7.1A21.43,21.43,0,0,1,253,80.3h57.8a33.87,33.87,0,0,0,.6-6.4A37.88,37.88,0,0,0,273.5,36m0,16.3a21.49,21.49,0,0,1,19.9,13.3H253.6a21.64,21.64,0,0,1,19.9-13.3"/></svg>