<svg id="Lager_1" data-name="Lager 1" xmlns="http://www.w3.org/2000/svg" viewBox="0 0 94.6 37.17"><path d="M71.72,28.71a1.47,1.47,0,0,1-.62-.48c-.29-.46-1.31-1.93-1.48-2.22a.1.1,0,0,1,0-.14l.28-.08a1,1,0,0,0,.73-.66,2.26,2.26,0,0,0,0-1.21,1.26,1.26,0,0,0-.5-.66.77.77,0,0,0-.28-.12,1.32,1.32,0,0,0-.39-.06H67s-.1,0-.09.08.09.06.16.09a.44.44,0,0,1,.23.45v4.48a.41.41,0,0,1-.34.46h0c-.09,0-.11.15,0,.14a8.42,8.42,0,0,1,1.42,0,.1.1,0,0,0,.11-.08h0s0-.05-.08-.07c-.25-.07-.35-.1-.38-.42V26.08a1.86,1.86,0,0,1,.62-.06c.17,0,.22.15.29.26.55.78.87,1.32,1.32,2a1.15,1.15,0,0,0,.48.42,2.15,2.15,0,0,0,.9.2.09.09,0,0,0,.08-.05.1.1,0,0,0,0-.13h0Zm-3-3.1a2.09,2.09,0,0,1-.66-.07s-.07-.05-.07-.13V23.6c0-.13.25-.1.39-.1a2.22,2.22,0,0,1,1.14.12,1.06,1.06,0,0,1,.32.43,2,2,0,0,1,0,.74.87.87,0,0,1-.41.65,2.27,2.27,0,0,1-.81.18Z" fill-rule="evenodd"/><path d="M66.12,19a.65.65,0,0,1-.42-.32c-.54-1.09-1.77-4.2-1.77-4.2-.2-.5-.46-1.13-.53-1.32s-.1,0-.14,0c-.56,1.32-2.23,4.87-2.47,5.28a1.53,1.53,0,0,1-.41.47c-.1.08-.24.06-.24.14a.11.11,0,0,0,.07.08,9.69,9.69,0,0,1,1.32,0c.06,0,.08,0,.08-.09S61.5,19,61.44,19a.33.33,0,0,1-.1-.37A15.31,15.31,0,0,1,62,17.09a.15.15,0,0,1,.13-.1h2.05s0,0,.07.05l.47,1.16a1.36,1.36,0,0,1,.09.66c0,.17-.27.1-.27.23s0,.06.1.05a13,13,0,0,1,1.53,0,.06.06,0,0,0,.07-.07s0-.06-.1-.07Zm-2.41-2.51H62.3v-.06c.28-.66.59-1.27.86-1.92,0,0,.06-.06.08,0L64,16.4c.07.16,0,.17-.25.17Z" fill-rule="evenodd"/><path d="M77,19a.65.65,0,0,1-.42-.32c-.54-1.09-1.77-4.2-1.77-4.2-.2-.5-.45-1.13-.52-1.32s-.1,0-.14,0c-.57,1.32-2.24,4.87-2.47,5.28a1.71,1.71,0,0,1-.42.47c-.1.08-.24.06-.24.14a.11.11,0,0,0,.08.08,9.69,9.69,0,0,1,1.32,0,.08.08,0,0,0,.08-.09s-.12-.08-.18-.13a.34.34,0,0,1-.09-.37,11.64,11.64,0,0,1,.66-1.49.15.15,0,0,1,.13-.1h2c.05,0,.06,0,.07.05l.42,1.18a1.26,1.26,0,0,1,.1.66c0,.17-.27.1-.27.23s0,.06.09.05a13.19,13.19,0,0,1,1.54,0,.06.06,0,0,0,.07-.07s0-.06-.1-.07Zm-2.4-2.51H73.23s0,0,0-.06c.28-.66.59-1.27.86-1.92,0,0,.06-.06.08,0l.73,1.85c.06.16,0,.17-.25.17Z" fill-rule="evenodd"/><path d="M59.09,13.44c.13,0,.12.12.12.22v.79c0,.06,0,.15-.05.15s-.15-.31-.25-.43a1.31,1.31,0,0,0-.95-.44.84.84,0,0,0-.93.69v.1c0,.55.1.72.81,1.05.44.21,1.45.5,1.81,1.05a1.6,1.6,0,0,1,.22.91,2,2,0,0,1-.43,1.17c-.61.76-2.11.66-2.88.55-.11,0-.24.05-.25-.08V18.06c0-.11.06-.14.1-.11a1.19,1.19,0,0,1,.08.2c.27.51.66.7,1.48.7A1.27,1.27,0,0,0,59.18,18a.93.93,0,0,0-.19-.93,4,4,0,0,0-1.71-.95,1.48,1.48,0,0,1-.93-1.48,1.37,1.37,0,0,1,.54-1A3.1,3.1,0,0,1,59.09,13.44Z"/><path d="M68.37,13.44s.06.08,0,.13-.26.08-.33.25A4.3,4.3,0,0,0,68,14.9v2.15c0,.84-.1,1.21.39,1.59a3.63,3.63,0,0,0,1.39.08.94.94,0,0,0,.82-.52c0-.05,0-.12.1-.12s.07.06.07.14a5.55,5.55,0,0,1-.1.83.17.17,0,0,1-.14.13c-1.08.05-2.73,0-3.59,0,0,0-.11,0-.11-.07s.06-.1.12-.12a.53.53,0,0,0,.3-.22,1.13,1.13,0,0,0,.11-.48c0-1.77,0-3.86,0-4.44,0-.18-.23-.22-.38-.29s0-.13,0-.12a11.53,11.53,0,0,0,1.44,0Z"/><path d="M51.44,27.52V24a1.3,1.3,0,0,0-.07-.33.71.71,0,0,0-.35-.43c-.07,0-.06-.14,0-.13.4,0,.8,0,1.21,0,0,0,.08,0,.08,0s-.12.11-.19.19a.61.61,0,0,0-.21.39c0,.74,0,4.16,0,4.16v.93c0,.1-.07.15-.11.11-.21-.21-.46-.42-.71-.71-.94-.87-3-2.91-4-3.77,0,0-.07,0-.07,0s0,3.29.08,3.87a.69.69,0,0,0,.36.37.06.06,0,0,1,.05.06s0,.06-.07.05a5.24,5.24,0,0,0-1.37,0s-.06,0-.06-.07.29-.08.42-.37.08-5,.08-5v-.53s.06-.05.09,0,4.35,4.34,4.79,4.71Z"/><path d="M84.15,23.08a.08.08,0,0,1,.06,0v.94c0,.2-.14.16-.18,0a2.07,2.07,0,0,0-.15-.34.87.87,0,0,0-.59-.32H82.22c-.14,0-.2.06-.2.18-.06,1.53,0,3.07,0,4.6a.53.53,0,0,0,.42.42c.08,0,.12.13,0,.13H80.81c-.13,0-.12-.11,0-.14a.5.5,0,0,0,.34-.2.75.75,0,0,0,.12-.41V23.83c0-.33,0-.41-.12-.43a3.94,3.94,0,0,0-1.49.07.57.57,0,0,0-.38.56.09.09,0,0,1-.09.09s-.06,0-.06-.08V23.1c0-.05.05-.09.18-.09h4.84Z"/><path d="M65.35,23.2v.65a0,0,0,0,1,0,0c-.07,0-.15-.24-.31-.32a3.07,3.07,0,0,0-1.47-.15s-.31,0-.31.07,0,1.31,0,2c0,0,0,0,.06,0H65c.14,0,.17-.15.19-.19s.14-.09.13,0c0,.33,0,.66,0,.95,0,0,0,0-.08,0a.67.67,0,0,0-.57-.32q-.7,0-1.41,0v1.76a.7.7,0,0,0,.22.55,2,2,0,0,0,1.14.14c.31,0,.66,0,.83-.24s0-.23.19-.4h.08v1a0,0,0,0,1-.06.05H62.14a.07.07,0,0,1,0-.08.1.1,0,0,1,0-.05c.19,0,.41-.07.41-.45V26.46a22.43,22.43,0,0,0,0-2.84.39.39,0,0,0-.25-.37s-.16,0-.16-.09,0-.11.14-.1h3c.09,0,.17,0,.17.12Z"/><path d="M61.16,23.08c.09,0,.11.07.05.1s-.32.12-.39.3c-.74,1.83-1.51,3.59-2.27,5.41,0,0-.06.05-.09,0S57,25.72,55.9,23.47c-.09-.19-.29-.17-.43-.25a.05.05,0,0,1,0-.07s0,0,.07,0H57a.07.07,0,0,1,.07.07h0c0,.14-.31.15-.19.44.34.79.86,2.07,1.76,3.82,0,.06.08-.09.12-.17.48-1.1.91-2.25,1.37-3.37,0-.1.15-.48-.1-.61-.05,0-.15-.06-.15-.11s0-.08.07-.08Z"/><path d="M54.88,23.08c.06,0,.09.14,0,.15-.27,0-.37.17-.38.66v3.94a1.38,1.38,0,0,0,.14.63c.14.18.34.16.34.24s0,.09,0,.08a12.85,12.85,0,0,0-1.52,0s0-.05,0-.07.19-.06.28-.15a.46.46,0,0,0,.13-.31c0-2.25,0-3.06,0-4.65,0-.33-.39-.38-.51-.44s0-.14.06-.14h1.56Z"/><path d="M45.36,13.43c.06,0,.07,0,.07.06a.1.1,0,0,1-.07.07c-.33.1-.41.45-.42.75v2.88a2.18,2.18,0,0,1-.42,1.32,2,2,0,0,1-1.26.66,4.18,4.18,0,0,1-1.32,0,1.85,1.85,0,0,1-1.7-2V14.08c0-.29-.06-.47-.35-.57v-.07s.15,0,.23,0h1.32s.06,0,.05,0-.11.06-.17.1c-.37.19-.28.56-.29.95v2c0,.76-.11,1.8.76,2.16a2.25,2.25,0,0,0,.93.11,1.45,1.45,0,0,0,1.65-1.24.22.22,0,0,0,0-.08c0-.86,0-3.16,0-3.35a.94.94,0,0,0-.5-.57.07.07,0,0,1,.07-.11h1.41Z"/><path d="M49.27,13.45a24.32,24.32,0,0,0-2.7,0c-.07,0-.18,0-.18.07s.14.08.22.11a.7.7,0,0,1,.33.66c0,.42,0,3.08,0,3.62,0,.36.05,1.05-.38,1.19-.05,0-.13,0-.13.09s0,0,0,0q.78,0,1.56,0c.05,0,.06,0,.06-.07s-.14-.07-.22-.11-.23-.44-.23-.66c0-.66,0-1.21,0-1.78,0-.11.06-.13.12-.12,2.21.19,2.52-.85,2.5-1.64s-.26-1.28-1-1.36ZM48.82,16h-1c-.09,0-.11-.1-.11-.15a16.35,16.35,0,0,1,0-2c0-.1.13-.08.2-.09a5.43,5.43,0,0,1,1.14,0,.57.57,0,0,1,.4.29,1.84,1.84,0,0,1,.17.77A1,1,0,0,1,48.83,16Z" fill-rule="evenodd"/><path d="M54.19,13.45a24.32,24.32,0,0,0-2.7,0c-.07,0-.18,0-.18.07s.13.08.22.11a.75.75,0,0,1,.33.66c0,.42,0,3.08,0,3.62,0,.36,0,1.05-.38,1.19,0,0-.13,0-.13.09s0,0,0,0c.52,0,1,0,1.55,0,.06,0,.07,0,.06-.07s-.13-.07-.21-.11-.23-.44-.23-.66c0-.66,0-1.21,0-1.78,0-.11.06-.13.12-.12,2.21.19,2.51-.85,2.5-1.64s-.26-1.28-1-1.36ZM53.74,16h-1c-.09,0-.11-.1-.11-.15a16.35,16.35,0,0,1,0-2c0-.1.12-.08.2-.09a5.43,5.43,0,0,1,1.14,0,.59.59,0,0,1,.4.29,1.83,1.83,0,0,1,.16.77A1,1,0,0,1,53.75,16Z" fill-rule="evenodd"/><path d="M45.42,23.13c.07,0,.08,0,.08.06a.09.09,0,0,1-.07.06c-.34.11-.41.46-.42.76v2.86a2.16,2.16,0,0,1-.42,1.32,2,2,0,0,1-1.26.66,4.12,4.12,0,0,1-1.31,0,1.84,1.84,0,0,1-1.7-2V23.77c0-.28,0-.46-.35-.56v-.07s.16,0,.24,0h1.31s.06,0,0,0-.11.06-.17.09c-.36.2-.28.56-.29.95v2c0,.77-.11,1.81.76,2.16a2.2,2.2,0,0,0,.92.11,1.45,1.45,0,0,0,1.65-1.24.17.17,0,0,0,0-.07c0-.86,0-3.15,0-3.34a1,1,0,0,0-.51-.58c0-.05,0-.11.07-.11h1.41Z"/><path d="M75,23.08c.14,0,.12.12.12.22v.78c0,.06,0,.15,0,.15s-.15-.3-.24-.42a1.35,1.35,0,0,0-.95-.44.82.82,0,0,0-.92.7v.06c0,.55.1.72.81,1.05.44.21,1.44.5,1.8,1a1.6,1.6,0,0,1,.22.91,1.91,1.91,0,0,1-.43,1.16c-.6.76-2.1.66-2.87.56-.1,0-.24,0-.25-.08V27.66c0-.11.06-.14.1-.11l.09.2c.26.5.65.69,1.47.69a1.23,1.23,0,0,0,1.2-.8.91.91,0,0,0-.19-.93,3.92,3.92,0,0,0-1.67-1,1.47,1.47,0,0,1-.93-1.48,1.31,1.31,0,0,1,.55-1A3,3,0,0,1,75,23.08Z"/><path d="M78.19,23.08c.06,0,.1.14,0,.15-.27,0-.37.17-.38.66v3.94a1.35,1.35,0,0,0,.14.66c.15.18.34.16.34.24s0,.09-.05.08c-.51,0-1,0-1.52,0,0,0,0,0,0-.07s.19,0,.28-.14a.48.48,0,0,0,.13-.32c0-2.25,0-3.05,0-4.65,0-.32-.39-.38-.5-.44s0-.14.06-.13h1.55Z"/><path d="M88.53,23.2v.65s0,0,0,0-.15-.24-.31-.32a3,3,0,0,0-1.48-.16s-.3,0-.31.07v2s0,0,.06,0h1.73c.14,0,.17-.15.19-.19s.14-.09.13,0c0,.33,0,.66,0,1,0,0,0,0-.08,0a.68.68,0,0,0-.57-.33q-.7,0-1.41,0v1.77a.7.7,0,0,0,.22.54,2,2,0,0,0,1.14.14c.31,0,.66,0,.83-.24s0-.23.19-.4h.08v1c0,.07-.06.05-.06.05H85.32a.07.07,0,0,1,0-.08s0,0,0,0c.19-.06.41-.07.41-.46V26.45a22.43,22.43,0,0,0,0-2.84.4.4,0,0,0-.35-.34c-.06,0-.17,0-.17-.08s0-.11.15-.11h3c.09,0,.18,0,.18.13Z"/><path d="M94.54,23.08a.07.07,0,0,1,.06,0v.94c0,.2-.13.16-.18,0a1.14,1.14,0,0,0-.15-.34.83.83,0,0,0-.59-.32H92.61c-.14,0-.19.06-.19.18a44.11,44.11,0,0,0,0,4.6.53.53,0,0,0,.42.42c.08,0,.12.13,0,.13H91.2c-.13,0-.11-.11,0-.14a.52.52,0,0,0,.35-.2.84.84,0,0,0,.11-.41V23.83c0-.33,0-.41-.11-.43a4,4,0,0,0-1.5.07.59.59,0,0,0-.38.56.09.09,0,0,1-.08.09s-.06,0-.06-.08V23.1c0-.05,0-.09.17-.09h4.84Z"/><path d="M11.46,30.69a5.32,5.32,0,0,0-1-.57.89.89,0,0,0-.95.32.85.85,0,0,0-.06.87c.08.17-.39.28-.43.43-.19.23,0,.63.16.76s.35.26.52.38a3.57,3.57,0,0,0,.91.47h.17s0-.11-.09-.25.14-.63.24-.83c.17-.35.27-.71.63-.91.16-.06.41.06.49-.13-.13-.26-.44-.31-.64-.52Zm-1.37,1.88c-.19.09-.35-.17-.49-.26A1,1,0,0,1,9.66,32c.07-.05.24-.24.33-.2a1.17,1.17,0,0,0,.35.28C10.34,32.19,10.15,32.45,10.09,32.57Zm.6-1.17c0,.07-.13.29-.22.31a1.17,1.17,0,0,1-.4-.3c-.24-.26,0-.49.07-.66a.82.82,0,0,1,.83,0c.14.23-.24.46-.29.65Z" fill="#bd2b30" fill-rule="evenodd"/><path d="M17,19.28c-.16.07,0,.32-.29.35a.82.82,0,0,1-.66-.41c.1-.12.39-.17.38-.55A.61.61,0,0,0,16,18a4.21,4.21,0,0,0-.94,0,.61.61,0,0,0-.38.08c-.07.09.11.1.16.18a7.62,7.62,0,0,1,0,1.51c0,.12-.26.18-.15.31s.37,0,.52.05.14,0,.21,0,0-.23,0-.36-.13-.44.31-.16c.24.15.43.4.72.47s.5.09.62-.09a.71.71,0,0,0,.15-.56c0-.05-.06-.13-.15-.09Zm-1.21-.35a.32.32,0,0,1-.37.14c-.13-.05,0-.43-.07-.52a.32.32,0,0,1,0-.27c.13-.05.34-.06.41.11a1,1,0,0,1,0,.54Z" fill="#bd2b30" fill-rule="evenodd"/><path d="M15.72,8.12c-.09-.11-.63.06-.74.11-.26.19-.11.53-.06.78v.77a3.69,3.69,0,0,1-.21.74c.12.12.32,0,.47,0s.24-.07.27-.19-.09,0-.13-.07a.17.17,0,0,1-.06-.16,1.08,1.08,0,0,1,.27-.36c.11-.1.59-.3.73-.2a.24.24,0,0,1,.12.21c0,.13-.31.3,0,.37s.64-.27.89-.37v0c-.22-.2-.18-.05-.35-.3a12.21,12.21,0,0,0-1.15-1.23Zm.16,1.12c-.08,0-.53.28-.62.21a1.44,1.44,0,0,1,0-.87c.25-.12.5.35.63.46a.18.18,0,0,1,0,.2Z" fill="#bd2b30" fill-rule="evenodd"/><path d="M13.31,10.67a.27.27,0,0,0-.28.09.55.55,0,0,0,0,.31.33.33,0,0,1-.22.26h-.36a.87.87,0,0,0-.12-.88.55.55,0,0,0-.55-.25.67.67,0,0,0-.67.35c-.22.2-.52.36-.72.56a.11.11,0,0,0,.06.16.63.63,0,0,1,.5.2c.19.24.42.59.63.83s-.06.38.11.53a.15.15,0,0,0,.18,0l.59-.6c0-.11,0-.25-.16-.19a.2.2,0,0,1-.19-.14c.29-.16.69-.07,1-.19a.79.79,0,0,0,.44-.49.54.54,0,0,0-.21-.56Zm-1.54.9c-.19,0-.42-.5-.6-.57a.6.6,0,0,1,.24-.26c.29-.22.55.2.57.43A.45.45,0,0,1,11.77,11.57Z" fill="#bd2b30" fill-rule="evenodd"/><path d="M17.5,33.65a2.24,2.24,0,0,1-.35.73,1.38,1.38,0,0,1-.73.42c-.4.12-.53-.17-.83.16a.18.18,0,0,0,.07.19,1.57,1.57,0,0,0,.83.11,3.75,3.75,0,0,0,.82,0c.24-.11.51-.13.73-.24s.6-.42.88-.38l.75.38a4.32,4.32,0,0,0,1.6.12.77.77,0,0,0,.51-.4c0-.1,0-.22,0-.29s-.23,0-.35,0c-.4-.1-.83-.12-1.11-.5l-.23-.31H19.5a6.85,6.85,0,0,0,.58.83c0,.06.17.09.12.17s-.46-.19-.58-.28c-.36-.18-.69-.66-1.24-.36l-.32.2c-.07,0-.37.31-.46.28l.25-.43c0-.13.08-.26.13-.39Z" fill="#bd2b30" fill-rule="evenodd"/><path d="M15.89,32h0q.6,0,1.2.12c.18.16.46.18.56.43a.61.61,0,0,1,0,.42c-.07.22-.12.45-.2.68H18a2.6,2.6,0,0,0,.18-.62.92.92,0,0,0-.05-.69,1.23,1.23,0,0,0-.26-.33H15.89Zm3.58,0a1.7,1.7,0,0,0-.24.76,2.6,2.6,0,0,0,.27.9H20a1.33,1.33,0,0,1-.2-1.19c.13-.22.41-.22.65-.24s.66-.15,1-.22Z" fill="#bd2b30" fill-rule="evenodd"/><path d="M9.28,28.69h0a11.81,11.81,0,0,0,1.41,1.24,18,18,0,0,0,2.06,1.14,9.58,9.58,0,0,0,1.27.45,12,12,0,0,0,1.86.46h2c-.27-.27-.63-.53-.78-.68s.06-.09.14-.12c.31,0,1.08.48,1.32.22.07-.06.13-.22.25-.19.16.29.52.19.82.15a2.64,2.64,0,0,0,.47-.17v.09a2,2,0,0,0-.62.69h2A5.43,5.43,0,0,0,23,31.5a13.31,13.31,0,0,0,1.87-.76c.53-.31,1.06-.62,1.57-1a8.22,8.22,0,0,0,1.18-1.1h-.65a10.12,10.12,0,0,1-1.71,1.2,16,16,0,0,1-2.58,1.22,13.88,13.88,0,0,1-1.65.55c-.14,0-.3,0-.37-.1s-.06-.15,0-.22.44-.11.54-.37-.12-.21-.25-.28-.5.06-.75.08a1.38,1.38,0,0,1-.89.13,1.74,1.74,0,0,1-.29-.25v-.05a4.62,4.62,0,0,0,.83,0c.48,0,.9-.15,1.39-.12a4.69,4.69,0,0,0,2.15-.62,9,9,0,0,0,1.93-1.11h-.83c-.48.29-1,.57-1.44.83L22,29.88l-.29.06-2.56.26a4.3,4.3,0,0,1-.95,0c-.43-.08-.87-.1-1.3-.19a10.54,10.54,0,0,1-4.13-1.28h-1a5.63,5.63,0,0,0,1.84,1c.7.23,1.41.42,2.13.58a24.1,24.1,0,0,0,2.93.33h0c-.3.11-.31.68-.71.47a10.14,10.14,0,0,0-1.14-.47c-.19,0-.54-.11-.64.1a.54.54,0,0,0-.06.39.16.16,0,0,0,.18.07c.06-.11.22,0,.32,0a.12.12,0,0,1,0,.14c-.32.22-.71,0-1.07,0a9,9,0,0,1-1.43-.42c-.29-.09-.57-.23-.87-.3-.64-.35-1.3-.63-1.91-1a8.85,8.85,0,0,1-1.22-.89H9.26Z" fill="#bd2b30" fill-rule="evenodd"/><path d="M5.72,22.08a17.74,17.74,0,0,0,.58,1.74c.28.44.37,1,.63,1.44a33.53,33.53,0,0,0,2.35,3.43h.89A6,6,0,0,1,9.06,27.4a14.46,14.46,0,0,1-1.85-3c-.11-.37-.35-.7-.47-1.06a10.69,10.69,0,0,1-.46-1.23Zm1.65,0,.19.7c.17.53.42,1,.59,1.56a9.93,9.93,0,0,0,1.44,2.2,11.78,11.78,0,0,0,1.51,1.65l.72.53h.87c-.16-.1-.33-.22-.48-.33a9.38,9.38,0,0,1-1.91-1.7A11.1,11.1,0,0,1,9.21,25.3a5.39,5.39,0,0,1-.71-1.23,9.75,9.75,0,0,1-.57-2Zm3,0c.2.37.42.71.61,1.08a12.71,12.71,0,0,0,1.35,1.66c.34.34.72.63,1,.95a10.5,10.5,0,0,0,3.39,1.58,10.06,10.06,0,0,0,2,.31,8.14,8.14,0,0,0,1.85-.21,2.88,2.88,0,0,0,.66-.15,7.66,7.66,0,0,0,1.38-.52c.52-.24,1-.57,1.54-.82a18.46,18.46,0,0,0,1.66-1.65c.32-.44.62-.89.9-1.36a9.83,9.83,0,0,1,.48-.9h-.57a4.27,4.27,0,0,1-.52.76c-.22.05-.38-.19-.53-.34l-.35-.4h-.7l.82.83c.16.23.45.5.23.83A4.71,4.71,0,0,1,24.52,25a.33.33,0,0,1-.29.06c-.35-.58-.6-1.19-.91-1.78a9.06,9.06,0,0,1-.38-.83,2.07,2.07,0,0,0-.19-.32h-.54q.11.24.24.48c.27.44.42.92.65,1.38a7.23,7.23,0,0,0,.83,1.29.22.22,0,0,1,0,.16,3.58,3.58,0,0,1-1.09.62,3.07,3.07,0,0,1-.94.22.22.22,0,0,1-.18-.2c-.2-1-.22-2.16-.4-3.21a3.25,3.25,0,0,0-.06-.75H20l.14.09c.27.23.65.43.64.83a1.81,1.81,0,0,1-.12,1.49,2.06,2.06,0,0,1-1,1.21,2,2,0,0,1-1.82,0,2.46,2.46,0,0,1-.66-2.59,2.57,2.57,0,0,1,1-1H16.93A3,3,0,0,0,16,24.18l-.11.83c-.24.27-.28.65-.53.91-.37,0-.64-.22-.94-.4a.69.69,0,0,1-.07-.73c.19-.52.63-.95.83-1.48.24-.38.37-.82.6-1.18h-.47c-.21.46-.41.91-.66,1.34-.2.26-.26.58-.45.83s-.2.49-.46.49a2.71,2.71,0,0,1-1.19-.92c-.09-.42.21-.75.4-1.09a5,5,0,0,1,.55-.71h-.62a4.26,4.26,0,0,1-.42.43c-.19.09-.3.36-.55.28a2.83,2.83,0,0,1-.47-.71H10.35Zm19.27,0v.17c-.15.39-.27.82-.44,1.18a9.44,9.44,0,0,1-.6,1.24,11.56,11.56,0,0,1-1,1.4l-.5.57c-.48.31-.83.82-1.33,1.14a9.83,9.83,0,0,1-.83.61l-.51.3h.83c.36-.22.7-.53,1.05-.78a19.68,19.68,0,0,0,2.26-2.48,9.74,9.74,0,0,0,1.37-2.54,4.1,4.1,0,0,0,.32-.82Zm1.52,0-.15.45a13.82,13.82,0,0,1-1.11,2.37,18.21,18.21,0,0,1-1.5,2.37c-.39.43-.81.84-1.24,1.23l-.2.22h.67c.26-.27.51-.54.79-.79s.5-.65.82-1a11.15,11.15,0,0,0,1.12-1.76c.21-.35.4-.72.58-1.09a7.94,7.94,0,0,0,.76-2Zm-14.7,3.37c.21.48.72.62,1.13.83.35.06.65.22,1,.27.09,0,.07.13.08.2-.1.28-.47.12-.71.15a8.72,8.72,0,0,1-1.21-.34,2.18,2.18,0,0,1-.94-.4c-.06,0,0-.11,0-.16a4.23,4.23,0,0,1,.3-.69.56.56,0,0,1,.09-.17l.26.32ZM21.15,25c.05.47.13.91.17,1.38,0,.11-.11.19-.2.24a2.74,2.74,0,0,1-.83.21,1.79,1.79,0,0,1-.92,0,.36.36,0,0,1,0-.42c.32-.29.75-.27,1-.61A2.55,2.55,0,0,0,21,25c.07-.09.16,0,.16.07Z" fill="#bd2b30" fill-rule="evenodd"/><path d="M5.36,20.43a15.13,15.13,0,0,0,.36,1.65h.56C6.12,21.54,6,21,5.84,20.43Zm1.66,0a.67.67,0,0,1,0,.2c-.06.21.23.82.25,1l.13.45h.53v-.15A8.62,8.62,0,0,1,7.74,21c.07-.29.4-.14.62-.17s.36-.1.56-.1.82-.14,1,.28a4.13,4.13,0,0,0,.45,1.06h1a2.36,2.36,0,0,1-.19-.69c0-.14,0-.33.19-.37.38-.16.94.08,1.36,0h.34a.65.65,0,0,1,.38.13c0,.2-.19.34-.28.5l-.36.4h.62c.19-.26.39-.5.6-.74a1.57,1.57,0,0,1,1.55-.3.28.28,0,0,1,.07.17c0,.21-.2.38-.27.59l-.12.28h.47l.1-.14a2.36,2.36,0,0,1,.7-1,.93.93,0,0,1,1.12.28c.11.06.16-.09.26-.09a.64.64,0,0,1,.57,0,.35.35,0,0,0,.3.14c.22,0,.39-.17.59-.23a1.7,1.7,0,0,1,1,.06,1.29,1.29,0,0,1,.19.63.17.17,0,0,1,0,.19c-.16.07-.12-.1-.39-.19l-.66-.22a2.65,2.65,0,0,0-1.05,0A3.61,3.61,0,0,0,17,22l-.12.11h1.17a1.27,1.27,0,0,1,.6-.21,3,3,0,0,1,1.23.17l.06,0h1.25a.87.87,0,0,0-.05-.36.94.94,0,0,1,0-.47.4.4,0,0,1,.57,0h0a5,5,0,0,1,.43.78h.55a1.25,1.25,0,0,1-.24-.61.31.31,0,0,1,.16-.21,5.24,5.24,0,0,1,1,0l.23.11c.25.24.49.49.72.73h.73a3.54,3.54,0,0,0-.58-.58c-.09-.12-.24-.23-.22-.38l.09-.07a6.44,6.44,0,0,1,2,0l.23.09.05.09a1.34,1.34,0,0,1-.13.88h.55a2.78,2.78,0,0,0,.16-.4,5.7,5.7,0,0,1,.37-.92,5.29,5.29,0,0,1,1.31-.17h.78c.11.11,0,.28,0,.41-.08.33-.18.66-.26,1h.65a12.3,12.3,0,0,1,.37-1.22.86.86,0,0,0,.15-.44H7Zm24.53,0v.06a6.68,6.68,0,0,1-.37,1.59h.5l.07-.27c.11-.45.18-.92.26-1.38Z" fill="#bd2b30" fill-rule="evenodd"/><path d="M5.15,18.78a4.39,4.39,0,0,0,.2,1.53v.12h.49a.31.31,0,0,0-.06-.22.35.35,0,0,1,0-.43c.13-.09.32.31.51.15s.41-.39.46-.18.15.5.19.69h23.8c0-.12,0-.24,0-.37a.31.31,0,0,1,.05-.21c.11-.06.23.08.36.1s.27-.08.37,0-.05.36-.1.52h.44l.13-.72a3.68,3.68,0,0,0,.1-.93h-.6a.13.13,0,0,1,.06.05v.17a.34.34,0,0,1-.08.32.41.41,0,0,1-.37.14.55.55,0,0,1-.33-.27,1,1,0,0,1,.1-.41h-.83A5.48,5.48,0,0,1,30.21,20c0,.1-.16.15-.26.18a3.53,3.53,0,0,1-.65,0,17.38,17.38,0,0,1-2,.06,5.43,5.43,0,0,0-1,.06,8.26,8.26,0,0,1-1,.09,5.53,5.53,0,0,0-.91,0,6.53,6.53,0,0,0-1.53,0c-.82-.05-1.65,0-2.47,0a12.34,12.34,0,0,0-1.49,0c-.76-.05-1.52.05-2.26,0H12.9a13.13,13.13,0,0,0-1.54-.09A14.77,14.77,0,0,1,8.88,20h-1c-.09,0-.12-.1-.14-.17,0-.34-.2-.66-.27-1H6.64c0,.07.05.14,0,.15l-.2.28c-.09.09-.31.07-.46.05s-.14-.12-.19-.18a1.08,1.08,0,0,1-.07-.31H5.11Z" fill="#bd2b30" fill-rule="evenodd"/><path d="M5.21,17.12a6.34,6.34,0,0,0-.1,1.06,2.69,2.69,0,0,0,0,.56h.6a.48.48,0,0,1,0-.17.35.35,0,0,1,.17-.21,1.19,1.19,0,0,1,.46,0c.09,0,.21.21.28.35h.83a1.44,1.44,0,0,1,0-.77.43.43,0,0,1,.25-.23c.83,0,1.7,0,2.54,0a1.45,1.45,0,0,1,.55,0q.93,0,1.86,0a11.46,11.46,0,0,1,1.65.13A5.37,5.37,0,0,1,16,17.78a3.7,3.7,0,0,1,.94,0,3.06,3.06,0,0,0,1,0c.62,0,1.24,0,1.85-.06a2.17,2.17,0,0,0,.51,0c.49-.05,1,0,1.45-.07.82.06,1.65,0,2.47.08a3.22,3.22,0,0,1,.76,0c1.16-.1,2.39-.1,3.57-.1.36-.05.77,0,1.14-.06a.65.65,0,0,1,.29.11,2,2,0,0,1,.15.88v.21H31a.5.5,0,0,1,.57,0h.62v-.32a8.54,8.54,0,0,0-.1-1.34h-.48c.08.57.13,1.21.13,1.21s-.19-.15-.32-.13-.44.19-.46.16a4.4,4.4,0,0,0-.08-1,.66.66,0,0,1-.06-.27H29.59l-.09,0a3.69,3.69,0,0,0-.88.07,2.53,2.53,0,0,1-.91,0h0v-.07h-.44a.09.09,0,0,1,0,.07c-.09.14-.28.11-.42.09a1.43,1.43,0,0,1-.27-.09h-.42l-.09,0h-.61a1.88,1.88,0,0,1,.23.16c0,.09-.07.07-.1.09a7.87,7.87,0,0,0-1,0,1.52,1.52,0,0,0-.55-.16l-.08,0h-.54l.24.14c0,.05-.11,0-.16.05a3.75,3.75,0,0,1-.75-.09l-.24-.1h-.95s0,0,0,0a.75.75,0,0,1-.33.1.42.42,0,0,1-.3-.07l-.06-.07h-.57a.19.19,0,0,1-.16.14.55.55,0,0,1-.33-.14h-.42a.17.17,0,0,1,0,.1c0,.09-.13.08-.21.1s-.15-.11-.19-.2h-.34a.33.33,0,0,1-.13.29c-.1,0-.23,0-.28-.08a.27.27,0,0,1-.06-.21h-.38a.37.37,0,0,1-.24.29,1.24,1.24,0,0,1-.57-.09.14.14,0,0,1,0-.15l.08-.09h-.48l-.06.09c-.13.2-.39.06-.59.11s0-.09,0-.13v-.07h-.48l-.13.14a2.08,2.08,0,0,1-1,.09.12.12,0,0,1-.05-.16h0l.1-.07H13.29a2.05,2.05,0,0,1-1.1,0H9.45a5.13,5.13,0,0,1-1,0H6.87c-.06.28-.11.57-.17.82-.11.07-.2-.06-.3-.09s-.22-.25-.38-.17a.44.44,0,0,0-.29.14.08.08,0,0,1-.09-.06h0q0-.35.06-.69H5.21Z" fill="#bd2b30" fill-rule="evenodd"/><path d="M5.5,15.47a1.85,1.85,0,0,0-.07.62,1.59,1.59,0,0,0-.17.83l0,.2h.56c.06-.43.16-.82.22-1.3a2.21,2.21,0,0,1,.08-.35Zm1.73,0a9.38,9.38,0,0,0-.18,1.06l-.12.59H8.1A3.39,3.39,0,0,1,7.66,17a.45.45,0,0,1-.13-.38,3.4,3.4,0,0,1,.2-1.18Zm3.08,0c-.2.52-.31,1.08-.51,1.6l-.06.05h2.48c-.05,0,0-.11,0-.15A9.2,9.2,0,0,1,14,16.1a11.23,11.23,0,0,0,1.06-.49,1.51,1.51,0,0,0,.29-.13h-.75a3.38,3.38,0,0,1-.44.18c-.56.22-1.11.44-1.65.7s-.83.5-1.31.42c-.06,0-.11-.09-.06-.16a6.51,6.51,0,0,1,1.51-.71l1.05-.44H12.68a5.21,5.21,0,0,1-1.34.36.2.2,0,0,1-.18-.16.35.35,0,0,1,.08-.22h-.89Zm5.78,0-.32.22c-.71.48-1.43.93-2.18,1.34l-.23.09h1.09c.62-.41,1.16-1,1.77-1.41a1,1,0,0,1,.29-.24Zm.83,0h0a4.35,4.35,0,0,0-.38.57,13.31,13.31,0,0,1-.93,1.06h.49a3.26,3.26,0,0,1,.55-.62c.14-.22.31-.39.43-.62a.29.29,0,0,0,.13-.27c0-.07,0-.05-.06-.11h-.23Zm.76,0a1.75,1.75,0,0,0,.59.22,3,3,0,0,0,.6,0c.1.08.28,0,.34.09a3.27,3.27,0,0,0,.2.55,4.49,4.49,0,0,0,.09.83h.43a5.85,5.85,0,0,1-.22-1.09,1,1,0,0,1-.12-.35c.1-.07.17,0,.22.11.2.45.68.82.65,1.34H21c-.38-.5-.64-1.05-1-1.57a.09.09,0,0,1,0-.09Zm2.48,0c.07,0,.07.18.2.19a10.05,10.05,0,0,1,.73.73,6.86,6.86,0,0,1,.56.65.11.11,0,0,1,0,.08h.94a6.2,6.2,0,0,1-.69-.44c-.47-.37-.83-.87-1.31-1.21Zm.82,0a9.62,9.62,0,0,1,1.07.73,6.26,6.26,0,0,1,1.13.7l.32.23H24a7.52,7.52,0,0,1-1.31-.92,3.24,3.24,0,0,1-1.12-.69H21Zm1.21,0a.45.45,0,0,0,.18.07,3.23,3.23,0,0,1,.94.39c.21.08.37.28.58.37.37.25.83.18,1.18.54a1.29,1.29,0,0,0,.38.28h.61c-.16-.09-.28-.26-.45-.34a.91.91,0,0,1-.37-.24,2.85,2.85,0,0,1-.68-.33,6.74,6.74,0,0,0-.72-.34,3.69,3.69,0,0,0-.69-.41Zm1.46,0h.29c.14.18.4.1.57.19a2.73,2.73,0,0,1,.91.35c.41.07.77.25,1.17.33a7.11,7.11,0,0,1,.65.47.49.49,0,0,1,0,.24h.44a2.32,2.32,0,0,0-.29-1.13l-.19-.52h-.7a.66.66,0,0,1,.19.5.14.14,0,0,1-.17.09c-.61-.11-1.13-.43-1.73-.6H23.63Zm6,0,.1.22a6.63,6.63,0,0,1,.35,1.15c0,.25-.31.22-.5.28h1.24a1.15,1.15,0,0,0-.08-.41c-.11-.41-.22-.83-.34-1.24Zm1.65,0c.09.36.16.72.22,1.09a3.72,3.72,0,0,0,.1.56h.48c0-.45-.12-.89-.21-1.34l-.07-.31ZM17.17,17.12a6.56,6.56,0,0,0,.66-1c.1-.16-.07-.25-.09-.38a.26.26,0,0,0-.19-.06,3.39,3.39,0,0,0-.29.57,7.52,7.52,0,0,1-.57.82Zm1,0a1.68,1.68,0,0,1,.06-.24c.07-.26.12-.52.17-.78a.18.18,0,0,0-.13-.17.24.24,0,0,0-.27.12c-.12.16,0,.4-.08.59a3.76,3.76,0,0,0-.13.48Zm.83,0v-.05a2,2,0,0,1,.07-.87.31.31,0,0,0-.19-.26.23.23,0,0,0-.22.09c0,.17-.1.38,0,.52a2.41,2.41,0,0,1,0,.38.61.61,0,0,1,0,.19Z" fill="#bd2b30" fill-rule="evenodd"/><path d="M5.78,14.44v.05c-.07.34-.19.65-.27,1h.58c0-.22.09-.43.13-.65l.15-.38H5.78Zm1.7,0-.12.37c0,.12-.08.45-.13.66h.5a9.32,9.32,0,0,0,.3-1Zm3.36,0c-.15.22-.24.47-.39.68a1,1,0,0,0-.14.35h.93l.1-.14c.21-.06.39-.2.6-.26a18.53,18.53,0,0,0,2.77-.63H13.06c-.35.06-.7.11-1.08.15a.51.51,0,0,1-.31-.07v-.07Zm4.89,0a1.55,1.55,0,0,1-.31.07c-.4.08-2.35.83-2.71,1h1c.73-.3,1.58-.65,1.83-.74.08-.07.47-.2.6-.29Zm.92,0a1.35,1.35,0,0,0,.53.77l.47.26h2.89a.26.26,0,0,1-.13-.2.14.14,0,0,1,.09-.09c.17,0,.25.22.39.28h.66c-.26-.18-.54-.35-.82-.51-.06,0-.12-.12-.07-.19a2.56,2.56,0,0,0,.16-.33h-.35a1.22,1.22,0,0,1-.36.5,1.53,1.53,0,0,1-.75.23,1.93,1.93,0,0,1-1.65-.4.66.66,0,0,1-.35-.33Zm5.49,0a1.86,1.86,0,0,1,.31.1c.56.16,1.19.17,1.75.36s.82.24,1.26.31.67.17,1,.24h.7a2,2,0,0,0-.26-.53,2,2,0,0,0-.23-.51h-.56a1.31,1.31,0,0,1,.23.56.15.15,0,0,1-.14.09c-.28,0-.54-.17-.82-.23a7,7,0,0,0-1.19-.25,4.15,4.15,0,0,1-.63-.16Zm7.13,0c.13.34.24.69.38,1h.77a7.57,7.57,0,0,0-.4-1Zm1.76,0c.11.34.21.68.3,1h.48a9,9,0,0,0-.36-1Zm-15.66,1c.25-.14.46-.33.71-.45s0-.27-.11-.23c-.47.18-.9.47-1.34.68Zm1.11,0a.13.13,0,0,0,.05-.13c-.08-.08-.18-.12-.22-.05a1.08,1.08,0,0,1-.24.18Zm.5,0h0Zm6.14,0h-.05a3.1,3.1,0,0,1-.88-.32,4.91,4.91,0,0,1-.73-.19c-.08,0-.19,0-.2.08,0,.27.3.21.48.3a1.2,1.2,0,0,1,.42.17Zm1.66,0h0c-.47-.16-1-.3-1.42-.45a4.84,4.84,0,0,1-1.2-.33.62.62,0,0,0-.33,0,.11.11,0,0,0,0,.13h0c.22.19.55.14.78.29a5.37,5.37,0,0,0,1.05.35Z" fill="#bd2b30" fill-rule="evenodd"/><path d="M6.17,13.4a9.15,9.15,0,0,0-.4,1h.58l.2-.54c.1-.16.19-.33.27-.49Zm1.66,0a9,9,0,0,0-.34,1H8a4.66,4.66,0,0,1,.36-1Zm3.79,0-.19.23a1.52,1.52,0,0,0-.45.61,1.33,1.33,0,0,0-.14.19h.77c.06-.15.17-.22.3-.36s3.48-.14,3.54-.42-3.3.08-2.95-.25h-.88Zm5,0a.33.33,0,0,0,0,.14,2.42,2.42,0,0,0,.05.89h.71a2.6,2.6,0,0,1-.21-.55,1.19,1.19,0,0,1,.07-.49Zm1.11,0a.25.25,0,0,0-.08.12c-.06.09-.07.31-.24.26s-.05-.26,0-.39Zm.51,0a.19.19,0,0,1-.18,0h.18Zm.89,0c0,.12-.1.24-.12.36a.17.17,0,0,1-.14,0,2.59,2.59,0,0,1-.09-.4Zm.83,0h0a.4.4,0,0,1-.17.3c-.15,0,0-.25-.2-.29s-.14.19-.26,0,0,0,0-.06Zm.28,0a.71.71,0,0,0,.09.28c.08,0,.22,0,.23.12a1.67,1.67,0,0,1-.11.63h.35a.73.73,0,0,0,.07-.24c.1-.13.23,0,.33,0a9.59,9.59,0,0,0,1,.21h1.52a4,4,0,0,0-.48-.09,3.25,3.25,0,0,0-.93-.17c-.45-.12-1-.09-1.3-.5a.17.17,0,0,1,.11-.22l1.23-.05Zm3.08,0h0Zm1.79,0a1.15,1.15,0,0,1,.41.08s.14.11.12.19a4.37,4.37,0,0,1-1.53,0h-.95c-.34,0-.53-.17-.7.09a.13.13,0,0,0,.07.16h0a9.76,9.76,0,0,0,1.32.09,2.58,2.58,0,0,1,.68,0c.55,0,1.2-.19,1.57.31v.07h.56c-.11-.17-.23-.34-.33-.52a6.9,6.9,0,0,0-.47-.52Zm3.75,0a2.47,2.47,0,0,1,.1.29,6.26,6.26,0,0,1,.32.75H30l0-.1a6.25,6.25,0,0,0-.45-.94Zm1.75,0,.41,1v.08h.42l-.42-1Zm-15.95,1,.18,0c.09-.14,1.31-.13,1.24-.41a18.93,18.93,0,0,0-2.59.34l-.52.11Zm1.53,0Z" fill="#bd2b30" fill-rule="evenodd"/><path d="M6.86,12.17a9.84,9.84,0,0,0-.68,1.23h.65a7.05,7.05,0,0,1,.69-1.23Zm1.71,0-.26.37a3.43,3.43,0,0,0-.49.82H8.4l0-.12a12.8,12.8,0,0,1,.69-1.11Zm4.34,0-.27.23c-.36.32-.7.66-1,1h.89c.26-.24.76-.15,1.13-.15l1.65.06a2.89,2.89,0,0,0,.83,0c.06-.06.16,0,.16-.11s-.39-.05-.58-.15A12.77,12.77,0,0,0,14.31,13a9.24,9.24,0,0,1-1.17-.1s-.12-.07-.07-.13c.36-.36,2-.05,2.33-.06a.65.65,0,0,0,.09-.11s-1-.22-1.38-.4Zm2.42,0a4.4,4.4,0,0,0,.5.21l.25.11c.21.13.47.15.68.28s-.13.4-.17.63h.63a3.65,3.65,0,0,1,.25-.53,2.45,2.45,0,0,1,.66-.7h-.87c-.14.15-.26.34-.48.26a4,4,0,0,1-.47-.26Zm4.44,0,.22.14a2.67,2.67,0,0,1,.45.38c.06,0,0,.13,0,.19s-.34.11-.29.3a.9.9,0,0,1,.06.22h5.68a4.21,4.21,0,0,1-.4-.52,9.51,9.51,0,0,1-.71-.71h-.67a7.09,7.09,0,0,0-.91.22h-.64a2.81,2.81,0,0,0-.82.06,5.46,5.46,0,0,0-.92.28c-.19-.07-.08-.33-.22-.45a.22.22,0,0,1,0-.16Zm1.44,0-.13,0v.11s.14.06.23.07.33-.16.49-.22Zm7,0,.3.43c.1.28.23.53.34.83h.67v0A6.42,6.42,0,0,0,29,12.19Zm1.77,0,.25.52a5.34,5.34,0,0,1,.37.71h.47L31,13.22a8.13,8.13,0,0,1-.52-1.07ZM17.4,13.4a.47.47,0,0,0,.06-.15c.08,0,.26-.11.29,0a.14.14,0,0,1-.06.11Zm.61,0c-.1-.09-.1-.26-.25-.32a.26.26,0,0,1-.21,0,.1.1,0,0,1,0-.14.79.79,0,0,1,.52-.09l.08.09a.42.42,0,0,1,.1.45H18Zm.73,0v-.09c0-.14-.19-.27-.13-.42a.16.16,0,0,1,.09-.07c.21,0,.32.2.4.35a.45.45,0,0,1,0,.23Zm.55,0a.34.34,0,0,1,0-.2.32.32,0,0,1,.25-.25.39.39,0,0,1,.29.09.47.47,0,0,1,.11.36Zm3.76-.72.83-.19c.24,0,.52-.13.72,0s.37.21.35.44a.9.9,0,0,1-.68.12c-1,0-2,.06-3,.07h-.45a.12.12,0,0,1-.06-.14c.21,0,.33-.16.52-.18a2.67,2.67,0,0,1,.47-.07l.76-.09H23Z" fill="#bd2b30" fill-rule="evenodd"/><path d="M8,10.51H8c-.2.37-.52.68-.73,1-.14.19-.28.39-.4.59h.65c0-.05.07-.09.11-.13.29-.51.73-.94,1-1.43l.07-.09Zm1.83,0a18.57,18.57,0,0,0-1.26,1.66h.57a5.94,5.94,0,0,1,.55-.67,5.48,5.48,0,0,1,.76-.91l.1-.07Zm5.69,0a11.21,11.21,0,0,0-1.74.94,8.08,8.08,0,0,0-.83.72h1.17C14,12.12,14,12.06,14,12c.31-.31.83-.07,1.33.17h1a1,1,0,0,0-.37-.1,4.05,4.05,0,0,0-1.1-.5c-.06,0,0-.08,0-.12s.25,0,.37,0a1.69,1.69,0,0,0,.58.17,6.58,6.58,0,0,0,.82.36.12.12,0,0,0,.12-.09.15.15,0,0,0-.1-.16c-.16,0-.25-.14-.4-.16a4.6,4.6,0,0,0-.53-.37.12.12,0,0,1,0-.17.42.42,0,0,1,.27-.18c.3-.08.4.28.63.36s.44.56.73.78v.07a.34.34,0,0,0-.09.08h.94a2.26,2.26,0,0,1,1.36-.07.94.94,0,0,1,.23.1h.86l.08-.1c.5-.49,1.12-1.12,1.87-.75l.1.1c0,.2-.26.14-.37.25-.38.14-.75.33-1.13.5h.58a9.17,9.17,0,0,0,.9-.41,1.58,1.58,0,0,1,1.46.31v.09h.65a1.7,1.7,0,0,0-.3-.23,7.21,7.21,0,0,0-1.18-.76c-.36-.2-.77-.27-1.12-.49a1.77,1.77,0,0,0-.45-.18H20a3.56,3.56,0,0,1-.28.91s0,.07-.09.06c-.14-.35.11-.63.09-1h-.41a2.47,2.47,0,0,1-.1.67c-.1.12,0,.32-.15.39a1.23,1.23,0,0,1-.66,0l-.06-.06a5.92,5.92,0,0,1,0-.94V10.5H15.52Zm3.11,0v.06c0,.18-.13.47.09.57a.18.18,0,0,0,.16-.14v-.36l.07-.13Zm8.13,0c.5.42.83,1,1.35,1.45v.11l.06.1h.72l-.1-.16a4.07,4.07,0,0,1-.43-.65c-.25-.28-.43-.58-.67-.83Zm2.23,0c.24.32.46.66.67,1a2.77,2.77,0,0,1,.32.67h.47L30.38,12c-.14-.23-.13-.52-.33-.73a2.37,2.37,0,0,0-.45-.68l-.12-.11Zm-11.35.55c0-.14-.15-.32,0-.47l.1-.05a.19.19,0,0,1,.18.07,1.84,1.84,0,0,0,0,1c0,.12-.18.16-.28.21s-.26-.23-.43-.31a4.45,4.45,0,0,0-.56-.59.19.19,0,0,1,0-.15.27.27,0,0,1,.29-.09l.09.06c.17.24.27.54.52.7a.12.12,0,0,0,.16-.05h0c0-.12-.1-.16-.12-.25Zm2.86.34s.09,0,.13,0c.23-.24.38-.78.82-.65.06,0,.14.07.16.14s-.11.12-.19.17c-.32.34-.7.59-1,.93-.09,0-.16,0-.22-.08-.28-.31,0-.7,0-1,.13-.14.17-.4.41-.37a.48.48,0,0,1,.28.06v.07a4,4,0,0,0-.45.57.2.2,0,0,0,.05.16Z" fill="#bd2b30" fill-rule="evenodd"/><path d="M9.5,8.86,9.37,9a6.43,6.43,0,0,1-.82.83c-.15.23-.43.4-.57.65h.78c.42-.49,1-.89,1.34-1.39l.35-.26Zm2.66,0a11,11,0,0,1-1.22.65,7,7,0,0,0-1.11,1h.72A9.19,9.19,0,0,1,12,9.56c.27-.19.56-.36.83-.54l.34-.16Zm12.55,0,.14.09a11.56,11.56,0,0,1,1.65,1.39l.23.17h1l-.13-.14c-.29-.18-.48-.52-.83-.67a9.27,9.27,0,0,1-1.07-.82Zm2.65,0c.24.23.47.48.72.69a4.82,4.82,0,0,1,.9,1h.49c-.18-.23-.38-.46-.59-.68a6.93,6.93,0,0,0-.91-1Zm-9.09,1.65a.11.11,0,0,1,0-.08c0-.06.13,0,.18,0a.48.48,0,0,1,.2.14H19l.09-.18c.06,0,.18,0,.2.07a.38.38,0,0,1,0,.11h.4a.14.14,0,0,1,.11-.11.16.16,0,0,1,.15.11h1.8a2.57,2.57,0,0,1-.61-.2A14.71,14.71,0,0,0,19.57,10H18a10.13,10.13,0,0,0-1.54.27l-.59.09-.37.11Z" fill="#bd2b30" fill-rule="evenodd"/><path d="M15.49,5.55c-.24,0-.48.09-.71.15a7.47,7.47,0,0,0-1.06.4,13,13,0,0,0-2,1c-.42.28-.82.66-1.23.94a10.16,10.16,0,0,0-1,.82h.92l.28-.24,1.19-.93c.4-.27.83-.47,1.24-.74a5,5,0,0,1,1-.38.49.49,0,0,1,.42.06,1.2,1.2,0,0,0,1.19.62,1.85,1.85,0,0,0,.82-.4A1.87,1.87,0,0,1,17,6.5a1.91,1.91,0,0,1,.47.18A2.07,2.07,0,0,0,19,6.2c.12,0,.33.2.43.25a5.3,5.3,0,0,0,1.3.28h0a3.1,3.1,0,0,0-.75,0,7.8,7.8,0,0,0-2.8.21,23.09,23.09,0,0,0-2.39.66,15.56,15.56,0,0,0-1.65.79,5.1,5.1,0,0,0-1,.47h1c.45-.22.9-.41,1.35-.61.25-.17.57-.22.83-.4a16.57,16.57,0,0,1,3.2-.68,5.49,5.49,0,0,0,.7,0,9,9,0,0,1,2.42.32l.87.34c.42.24.88.42,1.32.65a4.07,4.07,0,0,1,.82.45h1a2.15,2.15,0,0,0-.49-.28c-.61-.32-1.24-.6-1.83-1a7.51,7.51,0,0,0-1.12-.41s-.08-.09,0-.13a4.31,4.31,0,0,0,.47-.22,1.17,1.17,0,0,0,.43-.45,15.44,15.44,0,0,1,1.58.78,7.3,7.3,0,0,1,1.84,1,4,4,0,0,1,.82.65H28l-.74-.65c-.29-.14-.52-.42-.83-.57s-.64-.33-.95-.52a12.07,12.07,0,0,0-1.43-.74c-.14-.09-.32-.12-.47-.23a5.9,5.9,0,0,0-1.06-.47c-.2-.07-.42.06-.6,0v-.1h-.43a3.28,3.28,0,0,0,.27,1c.08.06.17.14.28.09s.09,0,.12-.08A2.35,2.35,0,0,0,22,6S22,6,22.07,6c.19,0,.32.14.5.15a.58.58,0,0,1,0,.32c0,.12-.19.14-.25.22a.29.29,0,0,1-.24.11,1.18,1.18,0,0,1-.82-.62l-.17-.59h-1a1.86,1.86,0,0,0,.21.28c.14.17.4.51.12.43a2.68,2.68,0,0,1-1.05-.71H19a3.29,3.29,0,0,1-1,.71c-.27.09,0-.32.18-.49a1.84,1.84,0,0,0,.17-.22h-.79a.45.45,0,0,1-.28,0h-.16a.27.27,0,0,0-.09.12,1.29,1.29,0,0,1-.78,1c-.22,0-.5.13-.7,0a.59.59,0,0,1-.17-.55c0-.24.28-.27.45-.31s.2,0,.24.07c.07.28-.53.29-.21.57a.83.83,0,0,0,.65-.38,1.22,1.22,0,0,0,.19-.49H15.47Z" fill="#bd2b30" fill-rule="evenodd"/><path d="M16.65,5.55a1.49,1.49,0,0,0-.12-1,1,1,0,0,1,.69.28c0,.18,0,.39.15.48s.24-.11.29,0a.13.13,0,0,1-.11.15h.73a2.18,2.18,0,0,0,.27-1.23c0-.93-.62-1.15-.89-1.16s-.45,0-.35-.14a1.25,1.25,0,0,1,.83,0,3.94,3.94,0,0,1,1,.66,3.94,3.94,0,0,1,1-.66c.31-.07.91-.11,1,0s-.08.09-.33.11a1.21,1.21,0,0,0-1.06,1.23,2.28,2.28,0,0,0,.29,1.23h1v0c-.13-.11-.31,0-.46-.08s-.28,0-.28-.16-.09-.25,0-.25l.09-.08s.14,0,.22,0,.21.27.4.22.27-.34.44-.42c.35-.28.43-.19.65-.3h0c-.31.22-.64.4-.68.83a2.67,2.67,0,0,0,0,.4h.43a3.28,3.28,0,0,1,.19-.68c.19-.34.63-.12.9-.32a.35.35,0,0,0,.08-.32.85.85,0,0,0-.73-.4,2.69,2.69,0,0,0-1.24.64c-.21.17-.4-.08-.61-.12a.47.47,0,0,1-.31-.43c0-.19.21-.32.35-.43a1.13,1.13,0,0,1,1.07,0,.37.37,0,0,0,.25-.28.64.64,0,0,0-.09-.43,1.25,1.25,0,0,0-.45-.18,2.4,2.4,0,0,0-1.56.19c-.22.11-.37.4-.65.37a9.16,9.16,0,0,0-.82-.43l-.41-.26A1,1,0,0,0,16.79,3c-.05.21-.19.5,0,.7a.24.24,0,0,0,.28.09c.16,0,.19-.19.29-.29a.31.31,0,0,1,.23,0,.58.58,0,0,1,.37.33c.06.2-.09.37-.22.5a.62.62,0,0,1-.48.07c-.52-.32-1.08-.83-1.75-.5-.28.14-.63.42-.63.75s.37,0,.55,0a.91.91,0,0,1,.83.25.46.46,0,0,1-.16.47,2.45,2.45,0,0,1-.6.18h1.15Zm.56,0a.19.19,0,0,0-.15,0Zm1.74,0c.12-.13.22-.24.22-.3a.64.64,0,0,0,.19.3Zm-1.42-.68A.48.48,0,0,1,18,4.61l.06.07a.49.49,0,0,1-.06.39.49.49,0,0,1-.47,0,.14.14,0,0,1,0-.2Z" fill="#bd2b30" fill-rule="evenodd"/><path d="M36.14,17.54c-.07-.41-.07-.83-.12-1.27a15.44,15.44,0,0,0-1-4.13,2.37,2.37,0,0,0-.4-.83,4.23,4.23,0,0,0-.42-.82v-.1a23.89,23.89,0,0,0-2-2.84,18.71,18.71,0,0,0-2.84-2.64A13.49,13.49,0,0,0,27.21,3.4,13.48,13.48,0,0,1,26,2.75a7.39,7.39,0,0,0-1.25-.49C24.07,2,23.22,2,22.5,1.69c-.52,0-1-.09-1.5-.16-.76-.05-1.53-.08-2.27-.07A3.67,3.67,0,0,0,17,1.57c-.34,0-.66.11-1,.12a12.49,12.49,0,0,0-1.6.29c-.2,0-.35.19-.55.19a8.54,8.54,0,0,1-1.37.4,9,9,0,0,0-1,.4c-.23.27-.6.23-.83.48-1,.42-1.8,1.16-2.77,1.6a11.71,11.71,0,0,0-2.3,2c-.31.29-.5.65-.78.94a9.55,9.55,0,0,0-.57,1c-.16.45-.55.82-.7,1.27-.14.15-.13.36-.29.5-.14.36-.35.68-.5,1a4.47,4.47,0,0,0-.31.82A4.22,4.22,0,0,0,2,13.78a2.18,2.18,0,0,0-.29.82,17.6,17.6,0,0,0-.51,2.48,10.71,10.71,0,0,0-.06,2c-.13.21,0,.42,0,.65A6,6,0,0,1,1.3,21l.06.09c.09.35.13.72.19,1.09A12.21,12.21,0,0,0,2.06,24c.31.69.47,1.44.77,2.15a12.41,12.41,0,0,0,.63,1.2c.36.73.87,1.41,1.28,2.13A21,21,0,0,0,6.48,31.4a12.38,12.38,0,0,0,2.76,2.07,17.86,17.86,0,0,0,2.58,1.31c.54.19,1.06.4,1.6.57a4.55,4.55,0,0,0,1.36.4c.38,0,.66.22,1,.22a18.91,18.91,0,0,0,4,.06c.64-.06,1.3-.1,1.92-.21A12.18,12.18,0,0,0,25,35a9.53,9.53,0,0,1,1.76-.78,14.1,14.1,0,0,0,2.8-1.65c.49-.3.91-.73,1.39-1.09.49-.64,1.12-1.21,1.65-1.86a1.68,1.68,0,0,1,.22-.42c.43-.5.75-1.05,1.13-1.57a4.41,4.41,0,0,0,.56-1.13c.16-.33.79-2.07,1-2.59a21.7,21.7,0,0,0,.43-2.41,21.88,21.88,0,0,0,.18-2.28,16.07,16.07,0,0,0,0-1.7Zm-.69,3.58c-.06.14,0,.31-.05.47a5.81,5.81,0,0,1-.32,1.34A21.23,21.23,0,0,1,34,26.11a14.87,14.87,0,0,1-.83,1.44c-.4.64-.87,1.26-1.31,1.87q-.29.31-.6.6a4.35,4.35,0,0,1-1.3,1.3,12.17,12.17,0,0,1-1.71,1.32,20.39,20.39,0,0,1-2.14,1.19c-.34.2-.72.29-1,.52-.28.08-.52.24-.82.3a15.29,15.29,0,0,1-2.48.48,5.12,5.12,0,0,1-1.44.29c-.4,0-.83.08-1.22.09a2.53,2.53,0,0,1-.95,0,3.2,3.2,0,0,0-1.07,0A5.81,5.81,0,0,1,15,35.25a12.82,12.82,0,0,0-1.65-.42c-.64-.29-1.35-.44-2-.76A8.66,8.66,0,0,1,9,32.74c-.43-.36-1-.58-1.38-1A5.68,5.68,0,0,1,6,30.22a2.5,2.5,0,0,1-.61-.76c-.06-.14-.24-.1-.27-.25-.31-.55-.7-1.07-1-1.65-.16-.11-.16-.32-.29-.47a9.59,9.59,0,0,1-.93-2c-.22-.4-.3-.83-.5-1.24a7,7,0,0,1-.25-1.19c0-.19-.16-.31-.22-.48-.17-.76-.2-1.55-.31-2.33a6.28,6.28,0,0,1-.13-1.05,5,5,0,0,1,.06-1.44,14.29,14.29,0,0,1,.38-2,8.51,8.51,0,0,1,.65-2c0-.25.19-.42.2-.66.32-.65.48-1.36.83-2s.7-1.08.91-1.69A9.84,9.84,0,0,1,5.36,7.8a5.11,5.11,0,0,1,.92-.88,4.68,4.68,0,0,0,.56-.53C7.47,6,8,5.4,8.64,5c.29-.11.52-.44.82-.53a11,11,0,0,1,1.35-.73,11.06,11.06,0,0,1,2-.83c.54-.13,1.07-.26,1.66-.35.33-.1.7-.14,1-.25L17,2.15A15.59,15.59,0,0,1,19.11,2a7.77,7.77,0,0,1,1.53.1l.92.16a2.57,2.57,0,0,1,.83.07A7.67,7.67,0,0,1,24.87,3c.44.25.92.43,1.39.67a8.47,8.47,0,0,1,2.62,1.65,11.73,11.73,0,0,0,1.05.94c.72.7,1.41,1.4,2.08,2.12.24.34.49.67.69,1a9.83,9.83,0,0,1,1,1.66,13,13,0,0,1,1.17,3.21A14,14,0,0,1,35.49,19a10.85,10.85,0,0,0-.23,2.13Z" fill="#bd2b30" fill-rule="evenodd"/><path d="M22.26,18c0,.11-.05.1,0,.23s0,.23-.07.27-.21-.29-.41-.21l-.31.06a7.73,7.73,0,0,1-.07,1.28c0,.16.21.09.23.24s0,.18-.09.19-.17,0-.24,0a.91.91,0,0,1-.65,0,.18.18,0,0,1,0-.2c.09-.12.26-.09.27-.24a6.74,6.74,0,0,0,0-1.27.32.32,0,0,0-.33-.06c-.07,0-.09.34-.23.31l-.09-.11V18l.05,0a17.22,17.22,0,0,0,1.76,0,.42.42,0,0,1,.25.05Z" fill="#bd2b30"/><path d="M27.71,18.05a1.4,1.4,0,0,1,0,.5c-.07,0-.16,0-.25,0s0-.19,0-.22a.34.34,0,0,0-.29-.19.67.67,0,0,0-.33.22c0,.44.74.35.93.7a.61.61,0,0,1-.1.76,1,1,0,0,1-1,.09c-.17,0-.35.19-.49,0l.16-.27c.11-.16.08-.24.23-.37h.05c.09.3.15.44.47.45s.36,0,.39-.14a.38.38,0,0,0,0-.22c-.21-.3-.87-.26-1-.61a.68.68,0,0,1,.12-.73,1.29,1.29,0,0,1,1.13-.09V18Z" fill="#bd2b30"/><path d="M13.38,18a.92.92,0,0,1,0,.52c0,.09-.14.08-.21.07s-.06-.22-.2-.23a.34.34,0,0,0-.35,0,.47.47,0,0,0-.06.33c.06.1.28.05.37.08s.08.12.05.3-.23,0-.38,0a.83.83,0,0,0,0,.58.82.82,0,0,0,.63-.12c.11-.09.13-.23.25-.26s.15,0,.16.1,0,.45-.21.56c-.47.2-1.08,0-1.65.05-.09,0-.09-.12-.07-.19.38-.35.23-1.06.24-1.53,0-.13-.21-.23-.15-.35l.07,0a8.22,8.22,0,0,0,1.11,0,.53.53,0,0,1,.33.05Z" fill="#bd2b30"/><path d="M19.11,18.07a.31.31,0,0,1,0,.19.64.64,0,0,0-.27.18,10.46,10.46,0,0,1,0,1.12c.07.09.23.07.26.21A.21.21,0,0,1,19,20a2.17,2.17,0,0,1-.72,0,.47.47,0,0,1-.4,0c-.08-.07-.08-.12,0-.22s.27-.07.33-.23a5.32,5.32,0,0,0,.07-1.19c0-.14-.22,0-.31-.14s-.14-.25-.07-.25a7.11,7.11,0,0,1,1.13,0c.05,0,.08,0,.1.11Z" fill="#bd2b30"/><path d="M9.72,18c0,.09,0,.09-.12.11a.14.14,0,0,0-.11.07,1.64,1.64,0,0,0,.26.77.24.24,0,0,0,.19-.14l.5-.72c-.19-.1-.09-.22-.09-.22a2.06,2.06,0,0,1,.7,0s.24-.05.19.1-.2.1-.28.22c-.38.54-.75,1.22-1.05,1.72-.1,0-.23,0-.27-.08v-.21L9,18.26c-.05-.06-.14,0-.2-.07s0-.09,0-.19.26-.08.38-.12.5-.08.6.14Z" fill="#bd2b30"/><path d="M25.23,19.62A12.73,12.73,0,0,1,24.4,18a.2.2,0,0,0-.19-.16c-.08,0-.28.05-.31.14a4.71,4.71,0,0,1-.77,1.65,1.33,1.33,0,0,1-.3.23.07.07,0,0,0,0,.11s0,0,0,0h.89a.07.07,0,0,0,.07-.08c0-.09-.05-.08-.1-.11s0-.08,0-.11c.14-.31.36-.22.57-.2s.38-.06.42.22c0,.08-.12,0-.17,0a.14.14,0,0,0-.09.17c0,.08.08.08.15.08a7.56,7.56,0,0,1,.83,0c.12,0-.14-.25-.19-.35Zm-.83-.41a1,1,0,0,1-.55.06c-.16,0,.16-.42.11-.53a.21.21,0,0,1,.13-.29c.13,0,.09.18.12.29S24.43,19.11,24.4,19.21Z" fill="#bd2b30" fill-rule="evenodd"/><path d="M25.43,9.69c0-.13-.1-.12-.29-.12a1.26,1.26,0,0,0-.68.45,4.74,4.74,0,0,1-.92.61c-.12.08-.24,0-.36.09a.17.17,0,0,0,0,.1,1.49,1.49,0,0,0,.36.17c.14.06.2.31.39.17,0-.09-.09-.19,0-.27.33-.1.47.07.7.25a.13.13,0,0,1,0,.18c-.11,0-.23.08-.32,0s0,0,0,.06.32.36.42.46a.79.79,0,0,0,.5.34.14.14,0,0,0,.09-.13c-.11-.31-.2-.06-.06-.36.05-.1.17-1.48.22-1.56A1.62,1.62,0,0,1,25.43,9.69Zm-.65,1.05c0,.11-.41-.13-.48-.22s.26-.25.28-.29A.85.85,0,0,1,24.9,10h0a6.69,6.69,0,0,1-.14.74Z" fill="#bd2b30" fill-rule="evenodd"/><path d="M20.23,7.71c0,.21,0,.42-.07.63a.1.1,0,0,1-.1.06c-.1,0-.24,0-.22-.45-.2-.22-.47-.11-.48.12a5.63,5.63,0,0,0-.05,1.23c.09.11.09.29.24.37a.1.1,0,0,1,0,.13h0c-.17,0-.31-.07-.48-.08a3.31,3.31,0,0,1-.63,0c-.06,0,0-.11,0-.15.44-.29.34-.83.38-1.33a.21.21,0,0,0-.11-.18c-.37-.16-.3.11-.46.15a.12.12,0,0,1-.16,0c-.13-.09,0-.24,0-.36s0-.24.14-.25c.47-.06,1,0,1.44,0,.24,0,.55-.06.69.16Z" fill="#bd2b30"/><path d="M22.71,8.26a.85.85,0,0,1,.3.19c0,.24-.35.1-.44.29-.14.46-.67,1-.29,1.48a.09.09,0,0,1-.06.12h0c-.19,0-.48-.25-.64-.34s-.37,0-.47-.19.26-.14.38-.24c.28-.12.3-.49.4-.73s.17-.34.13-.52-.28-.15-.19-.31.24,0,.36,0,.41.2.53.28Z" fill="#bd2b30"/><path d="M28,12.26a2.72,2.72,0,0,1,.49.77c0,.11.12.22,0,.33a.4.4,0,0,1-.34.14c-.07,0-.05-.12,0-.17.09-.34,0-.54-.33-.55-.05.18-.34.1-.26.31s.17.2.15.32a.35.35,0,0,1-.22.24h-.08c-.1-.14-.24-.25-.26-.4a.09.09,0,0,0-.12,0c-.06.11-.26.18-.2.34a.91.91,0,0,0,.32.48c.19.12.16,0,.25,0s.34,0,.42.1-.14.13-.22.17a.91.91,0,0,1-.67.08c-.23-.21-.24-.49-.45-.7v-.08a1.83,1.83,0,0,0-.5-.42c-.06,0,0-.11,0-.15.1-.23.27,0,.43-.05a4.94,4.94,0,0,0,1-.52c.12,0,.21-.14.28-.23a1,1,0,0,1,0-.34c.05,0,.12-.07.16,0s.16.29.25.43Z" fill="#bd2b30"/><path d="M9.5,12.92c0,.19-.19.31-.32.44a.8.8,0,0,0,0,.71c.11.17.25.39.46.41l.42,0c0-.11.15-.18.14-.31,0-.34-.35,0-.42-.12a.8.8,0,0,1,.23-.6.79.79,0,0,1,.56.23c.07,0,.2,0,.21.13v.11a3.37,3.37,0,0,1-.21.83,1.36,1.36,0,0,1-.64.41.8.8,0,0,1-.53.05c-.23-.22-.61-.34-.68-.69A1.65,1.65,0,0,1,9,12.88c.14-.08.44-.19.53.06Z" fill="#bd2b30"/><path d="M13.25,26.14a.18.18,0,0,0-.19-.14,10.37,10.37,0,0,1-1.17.55,1.48,1.48,0,0,1-.53.23,1.24,1.24,0,0,1-.47,0,.13.13,0,0,0-.06.11,6.29,6.29,0,0,1,.72.74c.11-.09,0-.27.14-.37s.24,0,.37.06a.76.76,0,0,1,.45.61c0,.05-.16,0-.21,0s-.11.05,0,.13l.39.23c.17.11.27.33.46.38s.06-.12,0-.17c-.43-.83.2-1.54.08-2.36Zm-.72,1.13c-.13,0-.31-.2-.39-.3a.14.14,0,0,1,0-.15c.15-.09.45-.38.63-.4h0a7.84,7.84,0,0,1-.23.83Z" fill="#bd2b30" fill-rule="evenodd"/><path d="M26.49,26.69c-.33-.09-.14.06-.47,0s-1-.37-1.19-.44-.33-.2-.47-.07.07.44,0,.7.28,1,.15,1.11-.24.29-.12.44.16-.07.24-.12a1.86,1.86,0,0,0,.54-.43c0-.11-.18,0-.24-.13s.2-.24.29-.36a.56.56,0,0,1,.4-.27c.17,0,0,.21,0,.33s0,.05.07.05a6.51,6.51,0,0,0,.82-.65.12.12,0,0,0,0-.14Zm-1.66.63a1.39,1.39,0,0,1-.17-.72c0-.05.16.07.2.09l.39.18s.1,0,.11.06S25,27.38,24.83,27.32Z" fill="#bd2b30" fill-rule="evenodd"/><path d="M10.88,23.49v.11A7,7,0,0,0,10.55,25c0,.06.23-.15.28-.18.21-.09.36-.33.58-.39s.16.11.24.22.25.27.19.45-.2-.15-.36-.1a3.11,3.11,0,0,0-.83.43c-.15.2-.37.27-.54.43-.09,0-.24,0-.24-.12a12,12,0,0,0,.25-1.46c0-.07-.53.34-.58.38-.24.16-.13.15-.2.44a.3.3,0,0,1-.19-.1c-.05,0-.09-.28-.17-.4s-.16-.13-.13-.24a.89.89,0,0,0,.62-.08,7.82,7.82,0,0,0,1-.79c0-.07-.1-.13-.06-.2a.17.17,0,0,1,.23,0,.33.33,0,0,1,.21.19Z" fill="#bd2b30"/><path d="M27.28,23.74c.06,0,.12.11.07.19a2.4,2.4,0,0,0-.7.23c-.08.08-.21.15-.22.27a.56.56,0,0,0,.4.3c.19-.09-.06-.37.21-.37s.27,0,.36.19,0,.08,0,.11-.24,0-.27.14,0,.22.08.27a.27.27,0,0,0,.31.1c.14,0,.2-.19.28-.29s-.13-.33-.24-.48a.21.21,0,0,1,.12-.19c.27.06.44.26.68.37a.26.26,0,0,1-.06.21,10.24,10.24,0,0,1-1.09,1.28c-.05,0-.09.09-.14.07s.14-.31.07-.41a2.77,2.77,0,0,0-.94-.83c-.2-.06-.23,0-.36.17a.2.2,0,0,1-.22.05c-.08,0-.07-.11-.05-.18s.32-.33.43-.51a10,10,0,0,1,.68-.89c.22-.16.38.11.58.17Z" fill="#bd2b30"/><path d="M14.94,27.11c.52.17,1,.37,1.56.52a.45.45,0,0,1,.19.15c0,.19-.12.32-.17.48a.1.1,0,0,1-.16,0c-.15-.14-.12-.49-.41-.42s-.22.36-.31.51a1.5,1.5,0,0,0-.24.72,1.09,1.09,0,0,0,.27.33.09.09,0,0,1-.07.12h0c-.15,0-.25-.12-.39-.14a2.94,2.94,0,0,1-.83-.24V29s.22-.07.33-.11a4.75,4.75,0,0,0,.42-1c0-.12.16-.22.12-.34a.67.67,0,0,0-.3-.13c-.16.1-.24.28-.39.38s-.11,0-.14-.09a1.35,1.35,0,0,1,.22-.72.61.61,0,0,1,.27,0Z" fill="#bd2b30"/><path d="M19.17,28a.17.17,0,0,0,.09.18s.16.05.15.14a1.69,1.69,0,0,1-.22,1.2.42.42,0,0,1-.45.1c-.41-.24-.13-.66-.22-1.05,0-.14-.07-.33.07-.44s.11,0,.13-.1,0-.08-.07-.1a5,5,0,0,1-.77,0,.12.12,0,0,0-.14.08c0,.07,0,.13.08.14a.35.35,0,0,1,.18.16c.15.53-.13,1.07.16,1.56a1.47,1.47,0,0,0,1.12.16c.67-.32.32-1.12.56-1.7.09-.06.23,0,.27-.1a.22.22,0,0,0,0-.22,2.3,2.3,0,0,0-.74,0c-.11,0-.19,0-.23,0Z" fill="#bd2b30"/><path d="M23.78,28.41a.22.22,0,0,0-.23-.06c-.12,0-.15.15-.17.24s-.19.1-.31.12-.43-.23-.37-.33a.65.65,0,0,0,.05-.78c-.2-.44-.78-.33-1.11-.19a4.58,4.58,0,0,0-.83.4.18.18,0,0,0,.06.19c.09.09.23,0,.33,0a1.29,1.29,0,0,1,.27.45,4.63,4.63,0,0,1,.27.82c0,.17-.13.34,0,.45a3.05,3.05,0,0,1,.51-.17c.18-.1-.13-.51-.1-.65a.12.12,0,0,1,.13-.07,3.47,3.47,0,0,0,.67.33c.42,0,.67,0,.83-.42,0-.09,0-.21,0-.29Zm-1.47-.1a.3.3,0,0,1-.28.09c-.09-.07-.39-.62-.23-.71a.49.49,0,0,1,.56.22A.61.61,0,0,1,22.31,28.31Z" fill="#bd2b30" fill-rule="evenodd"/><path d="M13,3.31c0,.28.19.43.1.69-.06.07,0,.1-.14.1s-.12,0-.14,0a.42.42,0,0,0-.26-.3,1.07,1.07,0,0,0-.65.33.3.3,0,0,0,.05.3c.37.37.83,0,1.23,0a1.06,1.06,0,0,1,.44.21,1,1,0,0,1,.26,1c-.19.37-.54.82-1,.75-.16,0-.3-.16-.43,0s0,.22-.08.26a.3.3,0,0,1-.24,0c-.1-.14,0-.3,0-.46s-.17-.27,0-.39.5.33.72.25a.5.5,0,0,0,.39-.34.34.34,0,0,0,0-.31.34.34,0,0,0-.26-.12c-.27,0-.42.28-.73.23A.91.91,0,0,1,11.6,5a.89.89,0,0,1-.2-.88,1,1,0,0,1,.54-.57,1.34,1.34,0,0,1,.59-.1c.21,0,.12-.39.4-.25l.09.06Z" fill="#bd2b30"/><path d="M26.78,4.29c.1.1.11.3.29.32s.24,0,.26.09-.31.27-.46.42l-.22.18s-.09,0-.1-.07c-.12-.25.12-.29,0-.52s-.16-.25-.3-.27a.26.26,0,0,0-.22.14c-.16.32.09.55.16.82a1.26,1.26,0,0,1,.22.52.64.64,0,0,1-.22.67,1,1,0,0,1-1,.17,2,2,0,0,1-.52-.32l-.26-.32A.42.42,0,0,1,24.1,6c-.09-.12,0-.14,0-.2l.53-.59a.22.22,0,0,1,.16,0c.07,0,.07.11.09.17s-.2.27-.17.47a.79.79,0,0,0,.37.47.5.5,0,0,0,.38,0,.31.31,0,0,0,.15-.39c0-.29-.37-.44-.42-.72s-.14-.57,0-.77a1.08,1.08,0,0,1,1.08-.39.69.69,0,0,1,.4.24Z" fill="#bd2b30"/><path d="M9.59,5.12c0,.24-.2.34,0,.55s.63.64.82,1c.11.14.18.3.35.38s.39-.18.46.07-.35.28-.48.42a1.55,1.55,0,0,0-.53.52c-.05,0-.14.09-.19,0s.15-.48,0-.71-.23-.29-.32-.45a2.79,2.79,0,0,0-1-1c-.14-.07-.33.13-.41,0a.43.43,0,0,1,.21-.28,7,7,0,0,0,.83-.6c.09,0,.22,0,.25.07Z" fill="#bd2b30"/><path d="M28.25,6.17a.59.59,0,0,1,.15.58.57.57,0,0,1-.46.41c-.21,0-.49,0-.59-.24a.62.62,0,0,1,.1-.56,1,1,0,0,1,.33-.29A.85.85,0,0,1,28.25,6.17Z" fill="#bd2b30"/><path d="M7.38,7.1a.31.31,0,0,1,0,.23c-.07.07-.14.17-.25.12s-.2-.19-.27-.1-.22.39-.18.44A.68.68,0,0,0,7,7.94c.33,0,.79-.44,1.17-.31A.82.82,0,0,1,9,8.4,1.26,1.26,0,0,1,9,9c-.14.27-.38.61-.7.66a.37.37,0,0,0-.21,0c-.09.1,0,.27-.16.33s-.29-.23-.39-.36a1.52,1.52,0,0,1-.16-.45s0-.05.09-.07c.41-.16.36.43,1,0a.39.39,0,0,0,.13-.35c-.09-.15,0-.43-.43-.34s-.7.26-1.08.34a.89.89,0,0,1-.71-.34.94.94,0,0,1,0-.82c.13-.17.43-.83.57-.7a1.24,1.24,0,0,1,.55.24Z" fill="#bd2b30"/><path d="M5.33,9.09c.07.14-.08.25,0,.41a.9.9,0,0,0,.61.63A15.8,15.8,0,0,0,7.28,11a.12.12,0,0,1,0,.14c-.22.25-.51.18-.83.18A4.84,4.84,0,0,0,5,11.55c.15.13.27.31.47.34a.69.69,0,0,0,.68.27c.12,0,.15-.22.28-.16a.17.17,0,0,1,.08.21c-.24.38-.36.83-.58,1.18a.11.11,0,0,1-.17,0c0-.07,0-.26,0-.4,0-.3-.3-.45-.5-.62A2,2,0,0,0,4,12c-.15,0-.22.21-.39.16s0-.23,0-.32c.15-.26.27-.48.6-.55A7.25,7.25,0,0,1,5.83,11a.3.3,0,0,0,.2-.13,3.55,3.55,0,0,0-.67-.48,1.09,1.09,0,0,0-.42-.2c-.09.05-.17.16-.3.09s-.14-.08-.14-.16.13-.11.13-.21c.16-.31.2-.67.5-.9a.23.23,0,0,1,.21.05Z" fill="#bd2b30"/><path d="M3.36,14c.09.14.4,0,.35.28s-.4,0-.53.06a.57.57,0,0,0-.2.55.36.36,0,0,0,.13.29c.08,0,.44.17.54,0a.91.91,0,0,0,0-.53s.14,0,.26,0,.34,0,.3,0c-.14.27-.14.43-.29.57a.05.05,0,0,0,.06.05c.29,0,.61.18.88.2.06-.19.06-.54.11-.74s-.52-.45-.4-.76a.2.2,0,0,1,.25-.07c.21.09.39.1.54.29a1.67,1.67,0,0,1-.08,1.11A12.79,12.79,0,0,0,5,16.74a.17.17,0,0,1-.19,0c-.24-.19,0-.66-.58-.69a12.75,12.75,0,0,1-1.39-.32c-.28,0-.22.44-.51.32s.26-1.74.38-2.13c0-.06,0-.05.1-.08.21,0,.35.09.52.1Z" fill="#bd2b30"/><path d="M2.4,18.29a9.94,9.94,0,0,0,1.34.09c.26,0,.58.06.74-.17,0-.07,0-.19.13-.2a.8.8,0,0,1,.22,0v.06a4.35,4.35,0,0,0,0,1.14c0,.11,0,.22-.09.27-.24.05-.35-.36-.58-.41A5.91,5.91,0,0,0,2.83,19a.85.85,0,0,0-.63.4A.17.17,0,0,1,2,19.32a.09.09,0,0,1,0-.05,3.16,3.16,0,0,1,0-1c0-.13,0-.31.16-.35s.14.27.3.33Z" fill="#bd2b30"/><path d="M4.79,20.74c.09,0,.24,0,.28.09s0,.32.08.51c.08.38.44,1.42.44,1.57a.31.31,0,0,1-.16.16c-.34,0-.15-.29-.5-.22a9.27,9.27,0,0,1-1.58.35c-.07,0-.15,0-.16.1s0,.24-.09.26-.21-.13-.27-.21c-.14-.35-.47-.66-.35-1.08,0-.08.12-.08.19-.09s.16.33.38.29a7.53,7.53,0,0,1,.83-.11c.27-.17,1,0,1-.34-.16-1.1-.5-.83-.83-1.24-.11-.11.12-.09.17-.14a2.19,2.19,0,0,1,.63.1Z" fill="#bd2b30"/><path d="M32.73,21.26a3.36,3.36,0,0,0,1.43.36c.19,0,.4.21.57.06s.09-.22.19-.28a.18.18,0,0,1,.2.15c0,.24-.18.44-.22.68a2.77,2.77,0,0,0-.3,1.08.22.22,0,0,1-.16.2,2.32,2.32,0,0,1-.7-.07c-.09,0-.19-.22-.1-.22.58,0,.83-.76.83-.82s-.55-.11-.75-.18.09.43-.17.52-.09,0-.29,0a.28.28,0,0,1-.16-.16.23.23,0,0,1,.06-.25.12.12,0,0,0,.1-.1c0-.05-.1-.13-.19-.16-.24,0-.61-.33-.75-.11a1,1,0,0,0,.2,1.11.14.14,0,0,1-.07.12h-.13l-.5-.35c-.09-.11,0-.28,0-.39.09-.36.2-.69.32-1a.83.83,0,0,1,.24-.4c.26,0,.17.24.36.31Z" fill="#bd2b30"/><path d="M31.52,24.2v.19a3,3,0,0,0,1.08.73,5.55,5.55,0,0,0,.94.56.23.23,0,0,1,.11.26c-.3.35-.88.22-1.31.22A1.65,1.65,0,0,0,32,26.1c-.06.07.11.3.14.37.16.32.34.55.49.88a.15.15,0,0,1-.07.16,2.28,2.28,0,0,1-.83-.32c-.28-.11-.25-.19-.41-.25-.32-.11-.73-.52-1-.3-.11.09-.2,0-.31-.06a1.87,1.87,0,0,1,.29-.68c.11-.07.06-.33.26-.25s0,.37.19.4a6.06,6.06,0,0,1,1.19.67c.08,0-.68-1-.69-1.22s1.39.09,1.41,0-.83-.44-.89-.48c-.21,0-.43-.34-.71.12-.05.07-.19,0-.22-.07s.1-.17.12-.26.08-.6.38-.75c0,0,.1.05.15.11Z" fill="#bd2b30"/><path d="M29.52,27.79c.09.27.45.33.65.55s.55.76,1,.76c.17,0,.37-.1.45,0s-.2.24-.31.35a6.27,6.27,0,0,0-.53.57.12.12,0,0,1-.16,0c-.07-.1.1-.25,0-.37a2.29,2.29,0,0,0-.68-.56c-.29-.22-.41-.5-.77-.64-.2-.05-.39.24-.55,0,0-.29.32-.43.43-.67s.19-.28.33-.37.07.25.12.35Z" fill="#bd2b30"/><path d="M8.94,28.59a.75.75,0,0,0,.55.62.13.13,0,0,1-.08.16h0a1.49,1.49,0,0,1-.47.07c-.14.13-.15.08-.34.12a.13.13,0,0,1-.17-.06v-.08a.45.45,0,0,0,.24-.3.83.83,0,0,0-.45-.64.38.38,0,0,0-.33,0c-.14.11,0,.26,0,.43a2.49,2.49,0,0,1,.14.71,1.11,1.11,0,0,1-.31.83.87.87,0,0,1-.66.16c-.22,0-.36-.2-.51-.33a4,4,0,0,1-.4-.69c0-.15.18-.19.28-.27l.39-.1c.19.14-.1.24-.12.37a.52.52,0,0,0,.23.49.48.48,0,0,0,.42,0c.11-.08,0-.21.06-.34-.06-.45-.38-.82-.24-1.34a.83.83,0,0,1,.3-.44,1.27,1.27,0,0,1,1.26.31.73.73,0,0,1,.24.31Z" fill="#bd2b30"/><path d="M25,31.4c0,.14-.27.17-.17.33s.09.51.27.72.2.76.45.93.29,0,.48,0a.23.23,0,0,1,.1.21c-.06.2-.29.14-.44.22-.42.16-.94.36-1.35.54-.12,0-.13.26-.3.18s-.17-.46-.33-.65V33.7s.16.08.24.09.13.19.27.14a1.54,1.54,0,0,1,.48-.24l-.15-.63a.19.19,0,0,0-.2-.06c-.13.09-.07.26-.19.35s-.12-.08-.14-.13a.64.64,0,0,1-.11-.52c.13-.15.28.06.44,0s0-.14,0-.2c-.21-.16-.14-.74-.53-.58-.16.06-.42.13-.47.32s0,.3-.2.33A.12.12,0,0,1,23,32.5c0-.12.05-.2.06-.32s-.12-.3,0-.35c.39-.17.82-.24,1.25-.4.14-.08.43-.29.6-.22l0,.14Z" fill="#bd2b30"/><path d="M34.77,14.4c-.05-.07-.12-.15-.2-.15-.26.1-.5-.05-.77,0A7.29,7.29,0,0,1,32.33,14a.8.8,0,0,1-.42-.43c0-.12-.23-.17-.27-.07a.84.84,0,0,0,.05.52c.12.24.14.4.24.62a.11.11,0,0,0,.15.09h0c.08,0,.05-.28,0-.36s.18,0,.24,0,.16,0,.26.11a4.15,4.15,0,0,1,.16.63c0,.13,0,.27,0,.4s-.22.2-.3.18-.15-.24-.3-.24-.06.12-.07.19a5.49,5.49,0,0,0,.11,1c.08.2.09.17.19.13.3-.19,0-.22.29-.45s1.4-1.2,1.65-1.33a2.22,2.22,0,0,0,.39-.36.39.39,0,0,0,0-.26Zm-1.65.82c-.07,0-.09-.07-.11-.11l-.09-.67c.17-.13.82.08,1.07.07S33.28,15.1,33.12,15.22Z" fill="#bd2b30" fill-rule="evenodd"/><path d="M31,7.63c0-.11-.14-.12-.23-.12-.68.19-1.28.56-1.95.77a1.09,1.09,0,0,1-.59-.07c-.08,0-.2-.08-.27,0a.33.33,0,0,0,0,.24c.27.17.43.61.73.61.13,0,0-.2.18-.31s.57.27.74.5a.39.39,0,0,1,0,.3c0,.07-.13,0-.23,0s-.14-.1-.19,0a.19.19,0,0,0,0,.15,1.72,1.72,0,0,1,.51.53c.09.08.16.29.26.22s.06-.22.09-.35c.05-.29.31-.68.43-1.1A9.59,9.59,0,0,0,31,7.62ZM29.83,8.87c-.19,0-.36-.23-.44-.37a3.34,3.34,0,0,1,.73-.43c.14-.05-.19.72-.29.82Z" fill="#bd2b30" fill-rule="evenodd"/><path d="M28.59,31.81c-.15-.52-.28-1-.38-1.59a2.52,2.52,0,0,1,0-.67c.08-.15.22-.27.23-.43a.16.16,0,0,0-.17-.1,1.68,1.68,0,0,1-.57.38c-.09.16-.2.07-.26.26s.17.09.27.1.06.13.07.2a1.6,1.6,0,0,1-.69.57.2.2,0,0,1-.18-.12c-.13-.15,0-.17-.06-.33a.11.11,0,0,0-.12,0c-.24.22-.54.32-.76.56-.06.05-.17.07-.15.17a.43.43,0,0,0,.14.23.26.26,0,0,0,.21,0c.49-.25.83.46,1.22.68s.73.6.94.58a.63.63,0,0,0,.39-.19C28.72,32,28.63,31.88,28.59,31.81Zm-.52-.32c-.12,0-.56-.56-.66-.62s-.07,0-.09-.06v-.07c.12-.1.51-.52.61-.2,0,.11.2.72.23.82a.13.13,0,0,1-.09.1Z" fill="#bd2b30" fill-rule="evenodd"/><path d="M7.23,26.52c-.14-.28-.31-.83-.47-.83s0,.39-.21.51a.36.36,0,0,1-.32,0C6,26.12,6,26,5.86,25.72c-.07-.13-.23-.29-.1-.45S5.9,25,6.07,25s.06.09.09.14.07.2.19.16.1-.05.1-.11c0-.3-.26-.5-.35-.78S6,24,5.76,23.94s0,.28-.09.42a6.1,6.1,0,0,1-.58.76,7.89,7.89,0,0,1-.65.76l-.25.42c0,.09-.14.29,0,.29a14.16,14.16,0,0,0,2.06,0c.27,0,.63-.07.82.16.09.06.1.17.19.2a.15.15,0,0,0,.2,0c0-.17-.14-.3-.22-.44Zm-1.65-.26H4.89s.47-.5.49-.54.22.16.22.16.07.25.16.3-.14.08-.18.07Z" fill="#bd2b30" fill-rule="evenodd"/><path d="M30.78,12.21a1.3,1.3,0,0,1-.2-.64c0-.17.15-.35.16-.5a1.44,1.44,0,0,1,.45-.5,1.56,1.56,0,0,1,.6-.31c.22,0,.43-.11.61-.1a1.15,1.15,0,0,1,.48.13,2,2,0,0,1,.38.32c.43.55.49,1.14.26,1.27l-.07,0-.24.11a.85.85,0,0,1-.22.09.14.14,0,0,1-.09,0,.09.09,0,0,1-.07,0h0a.25.25,0,0,1,.08-.16l.07-.1c.09-.12.18-.15.21-.25a.86.86,0,0,0,0-.39.56.56,0,0,0-.46-.48,1.8,1.8,0,0,0-1.38.44.71.71,0,0,0-.15.67.37.37,0,0,0,.08.18c0,.15.42.6.5.58s-.08.19-.08.19a1.69,1.69,0,0,1-.95-.62Z" fill="#bd2b30"/><path d="M13.72,34.49a.3.3,0,0,1-.13-.09.09.09,0,0,1,0-.1c0-.07.24-.09.24-.09a1,1,0,0,0,.24-.36s.15-.49.2-.66c0,0,.06-.3.07-.33a.58.58,0,0,0,0-.45.47.47,0,0,0-.32-.26.42.42,0,0,0-.38,0,.4.4,0,0,0-.28.27,1.5,1.5,0,0,0-.15.26l-.34.63c-.09.28-.16.47-.13.52l.06.07c.06.06.13.17.12.21s0,.06-.07.07h-.11l-.8-.3a.14.14,0,0,1-.1-.07.2.2,0,0,1,0-.11c0-.05.07-.07.15-.08a.88.88,0,0,0,.23,0l.47-.88s.23-.46.25-.53a.7.7,0,0,1,.45-.45,1.17,1.17,0,0,1,.76.07,1.43,1.43,0,0,1,.73.45,1.78,1.78,0,0,1,.09,1,1.1,1.1,0,0,1-.1.29l-.11.54v.19a.47.47,0,0,0,0,.17l.08.11s.08.11.07.16a.16.16,0,0,1-.07.07.11.11,0,0,1-.11,0Z" fill="#bd2b30"/><path d="M37.38,17.05a11.37,11.37,0,0,0-.4-2.17A18.2,18.2,0,0,0,36,11.62a5.11,5.11,0,0,0-.6-1.16c-.14-.28-.32-.54-.45-.82-.29-.39-.42-.83-.71-1.23s-.62-.82-1-1.24-.75-.82-1.06-1.26c-.31-.14-.4-.51-.7-.68C31.43,5,31.14,5,31,4.71c-.38-.32-.72-.73-1.13-1-.6-.51-1.35-.64-1.94-1.18l-.5-.25A13.43,13.43,0,0,0,26,1.55c-.39-.19-.82-.35-1.2-.54s-.68-.23-1-.32c-.09,0-.16-.09-.25-.07a15.32,15.32,0,0,1-2.23-.4,19.49,19.49,0,0,1-2-.22c-.29,0-.63,0-.88,0-.55,0-1.09,0-1.65.13A8.85,8.85,0,0,0,14.55.7c-.78.27-1.57.53-2.34.83a1.63,1.63,0,0,1-.52.19c-.48.12-.83.45-1.32.57a6.6,6.6,0,0,0-1.49.83A5.86,5.86,0,0,0,7.49,4,6.25,6.25,0,0,0,6.07,5c-.46.53-1,.93-1.48,1.44-.15.24-.36.46-.5.7s-.45.55-.65.83a4,4,0,0,0-.67.92c-.22.46-.54.87-.77,1.32s-.27.62-.4,1A6.87,6.87,0,0,0,1,12.4c-.13.45-.33.87-.42,1.34,0,.17-.18.29-.14.48a6.29,6.29,0,0,0-.23,1.13C.24,16,0,16.5,0,17.11v1.54a20.48,20.48,0,0,0,.11,2.59,6.38,6.38,0,0,0,.13,1.07,21.62,21.62,0,0,0,.83,2.85c.18.68.51,1.29.75,1.94a6,6,0,0,1,.62,1,7.2,7.2,0,0,0,.78,1.24c0,.13.23.22.24.37a5.9,5.9,0,0,1,.5.7c.25.24.42.52.67.75.06.21.3.32.39.51a2.49,2.49,0,0,1,.62.59c.38.15.6.53.93.77a14.52,14.52,0,0,0,2.64,1.81c.42.16.82.43,1.2.61.55.27,1.12.48,1.66.73a10.07,10.07,0,0,0,1.43.29c.19,0,.35.13.55.13.68.15,1.35.32,2,.45a16.64,16.64,0,0,0,3.31,0,14.93,14.93,0,0,0,4.2-.57c.62-.23,1.26-.38,1.89-.6.73-.41,1.54-.64,2.27-1.06a5.85,5.85,0,0,1,.56-.28c.53-.26,1-.72,1.51-1A19.61,19.61,0,0,0,31.9,32,14.81,14.81,0,0,0,33.55,30,11.69,11.69,0,0,0,35,27.81c.07-.06.09-.16.14-.23a1.58,1.58,0,0,1,.21-.52c.18-.56.53-1.06.73-1.66a4.62,4.62,0,0,0,.29-1,13.47,13.47,0,0,0,.52-1.78c.19-1.12.43-2.23.54-3.38a9.08,9.08,0,0,0,0-2.21Zm-.52,3a21.33,21.33,0,0,1-.51,3c-.07.74-.52,1.25-.64,2a7.21,7.21,0,0,1-.5,1.34c-.3.59-.58,1.08-.82,1.65A13.7,13.7,0,0,1,31,32.18c-.58.39-1.14.83-1.69,1.27l-.74.44c-.36.06-.59.42-.91.57a5.23,5.23,0,0,1-.76.35,11.14,11.14,0,0,1-2.35,1c-.62.27-1.32.36-1.95.62-.82.13-1.65.25-2.48.34a14.67,14.67,0,0,1-2.48,0A7.31,7.31,0,0,0,16,36.68a4,4,0,0,1-.6-.14,15.76,15.76,0,0,0-1.66-.34,20.17,20.17,0,0,1-2-.59,4,4,0,0,0-.45-.15c-.66-.39-1.39-.63-2-1.06l-.12,0A12.63,12.63,0,0,0,7.64,33.3a20.55,20.55,0,0,1-1.79-1.39,12.8,12.8,0,0,1-1-1.09,10.24,10.24,0,0,1-.72-.75c-.46-.51-.71-1.13-1.16-1.65a13.33,13.33,0,0,1-.83-1.59c-.17-.41-.4-.78-.55-1.2-.25-.66-.38-1.37-.67-2a11.71,11.71,0,0,1-.37-1.32,8.61,8.61,0,0,1-.19-2.15,4.94,4.94,0,0,1,0-1.33,1.35,1.35,0,0,1,0-.49c-.06-.35.09-.69,0-1,0-.6.21-1.1.19-1.72a10.76,10.76,0,0,0,.19-1.18c.12-.22.15-.47.27-.69a5.93,5.93,0,0,1,.34-1.16A6,6,0,0,1,2,11.22a12.18,12.18,0,0,0,.66-1.47A14.49,14.49,0,0,1,3.71,8.22,7.07,7.07,0,0,1,4.63,7c.14-.39.54-.6.82-.91a8.72,8.72,0,0,1,1.86-1.4c.42-.25.83-.57,1.22-.83.06-.11.21-.1.3-.18a14.5,14.5,0,0,1,2.11-1.17,16.82,16.82,0,0,1,3-1.12A8.06,8.06,0,0,0,15,1.07a7.17,7.17,0,0,0,.91-.24c.31-.09.66-.09,1-.19A14.31,14.31,0,0,1,19,.69a3.84,3.84,0,0,1,.83,0,2.09,2.09,0,0,0,.5,0,6.73,6.73,0,0,1,1.55.14l.76.19a7.36,7.36,0,0,1,.92.25c.33.12.7.15,1,.26.82.34,1.65.63,2.48,1,.58.43,1.26.62,1.83,1.11.48.31.95.63,1.4,1,.22.19.42.39.62.6s.6.57.89.83.46.51.74.72a5.92,5.92,0,0,1,.66.82,17.42,17.42,0,0,1,1.37,2.05,6,6,0,0,1,.82,1.46,18.11,18.11,0,0,1,.83,2.27c.17.67.46,1.29.59,2a14.39,14.39,0,0,1,.2,1.72,5.38,5.38,0,0,1,0,1.5A3.94,3.94,0,0,1,36.88,20Z" fill="#bd2b30" fill-rule="evenodd"/><path d="M35.3,17.36c-.21-.31-.23.15-.32.26a1.69,1.69,0,0,1-.71.13c-.46-.11-.82.11-1.27,0-.08-.05-.24.05-.27-.06s-.14-.21-.26-.19-.07,0-.07.08a9.36,9.36,0,0,1,.1,1.3,2.19,2.19,0,0,0,.63,1,1.46,1.46,0,0,0,.91.19,1.36,1.36,0,0,0,.83-.44l.25-.35c.06-.1,0-.22.11-.31a4.61,4.61,0,0,0,.11-.82,5.21,5.21,0,0,0,0-.79ZM34.78,19c-.33.47-1,.38-1.47.32a.66.66,0,0,1-.39-.38.86.86,0,0,1,0-.45,1.16,1.16,0,0,1,.82,0c.23,0,1-.12,1.11,0a2.62,2.62,0,0,1,0,.56Z" fill="#bd2b30" fill-rule="evenodd"/></svg>